GeoramaExtraCondensed-ExtraBoldItalic.ufo
<glyph name="exclam" format="2">
  <advance width="179.22"/>
  <unicode hex="0021"/>
  <outline>
    <contour>
      <point x="21.92" y="259.7" type="line"/>
      <point x="146.56" y="259.7" type="line"/>
      <point x="238.76" y="740.0" type="line"/>
      <point x="90.9" y="740.0" type="line"/>
    </contour>
    <contour>
      <point x="-20.5" y="59.019999999999996" type="curve" smooth="yes"/>
      <point x="-20.64" y="14.04"/>
      <point x="-0.72" y="-8.6"/>
      <point x="43.82" y="-8.6" type="curve" smooth="yes"/>
      <point x="119.16" y="-8.6"/>
      <point x="140.66" y="73.24"/>
      <point x="141.07999999999998" y="130.64" type="curve" smooth="yes"/>
      <point x="141.22" y="175.76"/>
      <point x="121.02" y="198.26"/>
      <point x="76.62" y="198.26" type="curve" smooth="yes"/>
      <point x="3.2800000000000002" y="198.26"/>
      <point x="-20.08" y="118.14"/>
    </contour>
  </outline>
</glyph>
<glyph name="numbersign" format="2">
  <advance width="396.2"/>
  <unicode hex="0023"/>
  <outline>
    <contour>
      <point x="71.16" y="402.44" type="line"/>
      <point x="107.96000000000001" y="402.44" type="line"/>
      <point x="81.68" y="287.52" type="line"/>
      <point x="42.28" y="287.52" type="line"/>
      <point x="20.22" y="148.26" type="line"/>
      <point x="53.46" y="148.26" type="line"/>
      <point x="21.82" y="0.0" type="line"/>
      <point x="121.94" y="0.0" type="line"/>
      <point x="153.44" y="148.26" type="line"/>
      <point x="185.18" y="148.26" type="line"/>
      <point x="153.68" y="0.0" type="line"/>
      <point x="252.8" y="0.0" type="line"/>
      <point x="284.3" y="148.26" type="line"/>
      <point x="326.4" y="148.26" type="line"/>
      <point x="348.32" y="287.52" type="line"/>
      <point x="312.52" y="287.52" type="line"/>
      <point x="338.8" y="402.44" type="line"/>
      <point x="377.2" y="402.44" type="line"/>
      <point x="399.98" y="543.42" type="line"/>
      <point x="367.02" y="543.42" type="line"/>
      <point x="401.1" y="700.0" type="line"/>
      <point x="301.12" y="700.0" type="line"/>
      <point x="267.04" y="543.42" type="line"/>
      <point x="235.3" y="543.42" type="line"/>
      <point x="269.38" y="700.0" type="line"/>
      <point x="170.26" y="700.0" type="line"/>
      <point x="136.18" y="543.42" type="line"/>
      <point x="93.94" y="543.42" type="line"/>
    </contour>
    <contour>
      <point x="207.07999999999998" y="402.44" type="line"/>
      <point x="238.82" y="402.44" type="line"/>
      <point x="213.4" y="287.52" type="line"/>
      <point x="181.66" y="287.52" type="line"/>
    </contour>
  </outline>
</glyph>
<glyph name="dollar" format="2">
  <advance width="396.2"/>
  <unicode hex="0024"/>
  <outline>
    <contour>
      <point x="403.47999999999996" y="677.0799999999999" type="line"/>
      <point x="386.32" y="688.52"/>
      <point x="354.84" y="700.4"/>
      <point x="320.79999999999995" y="705.84" type="curve"/>
      <point x="335.79999999999995" y="803.28" type="line"/>
      <point x="208.44" y="803.28" type="line"/>
      <point x="190.72" y="695.24" type="line"/>
      <point x="104.88000000000001" y="665.88"/>
      <point x="61.52" y="583.9599999999999"/>
      <point x="61.52" y="499.04" type="curve" smooth="yes"/>
      <point x="61.52" y="322.32"/>
      <point x="208.84" y="275.08000000000004"/>
      <point x="208.84" y="198.95999999999998" type="curve" smooth="yes"/>
      <point x="208.84" y="159.36"/>
      <point x="186.88" y="134.84"/>
      <point x="145.0" y="134.84" type="curve" smooth="yes"/>
      <point x="111.4" y="134.84"/>
      <point x="79.08" y="143.72"/>
      <point x="37.0" y="162.60000000000002" type="curve"/>
      <point x="-10.399999999999999" y="28.36" type="line"/>
      <point x="15.64" y="11.04"/>
      <point x="47.519999999999996" y="0.3200000000000003"/>
      <point x="76.24" y="-4.84" type="curve"/>
      <point x="61.239999999999995" y="-105.0" type="line"/>
      <point x="188.60000000000002" y="-105.0" type="line"/>
      <point x="203.60000000000002" y="-2.12" type="line"/>
      <point x="304.76" y="23.799999999999997"/>
      <point x="350.24" y="116.92"/>
      <point x="350.24" y="201.23999999999998" type="curve" smooth="yes"/>
      <point x="350.24" y="377.96"/>
      <point x="210.51999999999998" y="417.03999999999996"/>
      <point x="210.51999999999998" y="495.88" type="curve" smooth="yes"/>
      <point x="210.51999999999998" y="531.64"/>
      <point x="233.79999999999998" y="557.8399999999999"/>
      <point x="277.84" y="557.8399999999999" type="curve" smooth="yes"/>
      <point x="293.52" y="557.8399999999999"/>
      <point x="321.72" y="553.8399999999999"/>
      <point x="354.92" y="538.24" type="curve"/>
    </contour>
  </outline>
</glyph>
<glyph name="ampersand" format="2">
  <advance width="476.96000000000004"/>
  <unicode hex="0026"/>
  <outline>
    <contour>
      <point x="201.89999999999998" y="-10.0" type="curve" smooth="yes"/>
      <point x="361.84000000000003" y="-10.0"/>
      <point x="464.62" y="154.56"/>
      <point x="403.06" y="294.86" type="curve"/>
      <point x="288.74" y="280.8" type="line"/>
      <point x="351.3" y="207.96"/>
      <point x="286.34000000000003" y="129.26"/>
      <point x="225.39999999999998" y="129.26" type="curve" smooth="yes"/>
      <point x="166.22" y="129.26"/>
      <point x="138.64" y="168.39999999999998"/>
      <point x="138.64" y="226.2" type="curve" smooth="yes"/>
      <point x="138.64" y="298.78"/>
      <point x="180.62" y="369.04"/>
      <point x="246.16" y="369.04" type="curve" smooth="yes"/>
      <point x="259.6" y="369.04" type="line"/>
      <point x="284.96" y="473.9" type="line"/>
      <point x="267.5" y="477.34" type="line" smooth="yes"/>
      <point x="232.86" y="482.5"/>
      <point x="220.92000000000002" y="501.7"/>
      <point x="220.92000000000002" y="527.08" type="curve" smooth="yes"/>
      <point x="220.92000000000002" y="558.34"/>
      <point x="244.42000000000002" y="576.76"/>
      <point x="267.88" y="576.76" type="curve" smooth="yes"/>
      <point x="287.86" y="576.76"/>
      <point x="304.14" y="574.06"/>
      <point x="325.56" y="559.22" type="curve"/>
      <point x="388.74" y="678.42" type="line"/>
      <point x="344.52" y="699.14"/>
      <point x="306.62" y="710.0"/>
      <point x="253.68" y="710.0" type="curve" smooth="yes"/>
      <point x="150.86" y="710.0"/>
      <point x="88.4" y="629.54"/>
      <point x="88.4" y="545.72" type="curve" smooth="yes"/>
      <point x="88.4" y="496.78"/>
      <point x="106.1" y="462.68"/>
      <point x="149.98000000000002" y="427.48" type="curve"/>
      <point x="66.06" y="398.04"/>
      <point x="2.6799999999999997" y="319.46"/>
      <point x="2.6799999999999997" y="191.66" type="curve" smooth="yes"/>
      <point x="2.6799999999999997" y="80.0"/>
      <point x="68.22" y="-10.0"/>
    </contour>
    <contour>
      <point x="274.92" y="209.36" type="line"/>
      <point x="275.62" y="239.26"/>
      <point x="283.18" y="260.16"/>
      <point x="308.06" y="260.16" type="curve" smooth="yes"/>
      <point x="336.06" y="260.16"/>
      <point x="364.96" y="258.48"/>
      <point x="389.06" y="258.48" type="curve" smooth="yes"/>
      <point x="457.78" y="258.48"/>
      <point x="502.15999999999997" y="334.7"/>
      <point x="483.64" y="407.15999999999997" type="curve"/>
      <point x="396.26" y="408.42" type="line"/>
      <point x="393.56" y="354.72"/>
      <point x="372.96" y="348.58"/>
      <point x="330.15999999999997" y="348.58" type="curve" smooth="yes"/>
      <point x="316.48" y="348.58"/>
      <point x="301.96" y="350.26"/>
      <point x="288.0" y="350.26" type="curve" smooth="yes"/>
      <point x="207.96" y="350.26"/>
      <point x="185.22" y="282.5"/>
      <point x="183.96" y="223.38" type="curve"/>
    </contour>
  </outline>
</glyph>
<glyph name="quotesingle" format="2">
  <advance width="176.36"/>
  <unicode hex="0027"/>
  <outline>
    <contour>
      <point x="48.92" y="427.0" type="line"/>
      <point x="171.14" y="427.0" type="line"/>
      <point x="223.3" y="700.0" type="line"/>
      <point x="87.06" y="700.0" type="line"/>
    </contour>
  </outline>
</glyph>
<glyph name="parenleft" format="2">
  <advance width="228.22"/>
  <unicode hex="0028"/>
  <outline>
    <contour>
      <point x="4.080000000000002" y="31.6" type="curve" smooth="yes"/>
      <point x="4.080000000000002" y="-114.4"/>
      <point x="44.3" y="-202.88"/>
      <point x="135.94" y="-220.0" type="curve"/>
      <point x="160.98000000000002" y="-81.88" type="line"/>
      <point x="134.82" y="-63.44"/>
      <point x="119.26" y="-32.0"/>
      <point x="119.26" y="42.62" type="curve" smooth="yes"/>
      <point x="119.26" y="151.22"/>
      <point x="177.9" y="600.8"/>
      <point x="272.44" y="611.32" type="curve"/>
      <point x="292.96" y="749.86" type="line"/>
      <point x="70.9" y="738.52"/>
      <point x="4.080000000000002" y="265.36"/>
    </contour>
  </outline>
</glyph>
<glyph name="parenright" format="2">
  <advance width="228.22"/>
  <unicode hex="0029"/>
  <outline>
    <contour>
      <point x="221.28" y="498.4" type="curve" smooth="yes"/>
      <point x="221.28" y="644.4"/>
      <point x="181.2" y="732.88"/>
      <point x="89.56" y="750.0" type="curve"/>
      <point x="64.8" y="611.46" type="line"/>
      <point x="91.24" y="592.1800000000001"/>
      <point x="106.1" y="561.72"/>
      <point x="106.1" y="489.2" type="curve" smooth="yes"/>
      <point x="106.1" y="378.92"/>
      <point x="47.32" y="-71.22"/>
      <point x="-47.22" y="-81.60000000000001" type="curve"/>
      <point x="-67.6" y="-220.0" type="line"/>
      <point x="154.18" y="-207.82"/>
      <point x="221.28" y="264.92"/>
    </contour>
  </outline>
</glyph>
<glyph name="asterisk" format="2">
  <advance width="299.84000000000003"/>
  <unicode hex="002A"/>
  <outline>
    <contour>
      <point x="116.6" y="423.66" type="line"/>
      <point x="183.78" y="491.46" type="line"/>
      <point x="228.12" y="423.8" type="line"/>
      <point x="288.7" y="464.76" type="line"/>
      <point x="260.56" y="544.58" type="line"/>
      <point x="342.58" y="584.0" type="line"/>
      <point x="332.56" y="652.46" type="line"/>
      <point x="249.24" y="633.38" type="line"/>
      <point x="255.06" y="724.46" type="line"/>
      <point x="187.46" y="724.46" type="line"/>
      <point x="162.72" y="633.52" type="line"/>
      <point x="87.96000000000001" y="652.6" type="line"/>
      <point x="55.019999999999996" y="584.28" type="line"/>
      <point x="120.46" y="544.86" type="line"/>
      <point x="68.34" y="464.76" type="line"/>
    </contour>
  </outline>
</glyph>
<glyph name="plus" format="2">
  <advance width="380.42"/>
  <unicode hex="002B"/>
  <outline>
    <contour>
      <point x="107.5" y="150.26" type="line"/>
      <point x="234.0" y="150.26" type="line"/>
      <point x="250.66" y="254.92000000000002" type="line"/>
      <point x="335.54" y="254.92000000000002" type="line"/>
      <point x="357.46" y="395.18" type="line"/>
      <point x="272.58" y="395.18" type="line"/>
      <point x="289.24" y="499.98" type="line"/>
      <point x="162.74" y="499.98" type="line"/>
      <point x="146.08" y="395.18" type="line"/>
      <point x="61.06" y="395.18" type="line"/>
      <point x="39.14" y="254.92000000000002" type="line"/>
      <point x="124.16" y="254.92000000000002" type="line"/>
    </contour>
  </outline>
</glyph>
<glyph name="comma" format="2">
  <advance width="176.0"/>
  <unicode hex="002C"/>
  <outline>
    <contour>
      <point x="-8.879999999999999" y="100.22" type="line"/>
      <point x="-9.6" y="67.0"/>
      <point x="-13.04" y="37.94"/>
      <point x="-15.62" y="23.64" type="curve" smooth="yes"/>
      <point x="-23.36" y="-28.6"/>
      <point x="-58.22" y="-106.42"/>
      <point x="-84.44" y="-147.57999999999998" type="curve"/>
      <point x="16.159999999999997" y="-180.64" type="line"/>
      <point x="79.56" y="-103.42"/>
      <point x="122.92" y="-20.66"/>
      <point x="122.92" y="68.78" type="curve" smooth="yes"/>
      <point x="122.92" y="80.64"/>
      <point x="122.06" y="91.5"/>
      <point x="121.78" y="102.06" type="curve"/>
    </contour>
  </outline>
</glyph>
<glyph name="hyphen" format="2">
  <advance width="283.68"/>
  <unicode hex="002D"/>
  <outline>
    <contour>
      <point x="24.759999999999998" y="236.66" type="line"/>
      <point x="245.89999999999998" y="236.66" type="line"/>
      <point x="271.4" y="388.96" type="line"/>
      <point x="50.26" y="388.96" type="line"/>
    </contour>
  </outline>
</glyph>
<glyph name="period" format="2">
  <advance width="176.0"/>
  <unicode hex="002E"/>
  <outline>
    <contour>
      <point x="-20.46" y="61.6" type="curve" smooth="yes"/>
      <point x="-20.6" y="15.76"/>
      <point x="-1.540000000000001" y="-6.02"/>
      <point x="43.86" y="-6.02" type="curve" smooth="yes"/>
      <point x="119.2" y="-6.02"/>
      <point x="139.84" y="75.82"/>
      <point x="140.26" y="134.94" type="curve" smooth="yes"/>
      <point x="140.39999999999998" y="179.2"/>
      <point x="121.06" y="200.84"/>
      <point x="76.66" y="200.84" type="curve" smooth="yes"/>
      <point x="2.459999999999999" y="200.84"/>
      <point x="-20.04" y="120.72"/>
    </contour>
  </outline>
</glyph>
<glyph name="slash" format="2">
  <advance width="343.08"/>
  <unicode hex="002F"/>
  <outline>
    <contour>
      <point x="-84.06" y="-210.0" type="line"/>
      <point x="37.14" y="-210.0" type="line"/>
      <point x="424.14" y="740.0" type="line"/>
      <point x="301.22" y="740.0" type="line"/>
    </contour>
  </outline>
</glyph>
<glyph name="zero" format="2">
  <advance width="396.2"/>
  <unicode hex="0030"/>
  <outline>
    <contour>
      <point x="160.56" y="-10.0" type="curve" smooth="yes"/>
      <point x="345.88" y="-10.0"/>
      <point x="403.59999999999997" y="298.92"/>
      <point x="403.59999999999997" y="517.0799999999999" type="curve" smooth="yes"/>
      <point x="403.59999999999997" y="649.88"/>
      <point x="358.68" y="710.0"/>
      <point x="258.91999999999996" y="710.0" type="curve" smooth="yes"/>
      <point x="80.80000000000001" y="710.0"/>
      <point x="15.879999999999999" y="401.64"/>
      <point x="15.879999999999999" y="183.48" type="curve" smooth="yes"/>
      <point x="15.879999999999999" y="50.68"/>
      <point x="60.8" y="-10.0"/>
    </contour>
    <contour>
      <point x="178.32" y="139.72" type="curve" smooth="yes"/>
      <point x="163.39999999999998" y="139.72"/>
      <point x="156.72" y="148.64"/>
      <point x="157.0" y="179.16" type="curve" smooth="yes"/>
      <point x="157.28" y="272.72"/>
      <point x="200.51999999999998" y="560.28"/>
      <point x="244.76" y="560.28" type="curve" smooth="yes"/>
      <point x="258.24" y="560.28"/>
      <point x="264.2" y="551.3599999999999"/>
      <point x="263.92" y="523.0" type="curve" smooth="yes"/>
      <point x="263.64" y="435.2"/>
      <point x="218.24" y="139.72"/>
    </contour>
  </outline>
</glyph>
<glyph name="one" format="2">
  <advance width="396.2"/>
  <unicode hex="0031"/>
  <outline>
    <contour>
      <point x="19.4" y="0.0" type="line"/>
      <point x="306.92" y="0.0" type="line"/>
      <point x="329.7" y="140.39999999999998" type="line"/>
      <point x="260.8" y="140.39999999999998" type="line"/>
      <point x="350.74" y="700.0" type="line"/>
      <point x="280.4" y="700.0" type="line"/>
      <point x="104.72" y="640.2" type="line"/>
      <point x="106.12" y="479.14" type="line"/>
      <point x="178.68" y="506.76" type="line"/>
      <point x="118.82" y="140.39999999999998" type="line"/>
      <point x="41.32" y="140.39999999999998" type="line"/>
    </contour>
  </outline>
</glyph>
<glyph name="two" format="2">
  <advance width="396.2"/>
  <unicode hex="0032"/>
  <outline>
    <contour>
      <point x="24.96" y="115.03999999999999" type="curve"/>
      <point x="7.319999999999999" y="0.0" type="line"/>
      <point x="299.79999999999995" y="0.0" type="line"/>
      <point x="320.72" y="125.64" type="line"/>
      <point x="174.24" y="125.64" type="line"/>
      <point x="297.48" y="296.72"/>
      <point x="381.44000000000005" y="415.12"/>
      <point x="381.44000000000005" y="552.24" type="curve" smooth="yes"/>
      <point x="381.44000000000005" y="649.36"/>
      <point x="336.08" y="710.0"/>
      <point x="254.95999999999998" y="710.0" type="curve" smooth="yes"/>
      <point x="190.72" y="710.0"/>
      <point x="135.36" y="686.68"/>
      <point x="88.88000000000001" y="651.4000000000001" type="curve"/>
      <point x="114.92" y="495.68000000000006" type="line"/>
      <point x="138.60000000000002" y="512.76"/>
      <point x="161.16" y="526.04"/>
      <point x="188.0" y="526.04" type="curve" smooth="yes"/>
      <point x="214.12" y="526.04"/>
      <point x="224.08" y="504.91999999999996"/>
      <point x="224.08" y="483.4800000000001" type="curve" smooth="yes"/>
      <point x="224.08" y="399.28"/>
      <point x="110.6" y="241.51999999999998"/>
    </contour>
  </outline>
</glyph>
<glyph name="three" format="2">
  <advance width="396.2"/>
  <unicode hex="0033"/>
  <outline>
    <contour>
      <point x="-12.24" y="37.3" type="line"/>
      <point x="22.68" y="8.44"/>
      <point x="59.839999999999996" y="-10.0"/>
      <point x="123.5" y="-10.0" type="curve" smooth="yes"/>
      <point x="233.28" y="-10.0"/>
      <point x="339.3" y="74.76"/>
      <point x="339.3" y="228.18" type="curve" smooth="yes"/>
      <point x="339.3" y="314.26"/>
      <point x="304.1" y="349.1"/>
      <point x="275.52" y="369.28" type="curve"/>
      <point x="338.74" y="414.22"/>
      <point x="381.46000000000004" y="471.56"/>
      <point x="381.46000000000004" y="560.5" type="curve" smooth="yes"/>
      <point x="381.46000000000004" y="658.72"/>
      <point x="330.1" y="710.0"/>
      <point x="242.98000000000002" y="710.0" type="curve" smooth="yes"/>
      <point x="183.44" y="710.0"/>
      <point x="128.8" y="688.26"/>
      <point x="85.72" y="654.78" type="curve"/>
      <point x="109.62" y="531.4200000000001" type="line"/>
      <point x="124.74" y="541.8199999999999"/>
      <point x="147.6" y="550.8199999999999"/>
      <point x="177.62" y="550.8199999999999" type="curve" smooth="yes"/>
      <point x="208.74" y="550.8199999999999"/>
      <point x="230.88" y="530.2"/>
      <point x="230.88" y="492.14" type="curve" smooth="yes"/>
      <point x="230.88" y="451.04"/>
      <point x="199.48" y="414.12"/>
      <point x="164.54" y="414.12" type="curve" smooth="yes"/>
      <point x="127.96000000000001" y="414.12" type="line"/>
      <point x="108.62" y="296.36" type="line"/>
      <point x="152.48" y="296.36" type="line" smooth="yes"/>
      <point x="186.06" y="296.36"/>
      <point x="202.34" y="270.68"/>
      <point x="202.34" y="237.66" type="curve" smooth="yes"/>
      <point x="202.34" y="182.36"/>
      <point x="173.84" y="142.3"/>
      <point x="123.64" y="142.3" type="curve" smooth="yes"/>
      <point x="97.8" y="142.3"/>
      <point x="80.82" y="149.14"/>
      <point x="56.94" y="166.26" type="curve"/>
    </contour>
  </outline>
</glyph>
<glyph name="four" format="2">
  <advance width="396.2"/>
  <unicode hex="0034"/>
  <outline>
    <contour>
      <point x="-0.03999999999999915" y="96.54" type="line"/>
      <point x="142.82" y="96.54" type="line"/>
      <point x="127.44" y="0.0" type="line"/>
      <point x="276.3" y="0.0" type="line"/>
      <point x="291.68" y="96.54" type="line"/>
      <point x="338.08" y="96.54" type="line"/>
      <point x="358.28" y="225.76" type="line"/>
      <point x="312.74" y="225.76" type="line"/>
      <point x="388.88" y="699.86" type="line"/>
      <point x="218.5" y="700.56" type="line"/>
      <point x="19.32" y="225.34" type="line"/>
    </contour>
    <contour>
      <point x="103.82" y="225.76" type="line"/>
      <point x="215.26" y="498.44" type="line"/>
      <point x="170.76" y="225.76" type="line"/>
    </contour>
  </outline>
</glyph>
<glyph name="five" format="2">
  <advance width="396.2"/>
  <unicode hex="0035"/>
  <outline>
    <contour>
      <point x="-10.84" y="30.259999999999998" type="line"/>
      <point x="22.36" y="3.56"/>
      <point x="61.26" y="-10.0"/>
      <point x="124.22" y="-10.0" type="curve" smooth="yes"/>
      <point x="283.06" y="-10.0"/>
      <point x="352.9" y="138.34"/>
      <point x="352.9" y="276.06" type="curve" smooth="yes"/>
      <point x="352.9" y="378.44"/>
      <point x="309.7" y="420.28"/>
      <point x="245.82" y="425.44" type="curve" smooth="yes"/>
      <point x="220.62" y="427.15999999999997" type="line"/>
      <point x="250.51999999999998" y="548.4200000000001" type="line"/>
      <point x="381.84000000000003" y="548.4200000000001" type="line"/>
      <point x="404.62" y="700.0" type="line"/>
      <point x="159.84" y="700.0" type="line"/>
      <point x="64.6" y="303.78" type="line"/>
      <point x="70.16" y="291.06" type="line"/>
      <point x="143.2" y="291.06" type="line" smooth="yes"/>
      <point x="182.88" y="291.06"/>
      <point x="200.6" y="274.14"/>
      <point x="200.6" y="230.06" type="curve" smooth="yes"/>
      <point x="200.6" y="193.2"/>
      <point x="180.2" y="143.16"/>
      <point x="117.9" y="143.16" type="curve" smooth="yes"/>
      <point x="83.46000000000001" y="143.16"/>
      <point x="60.16" y="152.84"/>
      <point x="40.56" y="165.24" type="curve"/>
    </contour>
  </outline>
</glyph>
<glyph name="six" format="2">
  <advance width="396.2"/>
  <unicode hex="0036"/>
  <note>
14
</note>
  <outline>
    <contour>
      <point x="171.72" y="-10.0" type="curve" smooth="yes"/>
      <point x="298.88" y="-10.0"/>
      <point x="371.36" y="128.92"/>
      <point x="371.36" y="320.15999999999997" type="curve" smooth="yes"/>
      <point x="371.36" y="420.08000000000004"/>
      <point x="326.48" y="455.48"/>
      <point x="276.2" y="455.48" type="curve" smooth="yes"/>
      <point x="236.2" y="455.48"/>
      <point x="209.07999999999998" y="441.08"/>
      <point x="177.64" y="407.88" type="curve"/>
      <point x="164.04" y="286.4" type="line"/>
      <point x="178.44" y="314.32"/>
      <point x="190.76" y="328.12"/>
      <point x="204.92000000000002" y="328.12" type="curve" smooth="yes"/>
      <point x="222.28" y="328.12"/>
      <point x="228.51999999999998" y="313.91999999999996"/>
      <point x="228.51999999999998" y="275.88" type="curve" smooth="yes"/>
      <point x="228.51999999999998" y="212.28"/>
      <point x="206.48000000000002" y="126.68"/>
      <point x="181.32" y="126.68" type="curve" smooth="yes"/>
      <point x="168.39999999999998" y="126.68"/>
      <point x="162.16" y="136.28"/>
      <point x="162.16" y="158.95999999999998" type="curve" smooth="yes"/>
      <point x="162.16" y="221.8"/>
      <point x="175.39999999999998" y="296.24"/>
      <point x="196.2" y="418.0" type="curve" smooth="yes"/>
      <point x="212.72" y="514.3199999999999"/>
      <point x="244.12" y="564.7199999999999"/>
      <point x="312.76" y="564.7199999999999" type="curve" smooth="yes"/>
      <point x="336.48" y="564.7199999999999"/>
      <point x="354.2" y="554.0"/>
      <point x="370.03999999999996" y="542.44" type="curve"/>
      <point x="431.2" y="671.6800000000001" type="line"/>
      <point x="414.8" y="688.24"/>
      <point x="367.56" y="710.0"/>
      <point x="313.48" y="710.0" type="curve" smooth="yes"/>
      <point x="112.2" y="710.0"/>
      <point x="23.759999999999998" y="458.56"/>
      <point x="23.759999999999998" y="181.76" type="curve" smooth="yes"/>
      <point x="23.759999999999998" y="39.440000000000005"/>
      <point x="75.28" y="-10.0"/>
    </contour>
  </outline>
</glyph>
<glyph name="seven" format="2">
  <advance width="396.2"/>
  <unicode hex="0037"/>
  <note>
9
</note>
  <outline>
    <contour>
      <point x="47.74" y="0.0" type="curve"/>
      <point x="199.18" y="0.0" type="line"/>
      <point x="220.62" y="124.34"/>
      <point x="245.48" y="206.66"/>
      <point x="317.46000000000004" y="372.26" type="curve" smooth="yes"/>
      <point x="411.58" y="587.54" type="line"/>
      <point x="429.2" y="700.0" type="line"/>
      <point x="107.82" y="700.0" type="line"/>
      <point x="84.18" y="551.86" type="line"/>
      <point x="254.7" y="551.86" type="line"/>
      <point x="170.72" y="380.78" type="line" smooth="yes"/>
      <point x="103.88" y="244.66"/>
      <point x="69.74" y="135.7"/>
    </contour>
  </outline>
</glyph>
<glyph name="eight" format="2">
  <advance width="396.2"/>
  <unicode hex="0038"/>
  <outline>
    <contour>
      <point x="171.68" y="-10.0" type="curve" smooth="yes"/>
      <point x="285.88" y="-10.0"/>
      <point x="362.04" y="60.199999999999996"/>
      <point x="362.04" y="205.92000000000002" type="curve" smooth="yes"/>
      <point x="362.04" y="383.56"/>
      <point x="206.12" y="420.12"/>
      <point x="206.12" y="519.12" type="curve" smooth="yes"/>
      <point x="206.12" y="551.88"/>
      <point x="219.8" y="571.5999999999999"/>
      <point x="242.64" y="571.5999999999999" type="curve" smooth="yes"/>
      <point x="261.24" y="571.5999999999999"/>
      <point x="271.8" y="555.4"/>
      <point x="271.8" y="523.48" type="curve" smooth="yes"/>
      <point x="271.8" y="478.8"/>
      <point x="242.83999999999997" y="446.48"/>
      <point x="223.04" y="425.0" type="curve"/>
      <point x="282.72" y="359.04" type="line"/>
      <point x="347.68" y="402.0"/>
      <point x="404.32" y="471.24"/>
      <point x="404.32" y="562.76" type="curve" smooth="yes"/>
      <point x="404.32" y="642.8000000000001"/>
      <point x="364.16" y="710.0"/>
      <point x="249.68" y="710.0" type="curve" smooth="yes"/>
      <point x="123.67999999999999" y="710.0"/>
      <point x="66.44" y="625.5600000000001"/>
      <point x="66.44" y="509.28000000000003" type="curve" smooth="yes"/>
      <point x="66.44" y="323.12"/>
      <point x="220.20000000000002" y="295.64"/>
      <point x="220.20000000000002" y="190.07999999999998" type="curve" smooth="yes"/>
      <point x="220.20000000000002" y="145.8"/>
      <point x="203.4" y="122.52"/>
      <point x="178.12" y="122.52" type="curve" smooth="yes"/>
      <point x="156.96" y="122.52"/>
      <point x="146.16" y="139.88"/>
      <point x="146.16" y="169.16" type="curve" smooth="yes"/>
      <point x="146.16" y="230.88"/>
      <point x="172.39999999999998" y="266.4"/>
      <point x="199.48" y="283.72" type="curve"/>
      <point x="136.08" y="362.59999999999997" type="line"/>
      <point x="53.08" y="335.15999999999997"/>
      <point x="2.3200000000000003" y="242.76000000000002"/>
      <point x="2.3200000000000003" y="150.4" type="curve" smooth="yes"/>
      <point x="2.3200000000000003" y="58.08"/>
      <point x="45.2" y="-10.0"/>
    </contour>
  </outline>
</glyph>
<glyph name="nine" format="2">
  <advance width="396.2"/>
  <unicode hex="0039"/>
  <outline>
    <contour>
      <point x="250.92000000000002" y="710.0" type="curve" smooth="yes"/>
      <point x="123.75999999999999" y="710.0"/>
      <point x="51.0" y="571.0799999999999"/>
      <point x="51.0" y="379.84000000000003" type="curve" smooth="yes"/>
      <point x="51.0" y="279.91999999999996"/>
      <point x="95.03999999999999" y="244.8"/>
      <point x="145.04000000000002" y="244.8" type="curve" smooth="yes"/>
      <point x="185.32000000000002" y="244.8"/>
      <point x="213.56" y="258.08"/>
      <point x="244.72" y="294.92" type="curve"/>
      <point x="258.32" y="413.88" type="line"/>
      <point x="244.20000000000002" y="385.96"/>
      <point x="231.6" y="372.16"/>
      <point x="217.44" y="372.16" type="curve" smooth="yes"/>
      <point x="200.36" y="372.16"/>
      <point x="194.12" y="386.08000000000004"/>
      <point x="194.12" y="424.12" type="curve" smooth="yes"/>
      <point x="194.12" y="488.0"/>
      <point x="216.16" y="573.3199999999999"/>
      <point x="240.32" y="573.3199999999999" type="curve" smooth="yes"/>
      <point x="251.51999999999998" y="573.3199999999999"/>
      <point x="259.48" y="563.0"/>
      <point x="259.48" y="542.76" type="curve" smooth="yes"/>
      <point x="259.48" y="494.68"/>
      <point x="247.23999999999998" y="404.04"/>
      <point x="226.16" y="282.0" type="curve" smooth="yes"/>
      <point x="209.92000000000002" y="185.68"/>
      <point x="180.95999999999998" y="134.56"/>
      <point x="112.88" y="134.56" type="curve" smooth="yes"/>
      <point x="89.44" y="134.56"/>
      <point x="68.44" y="146.0"/>
      <point x="52.32" y="159.24" type="curve"/>
      <point x="-8.84" y="29.720000000000002" type="line"/>
      <point x="8.84" y="11.760000000000002"/>
      <point x="60.08" y="-10.0"/>
      <point x="118.32000000000001" y="-10.0" type="curve" smooth="yes"/>
      <point x="312.32" y="-10.0"/>
      <point x="397.88" y="241.44"/>
      <point x="397.88" y="518.52" type="curve" smooth="yes"/>
      <point x="397.88" y="660.84"/>
      <point x="347.08000000000004" y="710.0"/>
    </contour>
  </outline>
</glyph>
<glyph name="less" format="2">
  <advance width="376.26"/>
  <unicode hex="003C"/>
  <outline>
    <contour>
      <point x="326.18" y="105.34" type="line"/>
      <point x="345.52" y="230.54" type="line"/>
      <point x="158.48000000000002" y="308.78" type="line"/>
      <point x="370.7" y="388.02" type="line"/>
      <point x="390.04" y="512.64" type="line"/>
      <point x="39.84" y="378.68" type="line"/>
      <point x="17.78" y="239.44" type="line"/>
    </contour>
  </outline>
</glyph>
<glyph name="equal" format="2">
  <advance width="344.44"/>
  <unicode hex="003D"/>
  <outline>
    <contour>
      <point x="300.18" y="269.24" type="line"/>
      <point x="43.34" y="269.24" type="line"/>
      <point x="23.14" y="128.84" type="line"/>
      <point x="279.98" y="128.84" type="line"/>
    </contour>
    <contour>
      <point x="331.32" y="490.0" type="line"/>
      <point x="75.34" y="490.0" type="line"/>
      <point x="54.28" y="349.6" type="line"/>
      <point x="311.12" y="349.6" type="line"/>
    </contour>
  </outline>
</glyph>
<glyph name="greater" format="2">
  <advance width="376.26"/>
  <unicode hex="003E"/>
  <outline>
    <contour>
      <point x="346.72" y="239.02" type="line"/>
      <point x="368.78" y="378.26" type="line"/>
      <point x="61.1" y="512.36" type="line"/>
      <point x="41.760000000000005" y="388.02" type="line"/>
      <point x="229.8" y="308.92" type="line"/>
      <point x="16.72" y="230.68" type="line"/>
      <point x="-2.76" y="105.06" type="line"/>
    </contour>
  </outline>
</glyph>
<glyph name="question" format="2">
  <advance width="335.68"/>
  <unicode hex="003F"/>
  <outline>
    <contour>
      <point x="81.84" y="259.84" type="line"/>
      <point x="207.2" y="259.84" type="line"/>
      <point x="219.2" y="333.40000000000003" type="line"/>
      <point x="308.84" y="380.92"/>
      <point x="371.4" y="478.12"/>
      <point x="371.4" y="585.5600000000001" type="curve" smooth="yes"/>
      <point x="371.4" y="692.84"/>
      <point x="320.2" y="750.0"/>
      <point x="227.36" y="750.0" type="curve" smooth="yes"/>
      <point x="170.23999999999998" y="750.0"/>
      <point x="113.88000000000001" y="730.72"/>
      <point x="73.56" y="695.28" type="curve"/>
      <point x="104.92" y="552.5600000000001" type="line"/>
      <point x="128.32" y="572.52"/>
      <point x="146.72" y="584.08"/>
      <point x="164.52" y="584.08" type="curve" smooth="yes"/>
      <point x="191.35999999999999" y="584.08"/>
      <point x="205.44" y="567.08"/>
      <point x="205.44" y="538.4000000000001" type="curve" smooth="yes"/>
      <point x="205.44" y="475.72"/>
      <point x="152.08" y="432.64"/>
      <point x="102.44" y="401.88" type="curve"/>
    </contour>
    <contour>
      <point x="38.56" y="57.44" type="curve" smooth="yes"/>
      <point x="38.56" y="13.04"/>
      <point x="57.48" y="-8.6"/>
      <point x="101.16" y="-8.6" type="curve" smooth="yes"/>
      <point x="176.64" y="-8.6"/>
      <point x="198.56" y="69.8"/>
      <point x="198.56" y="129.64" type="curve" smooth="yes"/>
      <point x="198.56" y="175.76"/>
      <point x="180.07999999999998" y="198.11999999999998"/>
      <point x="136.68" y="198.11999999999998" type="curve" smooth="yes"/>
      <point x="60.76" y="198.11999999999998"/>
      <point x="38.56" y="118.28"/>
    </contour>
  </outline>
</glyph>
<glyph name="at" format="2">
  <advance width="710.52"/>
  <unicode hex="0040"/>
  <outline>
    <contour>
      <point x="306.88" y="-124.0" type="curve" smooth="yes"/>
      <point x="349.28" y="-124.0"/>
      <point x="423.4" y="-106.88000000000001"/>
      <point x="462.44000000000005" y="-82.68" type="curve"/>
      <point x="445.71999999999997" y="-24.080000000000002" type="line"/>
      <point x="400.64" y="-43.0"/>
      <point x="352.88" y="-53.959999999999994"/>
      <point x="307.88" y="-53.959999999999994" type="curve" smooth="yes"/>
      <point x="186.0" y="-53.959999999999994"/>
      <point x="90.52" y="10.759999999999998"/>
      <point x="90.52" y="192.95999999999998" type="curve" smooth="yes"/>
      <point x="90.52" y="390.96000000000004"/>
      <point x="204.64" y="641.4"/>
      <point x="415.44000000000005" y="641.4" type="curve" smooth="yes"/>
      <point x="559.44" y="641.4"/>
      <point x="631.12" y="566.24"/>
      <point x="631.12" y="405.52" type="curve" smooth="yes"/>
      <point x="631.12" y="320.36"/>
      <point x="613.32" y="143.04"/>
      <point x="529.64" y="143.04" type="curve" smooth="yes"/>
      <point x="485.15999999999997" y="143.04"/>
      <point x="482.4" y="180.64"/>
      <point x="494.55999999999995" y="228.4" type="curve" smooth="yes"/>
      <point x="569.56" y="521.68" type="line"/>
      <point x="523.9200000000001" y="545.72"/>
      <point x="475.24" y="560.76"/>
      <point x="411.96" y="560.76" type="curve" smooth="yes"/>
      <point x="238.92000000000002" y="560.76"/>
      <point x="163.8" y="313.28"/>
      <point x="163.8" y="164.8" type="curve" smooth="yes"/>
      <point x="163.8" y="83.68"/>
      <point x="199.72" y="43.760000000000005"/>
      <point x="256.68" y="43.760000000000005" type="curve" smooth="yes"/>
      <point x="303.88" y="43.760000000000005"/>
      <point x="340.04" y="78.08"/>
      <point x="373.79999999999995" y="119.16" type="curve"/>
      <point x="393.44" y="72.19999999999999"/>
      <point x="428.32" y="40.32"/>
      <point x="496.24" y="40.32" type="curve" smooth="yes"/>
      <point x="646.8" y="40.32"/>
      <point x="704.88" y="251.96000000000004"/>
      <point x="704.88" y="419.12" type="curve" smooth="yes"/>
      <point x="704.88" y="608.52"/>
      <point x="586.48" y="710.0"/>
      <point x="430.91999999999996" y="710.0" type="curve" smooth="yes"/>
      <point x="157.51999999999998" y="710.0"/>
      <point x="15.04" y="437.92"/>
      <point x="15.04" y="175.64" type="curve" smooth="yes"/>
      <point x="15.04" y="-14.280000000000001"/>
      <point x="121.68" y="-124.0"/>
    </contour>
    <contour>
      <point x="331.20000000000005" y="188.04000000000002" type="curve" smooth="yes"/>
      <point x="320.8" y="188.04000000000002"/>
      <point x="314.24" y="196.72"/>
      <point x="314.24" y="211.36" type="curve" smooth="yes"/>
      <point x="314.24" y="261.68"/>
      <point x="363.84000000000003" y="446.72"/>
      <point x="401.64" y="446.72" type="curve" smooth="yes"/>
      <point x="408.76" y="446.72"/>
      <point x="414.43999999999994" y="444.71999999999997"/>
      <point x="419.84" y="441.16" type="curve"/>
      <point x="362.72" y="216.92" type="line" smooth="yes"/>
      <point x="353.76" y="199.04"/>
      <point x="341.56" y="188.04000000000002"/>
    </contour>
  </outline>
</glyph>
<glyph name="A" format="2">
  <advance width="395.53999999999996"/>
  <unicode hex="0041"/>
  <anchor x="153.78" y="0.0" name="bottom"/>
  <anchor x="347.02" y="0.0" name="ogonek"/>
  <anchor x="257.76" y="700.0" name="top"/>
  <outline>
    <contour>
      <point x="-39.480000000000004" y="0.0" type="line"/>
      <point x="107.66" y="0.0" type="line"/>
      <point x="136.24" y="113.5" type="line"/>
      <point x="205.9" y="113.5" type="line"/>
      <point x="198.16" y="0.0" type="line"/>
      <point x="347.02" y="0.0" type="line"/>
      <point x="371.96000000000004" y="701.4" type="line"/>
      <point x="146.84" y="701.4" type="line"/>
    </contour>
    <contour>
      <point x="168.04" y="253.76" type="line"/>
      <point x="242.88" y="586.52" type="line"/>
      <point x="219.66" y="253.76" type="line"/>
    </contour>
  </outline>
</glyph>
<glyph name="B" format="2">
  <advance width="377.82"/>
  <unicode hex="0042"/>
  <outline>
    <contour>
      <point x="-16.619999999999997" y="3.459999999999999" type="line"/>
      <point x="45.8" y="-6.42"/>
      <point x="76.97999999999999" y="-10.0"/>
      <point x="139.12" y="-10.0" type="curve" smooth="yes"/>
      <point x="303.38" y="-10.0"/>
      <point x="361.3" y="125.54"/>
      <point x="361.3" y="256.64" type="curve" smooth="yes"/>
      <point x="361.3" y="316.32"/>
      <point x="343.76" y="362.78"/>
      <point x="312.36" y="383.52" type="curve"/>
      <point x="370.58" y="423.12"/>
      <point x="396.28" y="494.5"/>
      <point x="396.28" y="562.88" type="curve" smooth="yes"/>
      <point x="396.28" y="650.78"/>
      <point x="349.08" y="710.0"/>
      <point x="244.1" y="710.0" type="curve" smooth="yes"/>
      <point x="217.5" y="710.0"/>
      <point x="163.1" y="707.14"/>
      <point x="91.94" y="696.26" type="curve"/>
    </contour>
    <contour>
      <point x="189.51999999999998" y="415.6" type="line"/>
      <point x="213.86" y="571.9" type="line"/>
      <point x="221.26" y="574.04"/>
      <point x="227.66" y="575.9"/>
      <point x="235.5" y="575.9" type="curve" smooth="yes"/>
      <point x="252.38" y="575.9"/>
      <point x="262.04" y="563.24"/>
      <point x="262.04" y="525.64" type="curve" smooth="yes"/>
      <point x="262.04" y="458.42"/>
      <point x="236.96" y="415.6"/>
      <point x="203.26" y="415.6" type="curve" smooth="yes"/>
    </contour>
    <contour>
      <point x="169.32" y="286.52" type="line"/>
      <point x="189.18" y="286.52" type="line" smooth="yes"/>
      <point x="208.96" y="286.52"/>
      <point x="221.04" y="269.74"/>
      <point x="221.04" y="236.44" type="curve" smooth="yes"/>
      <point x="221.04" y="167.26"/>
      <point x="198.8" y="124.24"/>
      <point x="163.34" y="124.24" type="curve" smooth="yes"/>
      <point x="158.94" y="124.24"/>
      <point x="152.95999999999998" y="124.38"/>
      <point x="143.84" y="127.24" type="curve"/>
    </contour>
  </outline>
</glyph>
<glyph name="C" format="2">
  <advance width="321.56"/>
  <unicode hex="0043"/>
  <anchor x="158.5" y="0.0" name="bottom"/>
  <anchor x="275.58" y="700.0" name="top"/>
  <outline>
    <contour>
      <point x="193.76" y="-10.0" type="curve" smooth="yes"/>
      <point x="226.22" y="-10.0"/>
      <point x="252.82" y="-7.0"/>
      <point x="277.86" y="3.16" type="curve"/>
      <point x="273.72" y="135.39999999999998" type="line"/>
      <point x="259.86" y="131.39999999999998"/>
      <point x="242.14" y="128.54"/>
      <point x="230.01999999999998" y="128.54" type="curve" smooth="yes"/>
      <point x="184.07999999999998" y="128.54"/>
      <point x="159.51999999999998" y="150.6"/>
      <point x="159.51999999999998" y="235.8" type="curve" smooth="yes"/>
      <point x="159.51999999999998" y="411.7"/>
      <point x="206.84" y="571.46"/>
      <point x="291.92" y="571.46" type="curve" smooth="yes"/>
      <point x="308.78" y="571.46"/>
      <point x="319.62" y="568.46"/>
      <point x="337.9" y="560.74" type="curve"/>
      <point x="383.6" y="685.38" type="line"/>
      <point x="358.42" y="701.84"/>
      <point x="320.36" y="710.0"/>
      <point x="282.88" y="710.0" type="curve" smooth="yes"/>
      <point x="118.16" y="710.0"/>
      <point x="14.96" y="507.8"/>
      <point x="14.96" y="208.14" type="curve" smooth="yes"/>
      <point x="14.96" y="60.06"/>
      <point x="80.36" y="-10.0"/>
    </contour>
  </outline>
</glyph>
<glyph name="D" format="2">
  <advance width="393.22"/>
  <unicode hex="0044"/>
  <anchor x="148.5" y="0.0" name="bottom"/>
  <anchor x="208.65594" y="350.0" name="center"/>
  <anchor x="244.78" y="700.0" name="top"/>
  <outline>
    <contour>
      <point x="133.98000000000002" y="-10.0" type="curve" smooth="yes"/>
      <point x="313.56" y="-10.0"/>
      <point x="398.98" y="197.12"/>
      <point x="398.98" y="477.86" type="curve" smooth="yes"/>
      <point x="398.98" y="646.74"/>
      <point x="337.15999999999997" y="710.0"/>
      <point x="217.48" y="710.0" type="curve" smooth="yes"/>
      <point x="175.68" y="710.0"/>
      <point x="139.46" y="707.28"/>
      <point x="91.94" y="699.26" type="curve"/>
      <point x="-18.34" y="3.459999999999999" type="line"/>
      <point x="27.32" y="-5.5600000000000005"/>
      <point x="80.02" y="-10.0"/>
    </contour>
    <contour>
      <point x="156.62" y="120.52" type="curve" smooth="yes"/>
      <point x="150.5" y="120.52"/>
      <point x="145.66" y="121.52"/>
      <point x="141.98000000000002" y="122.66" type="curve"/>
      <point x="213.0" y="568.74" type="line"/>
      <point x="218.26" y="569.74"/>
      <point x="222.1" y="570.6"/>
      <point x="226.94" y="570.6" type="curve" smooth="yes"/>
      <point x="251.22" y="570.6"/>
      <point x="257.0" y="547.72"/>
      <point x="257.0" y="479.3" type="curve" smooth="yes"/>
      <point x="257.0" y="334.53999999999996"/>
      <point x="206.26" y="120.52"/>
    </contour>
  </outline>
</glyph>
<glyph name="E" format="2">
  <advance width="319.3"/>
  <unicode hex="0045"/>
  <anchor x="124.4" y="0.0" name="bottom"/>
  <anchor x="265.15999999999997" y="0.0" name="ogonek"/>
  <anchor x="232.84" y="700.0" name="top"/>
  <anchor x="86.98918" y="700.0" name="topleft"/>
  <outline>
    <contour>
      <point x="-18.2" y="0.0" type="line"/>
      <point x="265.15999999999997" y="0.0" type="line"/>
      <point x="287.08" y="138.54" type="line"/>
      <point x="144.84" y="138.54" type="line"/>
      <point x="167.74" y="285.2" type="line"/>
      <point x="280.1" y="285.2" type="line"/>
      <point x="302.02" y="415.14" type="line"/>
      <point x="188.8" y="415.14" type="line"/>
      <point x="211.0" y="557.16" type="line"/>
      <point x="344.24" y="557.16" type="line"/>
      <point x="368.02" y="700.0" type="line"/>
      <point x="91.8" y="700.0" type="line"/>
    </contour>
  </outline>
</glyph>
<glyph name="F" format="2">
  <advance width="310.18"/>
  <unicode hex="0046"/>
  <outline>
    <contour>
      <point x="-19.06" y="0.0" type="line"/>
      <point x="122.78" y="0.0" type="line"/>
      <point x="160.72" y="236.48000000000002" type="line"/>
      <point x="268.84000000000003" y="236.48000000000002" type="line"/>
      <point x="291.62" y="379.32" type="line"/>
      <point x="182.64" y="379.32" type="line"/>
      <point x="211.0" y="557.16" type="line"/>
      <point x="342.65999999999997" y="557.16" type="line"/>
      <point x="366.3" y="700.0" type="line"/>
      <point x="91.8" y="700.0" type="line"/>
    </contour>
  </outline>
</glyph>
<glyph name="G" format="2">
  <advance width="368.94"/>
  <unicode hex="0047"/>
  <anchor x="188.78" y="0.0" name="bottom"/>
  <anchor x="281.32" y="700.0" name="top"/>
  <outline>
    <contour>
      <point x="191.76" y="-10.0" type="curve" smooth="yes"/>
      <point x="230.12" y="-10.0"/>
      <point x="280.8" y="-0.9800000000000004"/>
      <point x="313.44" y="25.38" type="curve"/>
      <point x="373.46000000000004" y="404.36" type="line"/>
      <point x="209.22" y="404.36" type="line"/>
      <point x="189.88" y="280.44" type="line"/>
      <point x="228.48" y="280.44" type="line"/>
      <point x="203.56" y="124.66" type="line"/>
      <point x="200.86" y="122.66"/>
      <point x="191.72" y="121.66"/>
      <point x="186.16" y="121.66" type="curve" smooth="yes"/>
      <point x="163.44" y="121.66"/>
      <point x="151.78" y="140.28"/>
      <point x="151.78" y="216.88" type="curve" smooth="yes"/>
      <point x="151.78" y="387.62"/>
      <point x="197.38" y="570.6"/>
      <point x="285.9" y="570.6" type="curve" smooth="yes"/>
      <point x="316.52" y="570.6"/>
      <point x="341.12" y="559.86"/>
      <point x="358.53999999999996" y="553.0" type="curve"/>
      <point x="402.52" y="683.66" type="line"/>
      <point x="367.15999999999997" y="702.42"/>
      <point x="323.8" y="710.0"/>
      <point x="282.02" y="710.0" type="curve" smooth="yes"/>
      <point x="80.18" y="710.0"/>
      <point x="14.1" y="420.94"/>
      <point x="14.1" y="209.0" type="curve" smooth="yes"/>
      <point x="14.1" y="63.5"/>
      <point x="81.22" y="-10.0"/>
    </contour>
  </outline>
</glyph>
<glyph name="H" format="2">
  <advance width="390.46"/>
  <unicode hex="0048"/>
  <anchor x="151.68184" y="0.0" name="bottom"/>
  <anchor x="207.19594" y="350.0" name="center"/>
  <anchor x="262.56917999999996" y="700.0" name="top"/>
  <anchor x="86.98918" y="700.0" name="topleft"/>
  <outline>
    <contour>
      <point x="-19.06" y="0.0" type="line"/>
      <point x="123.06" y="0.0" type="line"/>
      <point x="162.18" y="249.72" type="line"/>
      <point x="218.8" y="249.72" type="line"/>
      <point x="180.54" y="0.0" type="line"/>
      <point x="321.65999999999997" y="0.0" type="line"/>
      <point x="432.65999999999997" y="700.0" type="line"/>
      <point x="290.68" y="700.0" type="line"/>
      <point x="240.72" y="385.68" type="line"/>
      <point x="183.95999999999998" y="385.68" type="line"/>
      <point x="233.92000000000002" y="700.0" type="line"/>
      <point x="91.8" y="700.0" type="line"/>
    </contour>
  </outline>
</glyph>
<glyph name="I" format="2">
  <advance width="191.72"/>
  <unicode hex="0049"/>
  <anchor x="52.24184" y="0.0" name="bottom"/>
  <anchor x="125.52408" y="8.6" name="ogonek"/>
  <anchor x="163.12918" y="700.0" name="top"/>
  <anchor x="86.98918" y="700.0" name="topleft"/>
  <outline>
    <contour>
      <point x="-19.06" y="0.0" type="line"/>
      <point x="122.92" y="0.0" type="line"/>
      <point x="233.92000000000002" y="700.0" type="line"/>
      <point x="91.8" y="700.0" type="line"/>
    </contour>
  </outline>
</glyph>
<glyph name="J" format="2">
  <advance width="274.12"/>
  <unicode hex="004A"/>
  <anchor x="87.08184" y="0.0" name="bottom"/>
  <anchor x="210.32" y="700.0" name="top"/>
  <outline>
    <contour>
      <point x="-39.0" y="20.22" type="line"/>
      <point x="-14.120000000000001" y="4.039999999999999"/>
      <point x="19.8" y="-10.0"/>
      <point x="70.78" y="-10.0" type="curve" smooth="yes"/>
      <point x="156.92000000000002" y="-10.0"/>
      <point x="216.18" y="57.62"/>
      <point x="236.5" y="182.82" type="curve" smooth="yes"/>
      <point x="318.46" y="700.0" type="line"/>
      <point x="100.78" y="700.0" type="line"/>
      <point x="79.72" y="568.34" type="line"/>
      <point x="155.42000000000002" y="568.34" type="line"/>
      <point x="103.84" y="245.18" type="line" smooth="yes"/>
      <point x="90.26" y="160.84"/>
      <point x="73.6" y="144.02"/>
      <point x="40.099999999999994" y="144.02" type="curve" smooth="yes"/>
      <point x="30.4" y="144.02"/>
      <point x="12.82" y="148.74"/>
      <point x="1.259999999999998" y="153.74" type="curve"/>
    </contour>
  </outline>
</glyph>
<glyph name="K" format="2">
  <advance width="404.24"/>
  <unicode hex="004B"/>
  <anchor x="177.56" y="0.0" name="bottom"/>
  <anchor x="268.56" y="700.0" name="top"/>
  <outline>
    <contour>
      <point x="-19.2" y="0.0" type="line"/>
      <point x="122.92" y="0.0" type="line"/>
      <point x="233.92000000000002" y="700.0" type="line"/>
      <point x="91.80000000000001" y="700.0" type="line"/>
    </contour>
    <contour>
      <point x="300.92" y="-10.0" type="curve" smooth="yes"/>
      <point x="319.68" y="-10.0"/>
      <point x="347.04" y="-2.12"/>
      <point x="355.48" y="1.88" type="curve"/>
      <point x="371.67999999999995" y="185.32" type="line"/>
      <point x="367.96" y="185.32"/>
      <point x="363.96" y="185.04"/>
      <point x="359.96" y="185.04" type="curve" smooth="yes"/>
      <point x="339.64" y="185.04"/>
      <point x="313.88" y="197.92"/>
      <point x="289.56" y="248.27999999999997" type="curve" smooth="yes"/>
      <point x="173.4" y="487.92" type="line"/>
      <point x="141.24" y="258.92" type="line"/>
      <point x="214.79999999999998" y="71.96000000000001" type="line" smooth="yes"/>
      <point x="236.79999999999998" y="16.2"/>
      <point x="257.84" y="-10.0"/>
    </contour>
    <contour>
      <point x="248.07999999999998" y="270.2" type="line"/>
      <point x="350.12" y="383.64"/>
      <point x="426.64" y="513.5600000000001"/>
      <point x="457.4" y="663.56" type="curve"/>
      <point x="328.84" y="701.4" type="line"/>
      <point x="297.36" y="578.1999999999999"/>
      <point x="248.64" y="466.44"/>
      <point x="192.6" y="402.16" type="curve"/>
    </contour>
  </outline>
</glyph>
<glyph name="L" format="2">
  <advance width="301.62"/>
  <unicode hex="004C"/>
  <anchor x="125.74000000000001" y="0.0" name="bottom"/>
  <anchor x="161.09593999999998" y="350.0" name="center"/>
  <anchor x="162.72" y="700.0" name="top"/>
  <anchor x="266.64" y="700.0" name="topright"/>
  <outline>
    <contour>
      <point x="-19.2" y="0.0" type="line"/>
      <point x="248.18" y="0.0" type="line"/>
      <point x="270.1" y="138.54" type="line"/>
      <point x="144.7" y="138.54" type="line"/>
      <point x="233.78" y="700.0" type="line"/>
      <point x="91.8" y="700.0" type="line"/>
    </contour>
  </outline>
</glyph>
<glyph name="M" format="2">
  <advance width="475.98"/>
  <unicode hex="004D"/>
  <outline>
    <contour>
      <point x="-19.06" y="0.0" type="line"/>
      <point x="109.16" y="0.0" type="line"/>
      <point x="174.18" y="417.08000000000004" type="line"/>
      <point x="182.7" y="150.57999999999998" type="line"/>
      <point x="248.56" y="150.57999999999998" type="line"/>
      <point x="343.4" y="412.20000000000005" type="line"/>
      <point x="278.1" y="0.0" type="line"/>
      <point x="407.18" y="0.0" type="line"/>
      <point x="518.1800000000001" y="700.0" type="line"/>
      <point x="359.74" y="700.0" type="line"/>
      <point x="252.74" y="404.34000000000003" type="line"/>
      <point x="239.06" y="700.0" type="line"/>
      <point x="91.8" y="700.0" type="line"/>
    </contour>
  </outline>
</glyph>
<glyph name="N" format="2">
  <advance width="404.65999999999997"/>
  <unicode hex="004E"/>
  <anchor x="165.18" y="0.0" name="bottom"/>
  <anchor x="269.76" y="700.0" name="top"/>
  <outline>
    <contour>
      <point x="-19.06" y="0.0" type="line"/>
      <point x="108.3" y="0.0" type="line"/>
      <point x="163.0" y="339.24" type="line"/>
      <point x="192.6" y="0.0" type="line"/>
      <point x="335.86" y="0.0" type="line"/>
      <point x="446.86" y="700.0" type="line"/>
      <point x="319.5" y="700.0" type="line"/>
      <point x="258.92" y="331.08" type="line"/>
      <point x="235.34" y="700.0" type="line"/>
      <point x="91.8" y="700.0" type="line"/>
    </contour>
  </outline>
</glyph>
<glyph name="O" format="2">
  <advance width="400.48"/>
  <unicode hex="004F"/>
  <note>
8
</note>
  <anchor x="156.88" y="0.0" name="bottom"/>
  <anchor x="211.88" y="350.0" name="center"/>
  <anchor x="225.0" y="2.72" name="ogonek"/>
  <anchor x="267.0" y="700.0" name="top"/>
  <anchor x="88.28" y="700.0" name="topleft"/>
  <anchor x="359.59999999999997" y="700.0" name="topright"/>
  <outline>
    <contour>
      <point x="171.39999999999998" y="-10.0" type="curve" smooth="yes"/>
      <point x="358.36" y="-10.0"/>
      <point x="410.64" y="305.64"/>
      <point x="410.64" y="515.6800000000001" type="curve" smooth="yes"/>
      <point x="410.64" y="649.88"/>
      <point x="368.64000000000004" y="710.0"/>
      <point x="253.08" y="710.0" type="curve" smooth="yes"/>
      <point x="66.11999999999999" y="710.0"/>
      <point x="13.84" y="394.36"/>
      <point x="13.84" y="184.32" type="curve" smooth="yes"/>
      <point x="13.84" y="50.12"/>
      <point x="55.84" y="-10.0"/>
    </contour>
    <contour>
      <point x="178.24" y="139.44" type="curve" smooth="yes"/>
      <point x="163.48000000000002" y="139.44"/>
      <point x="156.24" y="147.24"/>
      <point x="156.24" y="178.0" type="curve" smooth="yes"/>
      <point x="156.24" y="264.48"/>
      <point x="200.64000000000001" y="560.5600000000001"/>
      <point x="246.23999999999998" y="560.5600000000001" type="curve" smooth="yes"/>
      <point x="261.0" y="560.5600000000001"/>
      <point x="268.24" y="552.76"/>
      <point x="268.24" y="522.0" type="curve" smooth="yes"/>
      <point x="268.24" y="435.52"/>
      <point x="223.84" y="139.44"/>
    </contour>
  </outline>
</glyph>
<glyph name="P" format="2">
  <advance width="383.32"/>
  <unicode hex="0050"/>
  <outline>
    <contour>
      <point x="-18.2" y="0.0" type="line"/>
      <point x="123.78" y="0.0" type="line"/>
      <point x="151.86" y="176.32" type="line"/>
      <point x="173.2" y="172.74"/>
      <point x="177.76" y="172.74"/>
      <point x="200.57999999999998" y="172.74" type="curve" smooth="yes"/>
      <point x="317.94" y="172.74"/>
      <point x="406.46000000000004" y="326.7"/>
      <point x="406.46000000000004" y="529.52" type="curve" smooth="yes"/>
      <point x="406.46000000000004" y="652.06"/>
      <point x="360.12" y="710.0"/>
      <point x="254.7" y="710.0" type="curve" smooth="yes"/>
      <point x="213.34" y="710.0"/>
      <point x="146.76" y="707.14"/>
      <point x="92.8" y="702.28" type="curve"/>
    </contour>
    <contour>
      <point x="214.72" y="570.9" type="line"/>
      <point x="221.7" y="573.04"/>
      <point x="228.68" y="574.04"/>
      <point x="235.36" y="574.04" type="curve" smooth="yes"/>
      <point x="258.54" y="574.04"/>
      <point x="267.92" y="554.92"/>
      <point x="267.92" y="506.46000000000004" type="curve" smooth="yes"/>
      <point x="267.92" y="415.66"/>
      <point x="229.26" y="308.7"/>
      <point x="191.98000000000002" y="308.7" type="curve" smooth="yes"/>
      <point x="185.72" y="308.7"/>
      <point x="180.18" y="308.84"/>
      <point x="172.92000000000002" y="310.7" type="curve"/>
    </contour>
  </outline>
</glyph>
<glyph name="Q" format="2">
  <advance width="400.06"/>
  <unicode hex="0051"/>
  <note>
14
</note>
  <outline>
    <contour>
      <point x="276.53999999999996" y="-163.66" type="curve" smooth="yes"/>
      <point x="292.98" y="-163.66"/>
      <point x="309.98" y="-161.8"/>
      <point x="324.26" y="-157.52" type="curve"/>
      <point x="340.9" y="-27.860000000000014" type="line"/>
      <point x="331.48" y="-31.0"/>
      <point x="319.06" y="-33.0"/>
      <point x="306.06" y="-33.0" type="curve" smooth="yes"/>
      <point x="264.92" y="-33.0"/>
      <point x="238.68" y="-15.019999999999996"/>
      <point x="237.95999999999998" y="16.34" type="curve"/>
      <point x="125.36" y="16.06" type="line"/>
      <point x="120.92" y="-125.24"/>
      <point x="205.92000000000002" y="-163.66"/>
    </contour>
    <component base="O"/>
  </outline>
</glyph>
<glyph name="R" format="2">
  <advance width="393.48"/>
  <unicode hex="0052"/>
  <anchor x="168.52" y="0.0" name="bottom"/>
  <anchor x="234.60000000000002" y="700.0" name="top"/>
  <outline>
    <contour>
      <point x="-19.2" y="0.0" type="line"/>
      <point x="122.92" y="0.0" type="line"/>
      <point x="157.16" y="218.28" type="line"/>
      <point x="161.72" y="218.28"/>
      <point x="165.83999999999997" y="218.0"/>
      <point x="177.12" y="218.0" type="curve"/>
      <point x="174.95999999999998" y="228.08" type="line"/>
      <point x="311.36" y="228.08"/>
      <point x="409.32" y="343.04"/>
      <point x="409.32" y="517.64" type="curve" smooth="yes"/>
      <point x="409.32" y="641.32"/>
      <point x="346.36" y="710.0"/>
      <point x="239.36" y="710.0" type="curve" smooth="yes"/>
      <point x="180.79999999999998" y="710.0"/>
      <point x="138.16" y="705.5600000000001"/>
      <point x="92.08" y="699.84" type="curve"/>
    </contour>
    <contour>
      <point x="290.76" y="-10.0" type="curve" smooth="yes"/>
      <point x="302.92" y="-10.0"/>
      <point x="331.56" y="-5.279999999999999"/>
      <point x="342.15999999999997" y="0.8799999999999999" type="curve"/>
      <point x="358.08" y="158.2" type="line"/>
      <point x="354.8" y="157.92000000000002"/>
      <point x="351.79999999999995" y="157.92000000000002"/>
      <point x="349.08" y="157.92000000000002" type="curve" smooth="yes"/>
      <point x="315.15999999999997" y="157.92"/>
      <point x="293.08" y="185.95999999999998"/>
      <point x="279.32" y="286.16" type="curve"/>
      <point x="163.28" y="251.92000000000002" type="line"/>
      <point x="201.68" y="2.5599999999999996"/>
      <point x="236.39999999999998" y="-10.0"/>
    </contour>
    <contour>
      <point x="193.28" y="341.15999999999997" type="curve" smooth="yes"/>
      <point x="187.88" y="341.15999999999997"/>
      <point x="181.76" y="342.16"/>
      <point x="176.64" y="343.16" type="curve"/>
      <point x="214.0" y="572.76" type="line"/>
      <point x="222.39999999999998" y="575.04"/>
      <point x="230.23999999999998" y="576.04"/>
      <point x="236.35999999999999" y="576.04" type="curve" smooth="yes"/>
      <point x="257.52" y="576.04"/>
      <point x="267.48" y="553.8000000000001"/>
      <point x="267.48" y="517.9200000000001" type="curve" smooth="yes"/>
      <point x="267.48" y="425.59999999999997"/>
      <point x="230.28" y="341.15999999999997"/>
    </contour>
  </outline>
</glyph>
<glyph name="S" format="2">
  <advance width="354.42"/>
  <unicode hex="0053"/>
  <anchor x="140.14" y="0.0" name="bottom"/>
  <anchor x="253.78" y="700.0" name="top"/>
  <outline>
    <contour>
      <point x="385.44" y="677.08" type="line"/>
      <point x="357.53999999999996" y="696.4"/>
      <point x="310.74" y="710.0"/>
      <point x="254.2" y="710.0" type="curve" smooth="yes"/>
      <point x="131.18" y="710.0"/>
      <point x="45.06" y="625.08"/>
      <point x="45.06" y="490.44" type="curve" smooth="yes"/>
      <point x="45.06" y="333.18"/>
      <point x="189.94" y="276.8"/>
      <point x="189.94" y="197.1" type="curve" smooth="yes"/>
      <point x="189.94" y="158.56"/>
      <point x="164.44" y="128.68"/>
      <point x="116.5" y="128.68" type="curve" smooth="yes"/>
      <point x="85.78" y="128.68"/>
      <point x="60.76" y="136.98000000000002"/>
      <point x="17.099999999999998" y="155.57999999999998" type="curve"/>
      <point x="-28.3" y="28.36" type="line"/>
      <point x="9.059999999999999" y="2.88"/>
      <point x="62.0" y="-10.0"/>
      <point x="124.53999999999999" y="-10.0" type="curve" smooth="yes"/>
      <point x="245.1" y="-10.0"/>
      <point x="332.06" y="78.62"/>
      <point x="332.06" y="201.24" type="curve" smooth="yes"/>
      <point x="332.06" y="361.8"/>
      <point x="192.34" y="420.48"/>
      <point x="192.34" y="499.32" type="curve" smooth="yes"/>
      <point x="192.34" y="549.3"/>
      <point x="222.44" y="571.6"/>
      <point x="267.53999999999996" y="571.6" type="curve" smooth="yes"/>
      <point x="290.53999999999996" y="571.6"/>
      <point x="318.02" y="566.88"/>
      <point x="342.76" y="554.44" type="curve"/>
    </contour>
  </outline>
</glyph>
<glyph name="T" format="2">
  <advance width="340.68"/>
  <unicode hex="0054"/>
  <anchor x="126.72183999999999" y="0.0" name="bottom"/>
  <anchor x="182.23594" y="350.0" name="center"/>
  <anchor x="237.60917999999998" y="700.0" name="top"/>
  <outline>
    <contour>
      <point x="379.03999999999996" y="566.62" type="line"/>
      <point x="400.96" y="700.0" type="line"/>
      <point x="74.58" y="700.0" type="line"/>
      <point x="52.66" y="566.62" type="line"/>
      <point x="145.22" y="566.62" type="line"/>
      <point x="55.28" y="0.0" type="line"/>
      <point x="197.26" y="0.0" type="line"/>
      <point x="287.2" y="566.62" type="line"/>
    </contour>
  </outline>
</glyph>
<glyph name="U" format="2">
  <advance width="382.6"/>
  <unicode hex="0055"/>
  <anchor x="147.68184" y="0.0" name="bottom"/>
  <anchor x="209.84" y="0.0" name="ogonek"/>
  <anchor x="258.28918" y="700.0" name="top"/>
  <anchor x="401.14" y="700.0" name="topright"/>
  <outline>
    <contour>
      <point x="143.57999999999998" y="-10.0" type="curve" smooth="yes"/>
      <point x="261.88" y="-10.0"/>
      <point x="323.52" y="52.34"/>
      <point x="346.4" y="194.48" type="curve" smooth="yes"/>
      <point x="426.94" y="700.0" type="line"/>
      <point x="284.82" y="700.0" type="line"/>
      <point x="199.98" y="161.8" type="line" smooth="yes"/>
      <point x="196.44" y="135.42000000000002"/>
      <point x="186.66" y="124.24"/>
      <point x="167.5" y="124.24" type="curve" smooth="yes"/>
      <point x="149.62" y="124.24"/>
      <point x="142.54" y="136.72"/>
      <point x="146.66" y="159.0" type="curve" smooth="yes"/>
      <point x="232.5" y="700.0" type="line"/>
      <point x="90.52" y="700.0" type="line"/>
      <point x="9.7" y="190.98000000000002" type="line" smooth="yes"/>
      <point x="5.12" y="162.78"/>
      <point x="3.4000000000000004" y="146.16"/>
      <point x="3.4000000000000004" y="129.44" type="curve" smooth="yes"/>
      <point x="3.4000000000000004" y="35.18"/>
      <point x="49.16" y="-10.0"/>
    </contour>
  </outline>
</glyph>
<glyph name="V" format="2">
  <advance width="405.8"/>
  <unicode hex="0056"/>
  <outline>
    <contour>
      <point x="249.52" y="0.0" type="line"/>
      <point x="386.74" y="324.64"/>
      <point x="437.06" y="470.76"/>
      <point x="461.14" y="674.62" type="curve" smooth="yes"/>
      <point x="462.0" y="683.46"/>
      <point x="462.72" y="691.02"/>
      <point x="462.3" y="700.0" type="curve"/>
      <point x="303.26" y="700.0" type="line"/>
      <point x="303.54" y="693.74"/>
      <point x="303.68" y="688.04"/>
      <point x="303.68" y="682.2" type="curve" smooth="yes"/>
      <point x="292.5" y="512.46"/>
      <point x="260.38" y="397.58"/>
      <point x="184.45999999999998" y="148.76" type="curve"/>
      <point x="234.32" y="700.0" type="line"/>
      <point x="67.26" y="700.0" type="line"/>
      <point x="53.8" y="0.0" type="line"/>
    </contour>
  </outline>
</glyph>
<glyph name="W" format="2">
  <advance width="596.84"/>
  <unicode hex="0057"/>
  <anchor x="251.56" y="0.0" name="bottom"/>
  <anchor x="365.68" y="700.0" name="top"/>
  <outline>
    <contour>
      <point x="464.52" y="-0.28" type="line"/>
      <point x="609.28" y="449.88"/>
      <point x="644.44" y="568.32"/>
      <point x="651.3199999999999" y="679.1999999999999" type="curve" smooth="yes"/>
      <point x="651.3199999999999" y="686.3199999999999"/>
      <point x="651.3199999999999" y="692.88"/>
      <point x="650.76" y="700.0" type="curve"/>
      <point x="497.6" y="700.0" type="line"/>
      <point x="497.88" y="693.16"/>
      <point x="498.16" y="687.3199999999999"/>
      <point x="498.16" y="681.4799999999999" type="curve" smooth="yes"/>
      <point x="492.28" y="532.1999999999999"/>
      <point x="466.84000000000003" y="465.28000000000003"/>
      <point x="394.28" y="180.0" type="curve"/>
      <point x="435.48" y="649.64" type="line"/>
      <point x="286.64" y="649.64" type="line"/>
      <point x="259.32" y="498.48"/>
      <point x="213.24" y="301.32"/>
      <point x="174.44" y="180.12" type="curve"/>
      <point x="224.28" y="700.0" type="line"/>
      <point x="67.67999999999999" y="700.0" type="line"/>
      <point x="39.480000000000004" y="-0.28" type="line"/>
      <point x="203.95999999999998" y="-0.28" type="line"/>
      <point x="258.36" y="153.56"/>
      <point x="298.15999999999997" y="289.0"/>
      <point x="322.47999999999996" y="388.52" type="curve"/>
      <point x="290.15999999999997" y="-0.28" type="line"/>
    </contour>
  </outline>
</glyph>
<glyph name="X" format="2">
  <advance width="415.36"/>
  <unicode hex="0058"/>
  <outline>
    <contour>
      <point x="216.56" y="-0.8399999999999999" type="line"/>
      <point x="377.08" y="-0.28" type="line"/>
      <point x="335.12" y="340.0" type="line"/>
      <point x="425.44000000000005" y="576.44"/>
      <point x="461.84000000000003" y="630.7600000000001"/>
      <point x="461.84000000000003" y="700.0" type="curve"/>
      <point x="307.79999999999995" y="700.0" type="line"/>
      <point x="307.8" y="626.12"/>
      <point x="274.03999999999996" y="560.5999999999999"/>
      <point x="232.2" y="447.64000000000004" type="curve"/>
      <point x="223.24" y="701.12" type="line"/>
      <point x="68.44" y="700.56" type="line"/>
      <point x="96.16" y="356.71999999999997" type="line"/>
      <point x="25.2" y="183.92000000000002"/>
      <point x="-25.04" y="93.88"/>
      <point x="-25.040000000000003" y="0.0" type="curve"/>
      <point x="133.88" y="0.0" type="line"/>
      <point x="133.88" y="83.24000000000001"/>
      <point x="156.48" y="134.16000000000003"/>
      <point x="202.28" y="250.2" type="curve"/>
    </contour>
  </outline>
</glyph>
<glyph name="Y" format="2">
  <advance width="390.91999999999996"/>
  <unicode hex="0059"/>
  <anchor x="153.4" y="0.0" name="bottom"/>
  <anchor x="264.26" y="700.0" name="top"/>
  <anchor x="92.14" y="700.0" name="topleft"/>
  <outline>
    <contour>
      <point x="76.32" y="0.0" type="line"/>
      <point x="215.72" y="0.0" type="line"/>
      <point x="252.1" y="222.98000000000002" type="line"/>
      <point x="334.74" y="369.16"/>
      <point x="394.3" y="502.22"/>
      <point x="451.26" y="667.18" type="curve" smooth="yes"/>
      <point x="454.26" y="677.88"/>
      <point x="457.98" y="689.44"/>
      <point x="460.84000000000003" y="700.14" type="curve"/>
      <point x="296.64" y="700.7" type="line"/>
      <point x="295.5" y="691.0"/>
      <point x="293.5" y="680.44"/>
      <point x="291.36" y="670.74" type="curve" smooth="yes"/>
      <point x="268.08" y="565.24"/>
      <point x="245.46" y="463.96"/>
      <point x="208.4" y="366.36" type="curve"/>
      <point x="233.18" y="700.56" type="line"/>
      <point x="66.4" y="700.14" type="line"/>
      <point x="112.42" y="222.98000000000002" type="line"/>
    </contour>
  </outline>
</glyph>
<glyph name="Z" format="2">
  <advance width="349.96"/>
  <unicode hex="005A"/>
  <anchor x="132.04" y="0.0" name="bottom"/>
  <anchor x="186.92000000000002" y="350.0" name="center"/>
  <anchor x="242.76" y="700.0" name="top"/>
  <outline>
    <contour>
      <point x="-32.72" y="0.0" type="line"/>
      <point x="293.08000000000004" y="0.0" type="line"/>
      <point x="316.0" y="135.96" type="line"/>
      <point x="134.2" y="135.96" type="line"/>
      <point x="381.48" y="557.0" type="line"/>
      <point x="404.12" y="700.0" type="line"/>
      <point x="89.39999999999999" y="700.0" type="line"/>
      <point x="66.75999999999999" y="564.0400000000001" type="line"/>
      <point x="237.48" y="564.0400000000001" type="line"/>
      <point x="-10.8" y="138.84" type="line"/>
    </contour>
  </outline>
</glyph>
<glyph name="bracketleft" format="2">
  <advance width="228.22"/>
  <unicode hex="005B"/>
  <outline>
    <contour>
      <point x="80.28" y="-80.2" type="line"/>
      <point x="192.6" y="610.2" type="line"/>
      <point x="272.44" y="610.2" type="line"/>
      <point x="294.36" y="740.0" type="line"/>
      <point x="97.34" y="740.0" type="line"/>
      <point x="-58.68" y="-210.0" type="line"/>
      <point x="137.34" y="-210.0" type="line"/>
      <point x="160.12" y="-80.2" type="line"/>
    </contour>
  </outline>
</glyph>
<glyph name="backslash" format="2">
  <advance width="318.28"/>
  <unicode hex="005C"/>
  <outline>
    <contour>
      <point x="190.89999999999998" y="740.0" type="line"/>
      <point x="71.42" y="740.0" type="line"/>
      <point x="166.1" y="-210.0" type="line"/>
      <point x="284.72" y="-210.0" type="line"/>
    </contour>
  </outline>
</glyph>
<glyph name="bracketright" format="2">
  <advance width="228.22"/>
  <unicode hex="005D"/>
  <outline>
    <contour>
      <point x="-47.08" y="-80.2" type="line"/>
      <point x="-69.0" y="-210.0" type="line"/>
      <point x="126.88" y="-210.0" type="line"/>
      <point x="283.9" y="740.0" type="line"/>
      <point x="87.02" y="740.0" type="line"/>
      <point x="64.24" y="610.2" type="line"/>
      <point x="144.08" y="610.2" type="line"/>
      <point x="30.9" y="-80.2" type="line"/>
    </contour>
  </outline>
</glyph>
<glyph name="asciicircum" format="2">
  <advance width="381.14"/>
  <unicode hex="005E"/>
  <outline>
    <contour>
      <point x="44.32" y="247.18" type="line"/>
      <point x="143.3" y="247.18" type="line"/>
      <point x="232.28" y="540.08" type="line"/>
      <point x="230.38" y="247.18" type="line"/>
      <point x="328.5" y="247.18" type="line"/>
      <point x="320.1" y="701.4" type="line"/>
      <point x="187.44" y="701.4" type="line"/>
    </contour>
  </outline>
</glyph>
<glyph name="underscore" format="2">
  <advance width="551.44"/>
  <unicode hex="005F"/>
  <outline>
    <contour>
      <point x="-75.32" y="-198.78" type="line"/>
      <point x="474.4" y="-198.78" type="line"/>
      <point x="499.76" y="-51.5" type="line"/>
      <point x="-49.96" y="-51.5" type="line"/>
    </contour>
  </outline>
</glyph>
<glyph name="a" format="2">
  <advance width="381.0"/>
  <unicode hex="0061"/>
  <note>
15
</note>
  <anchor x="155.22" y="0.0" name="bottom"/>
  <anchor x="340.24" y="12.04" name="ogonek"/>
  <anchor x="233.32" y="547.2" name="top"/>
  <outline>
    <contour>
      <point x="265.84000000000003" y="-10.0" type="curve" smooth="yes"/>
      <point x="293.6" y="-10.0"/>
      <point x="323.94" y="-0.8399999999999999"/>
      <point x="340.24" y="12.04" type="curve"/>
      <point x="358.46000000000004" y="137.84" type="line"/>
      <point x="354.2" y="136.28"/>
      <point x="349.5" y="135.85999999999999"/>
      <point x="346.38" y="135.85999999999999" type="curve" smooth="yes"/>
      <point x="336.53999999999996" y="135.85999999999999"/>
      <point x="333.98" y="140.42000000000002"/>
      <point x="333.98" y="151.26" type="curve" smooth="yes"/>
      <point x="333.98" y="156.68"/>
      <point x="337.12" y="174.5"/>
      <point x="392.91999999999996" y="524.0" type="curve"/>
      <point x="349.53999999999996" y="541.74"/>
      <point x="297.86" y="557.2"/>
      <point x="240.16" y="557.2" type="curve" smooth="yes"/>
      <point x="99.62" y="557.2"/>
      <point x="6.68" y="416.3"/>
      <point x="6.68" y="149.62" type="curve" smooth="yes"/>
      <point x="6.68" y="50.04"/>
      <point x="44.58" y="-10.0"/>
      <point x="106.76" y="-10.0" type="curve" smooth="yes"/>
      <point x="141.22" y="-10.0"/>
      <point x="166.96" y="3.44"/>
      <point x="190.56" y="31.78" type="curve"/>
      <point x="207.46" y="1.72"/>
      <point x="228.2" y="-10.0"/>
    </contour>
    <contour>
      <point x="190.14" y="140.66" type="line"/>
      <point x="185.46" y="137.26"/>
      <point x="179.94" y="135.28"/>
      <point x="174.56" y="135.28" type="curve" smooth="yes"/>
      <point x="164.36" y="135.28"/>
      <point x="157.26" y="146.6"/>
      <point x="157.26" y="170.54" type="curve" smooth="yes"/>
      <point x="157.26" y="306.92"/>
      <point x="189.28" y="421.52"/>
      <point x="222.82" y="421.52" type="curve" smooth="yes"/>
      <point x="226.5" y="421.52"/>
      <point x="230.48" y="421.1"/>
      <point x="234.32" y="419.4" type="curve"/>
    </contour>
  </outline>
</glyph>
<glyph name="b" format="2">
  <advance width="372.38"/>
  <unicode hex="0062"/>
  <note>
12
</note>
  <outline>
    <contour>
      <point x="238.89999999999998" y="740.0" type="line"/>
      <point x="96.92" y="740.0" type="line"/>
      <point x="-17.36" y="16.9" type="line"/>
      <point x="8.940000000000001" y="4.32"/>
      <point x="52.6" y="-10.0"/>
      <point x="118.18" y="-10.0" type="curve" smooth="yes"/>
      <point x="301.12" y="-10.0"/>
      <point x="368.14" y="184.34"/>
      <point x="366.42" y="382.96" type="curve" smooth="yes"/>
      <point x="365.56" y="503.88"/>
      <point x="331.24" y="557.2"/>
      <point x="269.78" y="557.2" type="curve" smooth="yes"/>
      <point x="248.78" y="557.2"/>
      <point x="227.34" y="550.2"/>
      <point x="206.48000000000002" y="533.32" type="curve"/>
    </contour>
    <contour>
      <point x="202.42000000000002" y="411.06" type="curve" smooth="yes"/>
      <point x="215.74" y="411.06"/>
      <point x="221.0" y="393.9"/>
      <point x="221.0" y="374.8" type="curve" smooth="yes"/>
      <point x="221.0" y="239.8"/>
      <point x="188.8" y="123.24"/>
      <point x="154.01999999999998" y="123.24" type="curve" smooth="yes"/>
      <point x="150.48000000000002" y="123.24"/>
      <point x="146.07999999999998" y="123.66"/>
      <point x="142.1" y="125.36" type="curve"/>
      <point x="186.28" y="405.68" type="line"/>
      <point x="190.95999999999998" y="408.94"/>
      <point x="198.32" y="411.06"/>
    </contour>
  </outline>
</glyph>
<glyph name="c" format="2">
  <advance width="305.36"/>
  <unicode hex="0063"/>
  <note>
10
</note>
  <anchor x="136.28" y="0.0" name="bottom"/>
  <anchor x="230.04000000000002" y="547.1999999999999" name="top"/>
  <outline>
    <contour>
      <point x="162.52" y="-10.0" type="curve" smooth="yes"/>
      <point x="195.12" y="-10.0"/>
      <point x="237.48" y="-1.12"/>
      <point x="263.08" y="9.32" type="curve"/>
      <point x="247.04" y="148.64" type="line"/>
      <point x="233.32" y="146.36"/>
      <point x="219.64" y="145.08"/>
      <point x="203.64" y="145.08" type="curve" smooth="yes"/>
      <point x="169.96" y="145.08"/>
      <point x="158.72" y="175.16"/>
      <point x="158.72" y="218.76" type="curve" smooth="yes"/>
      <point x="158.72" y="311.96"/>
      <point x="190.16" y="402.12"/>
      <point x="245.79999999999998" y="402.12" type="curve" smooth="yes"/>
      <point x="262.08" y="402.12"/>
      <point x="274.8" y="400.12"/>
      <point x="291.8" y="393.4" type="curve"/>
      <point x="341.8" y="541.6" type="line"/>
      <point x="317.64" y="551.76"/>
      <point x="284.72" y="557.1999999999999"/>
      <point x="247.08" y="557.1999999999999" type="curve" smooth="yes"/>
      <point x="81.83999999999999" y="557.1999999999999"/>
      <point x="8.12" y="398.04"/>
      <point x="8.12" y="176.2" type="curve" smooth="yes"/>
      <point x="8.12" y="59.800000000000004"/>
      <point x="64.36" y="-10.0"/>
    </contour>
  </outline>
</glyph>
<glyph name="d" format="2">
  <advance width="378.28"/>
  <unicode hex="0064"/>
  <note>
17
</note>
  <anchor x="170.3" y="0.0" name="bottom"/>
  <anchor x="189.9" y="288.3" name="center"/>
  <anchor x="247.48" y="740.0" name="top"/>
  <anchor x="448.78" y="740.0" name="topright"/>
  <outline>
    <contour>
      <point x="262.98" y="-10.0" type="curve" smooth="yes"/>
      <point x="288.74" y="-10.0"/>
      <point x="319.94" y="-1.8399999999999999"/>
      <point x="337.38" y="12.04" type="curve"/>
      <point x="355.6" y="137.84" type="line"/>
      <point x="350.76" y="136.42000000000002"/>
      <point x="346.64" y="135.85999999999999"/>
      <point x="343.38" y="135.85999999999999" type="curve" smooth="yes"/>
      <point x="333.82" y="135.85999999999999"/>
      <point x="331.98" y="140.28"/>
      <point x="331.98" y="147.82" type="curve" smooth="yes"/>
      <point x="331.98" y="164.42000000000002"/>
      <point x="409.78" y="648.86"/>
      <point x="424.2" y="740.0" type="curve"/>
      <point x="283.08" y="740.0" type="line"/>
      <point x="250.94" y="542.32" type="line"/>
      <point x="234.07999999999998" y="552.48"/>
      <point x="216.78" y="557.2"/>
      <point x="197.48" y="557.2" type="curve" smooth="yes"/>
      <point x="94.2" y="557.2"/>
      <point x="8.120000000000001" y="402.76"/>
      <point x="8.120000000000001" y="168.46" type="curve" smooth="yes"/>
      <point x="8.120000000000001" y="47.480000000000004"/>
      <point x="43.44" y="-10.0"/>
      <point x="108.06" y="-10.0" type="curve" smooth="yes"/>
      <point x="142.24" y="-10.0"/>
      <point x="169.4" y="9.74"/>
      <point x="187.7" y="32.34" type="curve"/>
      <point x="204.74" y="2.44"/>
      <point x="225.2" y="-10.0"/>
    </contour>
    <contour>
      <point x="171.7" y="135.42000000000002" type="curve" smooth="yes"/>
      <point x="159.64" y="135.42000000000002"/>
      <point x="154.26" y="150.48000000000002"/>
      <point x="154.26" y="168.76" type="curve" smooth="yes"/>
      <point x="154.26" y="285.72"/>
      <point x="181.3" y="421.52"/>
      <point x="221.12" y="421.52" type="curve" smooth="yes"/>
      <point x="224.66" y="421.52"/>
      <point x="226.92" y="421.1"/>
      <point x="231.6" y="419.54" type="curve"/>
      <point x="187.42000000000002" y="141.07999999999998" type="line"/>
      <point x="182.74" y="137.39999999999998"/>
      <point x="176.78" y="135.42000000000002"/>
    </contour>
  </outline>
</glyph>
<glyph name="e" format="2">
  <advance width="345.36"/>
  <unicode hex="0065"/>
  <note>
14 points
</note>
  <anchor x="164.44" y="0.0" name="bottom"/>
  <anchor x="235.2" y="-1.44" name="ogonek"/>
  <anchor x="232.48" y="546.04" name="top"/>
  <outline>
    <contour>
      <point x="114.68" y="283.84000000000003" type="curve"/>
      <point x="86.44" y="187.68" type="line"/>
      <point x="125.19999999999999" y="186.08"/>
      <point x="162.8" y="192.92"/>
      <point x="196.68" y="204.76000000000002" type="curve" smooth="yes"/>
      <point x="292.76" y="239.16000000000003"/>
      <point x="360.96" y="324.91999999999996"/>
      <point x="360.96" y="432.15999999999997" type="curve" smooth="yes"/>
      <point x="360.96" y="504.4"/>
      <point x="320.88" y="555.76"/>
      <point x="234.0" y="555.76" type="curve" smooth="yes"/>
      <point x="83.0" y="555.76"/>
      <point x="7.520000000000001" y="381.28"/>
      <point x="7.520000000000001" y="186.76" type="curve" smooth="yes"/>
      <point x="7.520000000000001" y="60.88"/>
      <point x="64.03999999999999" y="-10.0"/>
      <point x="169.04" y="-10.0" type="curve" smooth="yes"/>
      <point x="209.79999999999998" y="-10.0"/>
      <point x="259.0" y="-0.2799999999999998"/>
      <point x="298.91999999999996" y="22.6" type="curve"/>
      <point x="276.6" y="161.16" type="line"/>
      <point x="243.72" y="145.44"/>
      <point x="214.83999999999997" y="139.44"/>
      <point x="190.12" y="139.44" type="curve" smooth="yes"/>
      <point x="160.60000000000002" y="139.44"/>
      <point x="142.48" y="148.39999999999998"/>
      <point x="143.92000000000002" y="220.76" type="curve" smooth="yes"/>
      <point x="146.8" y="347.64"/>
      <point x="180.4" y="423.24"/>
      <point x="214.23999999999998" y="422.52" type="curve" smooth="yes"/>
      <point x="224.48000000000002" y="422.52"/>
      <point x="229.72" y="416.4"/>
      <point x="229.72" y="398.48" type="curve" smooth="yes"/>
      <point x="229.0" y="359.72"/>
      <point x="207.07999999999998" y="314.56"/>
      <point x="170.32" y="294.48" type="curve" smooth="yes"/>
      <point x="156.36" y="287.08000000000004"/>
      <point x="128.6" y="282.24"/>
    </contour>
  </outline>
</glyph>
<glyph name="f" format="2">
  <advance width="240.84"/>
  <unicode hex="0066"/>
  <outline>
    <contour>
      <point x="-37.72" y="-220.0" type="curve" smooth="yes"/>
      <point x="69.0" y="-220.0"/>
      <point x="119.78" y="-153.24"/>
      <point x="142.51999999999998" y="-9.939999999999998" type="curve" smooth="yes"/>
      <point x="206.01999999999998" y="391.04" type="line"/>
      <point x="253.62" y="391.04" type="line"/>
      <point x="274.68" y="522.7" type="line"/>
      <point x="227.07999999999998" y="522.7" type="line"/>
      <point x="237.01999999999998" y="588.04"/>
      <point x="250.38" y="603.72"/>
      <point x="276.26" y="603.72" type="curve" smooth="yes"/>
      <point x="286.68" y="603.72"/>
      <point x="299.1" y="600.72"/>
      <point x="311.96" y="596.0" type="curve"/>
      <point x="354.22" y="724.08" type="line"/>
      <point x="327.04" y="738.54"/>
      <point x="299.28" y="750.0"/>
      <point x="254.6" y="750.0" type="curve" smooth="yes"/>
      <point x="169.86" y="750.0"/>
      <point x="107.36" y="676.14"/>
      <point x="85.1" y="522.7" type="curve"/>
      <point x="43.44" y="515.84" type="line"/>
      <point x="22.52" y="391.04" type="line"/>
      <point x="64.03999999999999" y="391.04" type="line"/>
      <point x="1.540000000000001" y="-7.520000000000003" type="line" smooth="yes"/>
      <point x="-6.3" y="-55.120000000000005"/>
      <point x="-22.28" y="-73.14000000000001"/>
      <point x="-46.74" y="-73.14000000000001" type="curve" smooth="yes"/>
      <point x="-54.72" y="-73.14000000000001"/>
      <point x="-64.86" y="-72.86000000000001"/>
      <point x="-79.14" y="-67.86000000000001" type="curve"/>
      <point x="-120.12" y="-203.54" type="line"/>
      <point x="-91.5" y="-214.56"/>
      <point x="-64.46000000000001" y="-220.0"/>
    </contour>
  </outline>
</glyph>
<glyph name="g" format="2">
  <advance width="377.72"/>
  <unicode hex="0067"/>
  <note>
16
</note>
  <anchor x="108.08" y="-218.6" name="bottom"/>
  <anchor x="232.48000000000002" y="547.1999999999999" name="top"/>
  <outline>
    <contour>
      <point x="-27.2" y="-184.76000000000002" type="line"/>
      <point x="22.2" y="-208.68"/>
      <point x="74.32" y="-220.0"/>
      <point x="107.8" y="-220.0" type="curve" smooth="yes"/>
      <point x="219.12" y="-220.0"/>
      <point x="283.8" y="-155.35999999999999"/>
      <point x="307.68" y="-5.640000000000001" type="curve" smooth="yes"/>
      <point x="395.08" y="533.6" type="line"/>
      <point x="367.92" y="546.0400000000001"/>
      <point x="310.36" y="557.1999999999999"/>
      <point x="259.4" y="557.1999999999999" type="curve" smooth="yes"/>
      <point x="89.96000000000001" y="557.1999999999999"/>
      <point x="7.840000000000001" y="407.32"/>
      <point x="7.840000000000001" y="162.44" type="curve" smooth="yes"/>
      <point x="7.840000000000001" y="73.84"/>
      <point x="36.72" y="14.119999999999997"/>
      <point x="102.64" y="14.119999999999997" type="curve" smooth="yes"/>
      <point x="121.64" y="14.119999999999997"/>
      <point x="148.52" y="20.119999999999997"/>
      <point x="173.39999999999998" y="35.120000000000005" type="curve"/>
      <point x="168.56" y="-7.800000000000004" type="line" smooth="yes"/>
      <point x="162.16" y="-61.359999999999985"/>
      <point x="138.6" y="-76.0"/>
      <point x="112.68" y="-76.0" type="curve" smooth="yes"/>
      <point x="90.08" y="-76.0"/>
      <point x="43.68" y="-64.68"/>
      <point x="16.64" y="-53.519999999999996" type="curve"/>
    </contour>
    <contour>
      <point x="235.48000000000002" y="425.56" type="curve"/>
      <point x="191.16" y="146.96" type="line"/>
      <point x="186.76" y="143.56"/>
      <point x="179.96" y="141.44"/>
      <point x="175.72" y="141.44" type="curve" smooth="yes"/>
      <point x="163.8" y="141.44"/>
      <point x="157.28" y="152.2"/>
      <point x="157.28" y="172.92000000000002" type="curve" smooth="yes"/>
      <point x="157.28" y="290.92"/>
      <point x="187.64" y="427.68"/>
      <point x="224.27999999999997" y="427.68" type="curve" smooth="yes"/>
      <point x="227.39999999999998" y="427.68"/>
      <point x="231.08" y="427.12"/>
    </contour>
  </outline>
</glyph>
<glyph name="h" format="2">
  <advance width="375.24"/>
  <unicode hex="0068"/>
  <note>
16
</note>
  <anchor x="143.32" y="0.0" name="bottom"/>
  <anchor x="201.9" y="370.0" name="center"/>
  <anchor x="259.6" y="740.0" name="top"/>
  <outline>
    <contour>
      <point x="326.5" y="148.82" type="curve" smooth="yes"/>
      <point x="326.5" y="160.04"/>
      <point x="377.02" y="441.56"/>
      <point x="377.02" y="469.28" type="curve" smooth="yes"/>
      <point x="377.02" y="525.48"/>
      <point x="349.84000000000003" y="557.2"/>
      <point x="297.24" y="557.2" type="curve" smooth="yes"/>
      <point x="264.5" y="557.2"/>
      <point x="238.66" y="547.2"/>
      <point x="203.04" y="519.58" type="curve"/>
      <point x="238.89999999999998" y="740.0" type="line"/>
      <point x="96.92" y="740.0" type="line"/>
      <point x="-20.94" y="0.0" type="line"/>
      <point x="121.03999999999999" y="0.0" type="line"/>
      <point x="186.14" y="403.12" type="line"/>
      <point x="194.1" y="409.52"/>
      <point x="203.16" y="412.78"/>
      <point x="210.12" y="412.78" type="curve" smooth="yes"/>
      <point x="221.6" y="412.78"/>
      <point x="225.44" y="405.98"/>
      <point x="225.44" y="396.62" type="curve" smooth="yes"/>
      <point x="225.44" y="380.36"/>
      <point x="176.06" y="111.44"/>
      <point x="176.06" y="73.58" type="curve" smooth="yes"/>
      <point x="176.06" y="28.8"/>
      <point x="207.82" y="-10.0"/>
      <point x="262.22" y="-10.0" type="curve" smooth="yes"/>
      <point x="287.7" y="-10.0"/>
      <point x="313.18" y="-1.2599999999999998"/>
      <point x="333.2" y="12.62" type="curve"/>
      <point x="351.56" y="138.56" type="line"/>
      <point x="347.3" y="137.0"/>
      <point x="342.88" y="136.85999999999999"/>
      <point x="340.32" y="136.85999999999999" type="curve" smooth="yes"/>
      <point x="331.64" y="136.85999999999999"/>
      <point x="326.5" y="139.84"/>
    </contour>
  </outline>
</glyph>
<glyph name="i" format="2">
  <advance width="188.95999999999998"/>
  <unicode hex="0069"/>
  <note>
Ajuster pts sur points
8
</note>
  <anchor x="50.839999999999996" y="0.0" name="bottom"/>
  <anchor x="121.89999999999999" y="0.0" name="ogonek"/>
  <anchor x="137.42000000000002" y="547.2" name="top"/>
  <outline>
    <contour>
      <point x="-19.94" y="0.0" type="line"/>
      <point x="121.89999999999999" y="0.0" type="line"/>
      <point x="208.48000000000002" y="547.2" type="line"/>
      <point x="66.5" y="547.2" type="line"/>
    </contour>
    <contour>
      <point x="176.01999999999998" y="778.8" type="curve" smooth="yes"/>
      <point x="105.26" y="778.8"/>
      <point x="78.6" y="715.74"/>
      <point x="78.18" y="653.04" type="curve" smooth="yes"/>
      <point x="78.03999999999999" y="606.34"/>
      <point x="101.1" y="583.98"/>
      <point x="144.07999999999998" y="583.98" type="curve" smooth="yes"/>
      <point x="215.7" y="583.98"/>
      <point x="241.5" y="648.76"/>
      <point x="241.92000000000002" y="710.6" type="curve" smooth="yes"/>
      <point x="242.06" y="757.3"/>
      <point x="218.14" y="778.8"/>
    </contour>
  </outline>
</glyph>
<glyph name="j" format="2">
  <advance width="191.07999999999998"/>
  <unicode hex="006A"/>
  <note>
idem /i
12
</note>
  <outline>
    <contour>
      <point x="178.14" y="778.8" type="curve" smooth="yes"/>
      <point x="107.38" y="778.8"/>
      <point x="80.72" y="715.74"/>
      <point x="80.3" y="653.04" type="curve" smooth="yes"/>
      <point x="80.16" y="606.34"/>
      <point x="104.08" y="583.98"/>
      <point x="147.06" y="583.98" type="curve" smooth="yes"/>
      <point x="217.82" y="583.98"/>
      <point x="243.62" y="648.76"/>
      <point x="244.04" y="710.6" type="curve" smooth="yes"/>
      <point x="244.18" y="757.3"/>
      <point x="220.26" y="778.8"/>
    </contour>
    <contour>
      <point x="211.45999999999998" y="547.2" type="line"/>
      <point x="68.62" y="547.2" type="line"/>
      <point x="-19.36" y="-2.3599999999999994" type="line" smooth="yes"/>
      <point x="-27.2" y="-49.96000000000001"/>
      <point x="-42.32" y="-73.14000000000001"/>
      <point x="-66.78" y="-73.14000000000001" type="curve" smooth="yes"/>
      <point x="-75.76" y="-73.14000000000001"/>
      <point x="-85.9" y="-72.86000000000001"/>
      <point x="-99.32" y="-67.86000000000001" type="curve"/>
      <point x="-136.0" y="-205.26" type="line"/>
      <point x="-107.38" y="-216.28"/>
      <point x="-74.32" y="-220.0"/>
      <point x="-51.88" y="-220.0" type="curve" smooth="yes"/>
      <point x="54.980000000000004" y="-220.0"/>
      <point x="98.88" y="-154.24"/>
      <point x="122.48" y="-5.640000000000001" type="curve" smooth="yes"/>
    </contour>
  </outline>
</glyph>
<glyph name="k" format="2">
  <advance width="361.24"/>
  <unicode hex="006B"/>
  <anchor x="156.04000000000002" y="0.0" name="bottom"/>
  <anchor x="168.12" y="740.0" name="top"/>
  <outline>
    <contour>
      <point x="-20.080000000000002" y="0.0" type="line"/>
      <point x="122.03999999999999" y="0.0" type="line"/>
      <point x="239.04000000000002" y="740.0" type="line"/>
      <point x="96.92" y="740.0" type="line"/>
    </contour>
    <contour>
      <point x="269.2" y="-10.0" type="curve" smooth="yes"/>
      <point x="283.8" y="-10.0"/>
      <point x="298.4" y="-8.28"/>
      <point x="314.72" y="-1.8399999999999999" type="curve"/>
      <point x="338.24" y="162.56" type="line"/>
      <point x="331.24" y="162.28"/>
      <point x="325.52" y="163.0"/>
      <point x="320.52" y="164.0" type="curve" smooth="yes"/>
      <point x="297.96" y="168.27999999999997"/>
      <point x="280.84" y="184.07999999999998"/>
      <point x="238.83999999999997" y="265.36" type="curve" smooth="yes"/>
      <point x="172.8" y="393.64" type="line"/>
      <point x="136.39999999999998" y="198.8" type="line"/>
      <point x="176.2" y="91.88000000000001" type="line" smooth="yes"/>
      <point x="201.28" y="25.72"/>
      <point x="227.32" y="-10.0"/>
    </contour>
    <contour>
      <point x="232.76" y="229.51999999999998" type="line"/>
      <point x="308.92" y="313.6"/>
      <point x="375.64" y="436.8"/>
      <point x="401.16" y="543.32" type="curve"/>
      <point x="262.44" y="557.2" type="line"/>
      <point x="242.52" y="451.84000000000003"/>
      <point x="211.24" y="393.08000000000004"/>
      <point x="168.76" y="335.52" type="curve"/>
    </contour>
  </outline>
</glyph>
<glyph name="l" format="2">
  <advance width="193.24"/>
  <unicode hex="006C"/>
  <anchor x="71.92" y="0.0" name="bottom"/>
  <anchor x="114.14" y="370.0" name="center"/>
  <anchor x="167.84" y="740.0" name="top"/>
  <anchor x="263.48" y="740.0" name="topright"/>
  <outline>
    <contour>
      <point x="96.92" y="740.0" type="line"/>
      <point x="-2.619999999999999" y="110.47999999999999" type="line" smooth="yes"/>
      <point x="-4.48" y="99.03999999999999"/>
      <point x="-5.48" y="85.88"/>
      <point x="-5.48" y="76.3" type="curve" smooth="yes"/>
      <point x="-5.48" y="23.78"/>
      <point x="21.86" y="-10.0"/>
      <point x="77.66" y="-10.0" type="curve" smooth="yes"/>
      <point x="103.42" y="-10.0"/>
      <point x="135.76" y="-0.9800000000000004"/>
      <point x="153.06" y="12.62" type="curve"/>
      <point x="171.42000000000002" y="138.56" type="line"/>
      <point x="166.74" y="137.0"/>
      <point x="161.76" y="136.72"/>
      <point x="158.92000000000002" y="136.72" type="curve" smooth="yes"/>
      <point x="150.1" y="136.72"/>
      <point x="146.68" y="142.0"/>
      <point x="146.68" y="153.14" type="curve" smooth="yes"/>
      <point x="146.68" y="158.98000000000002"/>
      <point x="147.95999999999998" y="166.95999999999998"/>
      <point x="149.38" y="176.62" type="curve" smooth="yes"/>
      <point x="238.89999999999998" y="740.0" type="line"/>
    </contour>
  </outline>
</glyph>
<glyph name="m" format="2">
  <advance width="556.84"/>
  <unicode hex="006D"/>
  <note>
24&gt;23 points
un point de trop dans la jointure avec 2e jambage
</note>
  <outline>
    <contour>
      <point x="441.24" y="-10.0" type="curve" smooth="yes"/>
      <point x="466.72" y="-10.0"/>
      <point x="497.36" y="-1.2599999999999998"/>
      <point x="514.8" y="12.62" type="curve"/>
      <point x="533.16" y="138.56" type="line"/>
      <point x="528.9" y="137.0"/>
      <point x="524.48" y="136.85999999999999"/>
      <point x="521.92" y="136.85999999999999" type="curve" smooth="yes"/>
      <point x="513.24" y="136.85999999999999"/>
      <point x="507.96000000000004" y="142.42000000000002"/>
      <point x="507.96000000000004" y="153.98000000000002" type="curve" smooth="yes"/>
      <point x="507.96000000000004" y="180.68"/>
      <point x="558.48" y="447.58"/>
      <point x="558.48" y="474.44" type="curve" smooth="yes"/>
      <point x="558.48" y="523.76"/>
      <point x="532.3" y="557.2"/>
      <point x="478.84000000000003" y="557.2" type="curve" smooth="yes"/>
      <point x="448.38" y="557.2"/>
      <point x="411.08" y="548.34"/>
      <point x="368.03999999999996" y="511.58" type="curve"/>
      <point x="358.03999999999996" y="540.9"/>
      <point x="333.74" y="557.2"/>
      <point x="297.7" y="557.2" type="curve" smooth="yes"/>
      <point x="265.38" y="557.2"/>
      <point x="229.92000000000002" y="547.92"/>
      <point x="189.86" y="514.28" type="curve"/>
      <point x="195.44" y="547.2" type="line"/>
      <point x="66.36" y="547.2" type="line"/>
      <point x="-20.22" y="0.0" type="line"/>
      <point x="121.76" y="0.0" type="line"/>
      <point x="186.0" y="403.26" type="line"/>
      <point x="193.1" y="408.8"/>
      <point x="202.9" y="412.78"/>
      <point x="211.28" y="412.78" type="curve" smooth="yes"/>
      <point x="221.64" y="412.78"/>
      <point x="225.32" y="406.4"/>
      <point x="225.32" y="397.18" type="curve" smooth="yes"/>
      <point x="225.32" y="386.4"/>
      <point x="184.14" y="139.32"/>
      <point x="160.92" y="0.0" type="curve"/>
      <point x="302.18" y="0.0" type="line"/>
      <point x="319.38" y="104.06"/>
      <point x="345.94" y="271.7"/>
      <point x="363.14" y="380.24" type="curve" smooth="yes"/>
      <point x="364.0" y="386.96000000000004"/>
      <point x="365.58" y="397.12"/>
      <point x="366.3" y="402.84000000000003" type="curve"/>
      <point x="374.26" y="409.24"/>
      <point x="383.34000000000003" y="412.78"/>
      <point x="391.42" y="412.78" type="curve" smooth="yes"/>
      <point x="402.06" y="412.78"/>
      <point x="406.04" y="405.98"/>
      <point x="406.04" y="396.62" type="curve" smooth="yes"/>
      <point x="406.04" y="379.94"/>
      <point x="356.65999999999997" y="119.18"/>
      <point x="356.65999999999997" y="76.16" type="curve" smooth="yes"/>
      <point x="356.65999999999997" y="23.64"/>
      <point x="386.84000000000003" y="-10.0"/>
    </contour>
  </outline>
</glyph>
<glyph name="n" format="2">
  <advance width="374.96"/>
  <unicode hex="006E"/>
  <note>
16
</note>
  <anchor x="153.9" y="0.0" name="bottom"/>
  <anchor x="227.34" y="547.2" name="top"/>
  <outline>
    <contour>
      <point x="66.36" y="547.2" type="line"/>
      <point x="-20.22" y="0.0" type="line"/>
      <point x="121.76" y="0.0" type="line"/>
      <point x="186.86" y="403.12" type="line"/>
      <point x="194.82" y="409.52"/>
      <point x="202.88" y="412.92"/>
      <point x="210.7" y="412.92" type="curve" smooth="yes"/>
      <point x="222.18" y="412.92"/>
      <point x="226.16" y="405.98"/>
      <point x="226.16" y="396.62" type="curve" smooth="yes"/>
      <point x="226.16" y="370.9"/>
      <point x="176.78" y="119.18"/>
      <point x="176.78" y="69.28" type="curve" smooth="yes"/>
      <point x="176.78" y="29.66"/>
      <point x="206.68" y="-10.0"/>
      <point x="261.08" y="-10.0" type="curve" smooth="yes"/>
      <point x="286.56" y="-10.0"/>
      <point x="315.48" y="-1.2599999999999998"/>
      <point x="332.92" y="12.62" type="curve"/>
      <point x="351.28" y="138.56" type="line"/>
      <point x="347.02" y="137.0"/>
      <point x="342.6" y="136.85999999999999"/>
      <point x="340.03999999999996" y="136.85999999999999" type="curve" smooth="yes"/>
      <point x="331.36" y="136.85999999999999"/>
      <point x="326.36" y="139.84"/>
      <point x="326.36" y="148.82" type="curve" smooth="yes"/>
      <point x="326.36" y="160.04"/>
      <point x="377.74" y="441.56"/>
      <point x="377.74" y="469.28" type="curve" smooth="yes"/>
      <point x="377.74" y="525.48"/>
      <point x="350.42" y="557.2"/>
      <point x="297.82" y="557.2" type="curve" smooth="yes"/>
      <point x="265.08" y="557.2"/>
      <point x="228.92000000000002" y="547.78"/>
      <point x="189.0" y="514.14" type="curve"/>
      <point x="193.72" y="547.2" type="line"/>
    </contour>
  </outline>
</glyph>
<glyph name="o" format="2">
  <advance width="370.4"/>
  <unicode hex="006F"/>
  <note>
8
</note>
  <anchor x="141.79968" y="0.0" name="bottom"/>
  <anchor x="185.20000000000002" y="273.59999999999997" name="center"/>
  <anchor x="210.48000000000002" y="0.0" name="ogonek"/>
  <anchor x="218.88" y="547.1999999999999" name="top"/>
  <anchor x="300.28" y="537.1999999999999" name="topright"/>
  <outline>
    <contour>
      <point x="150.76" y="-9.28" type="curve" smooth="yes"/>
      <point x="305.48" y="-9.28"/>
      <point x="364.15999999999997" y="202.64000000000001"/>
      <point x="364.15999999999997" y="403.36" type="curve" smooth="yes"/>
      <point x="364.15999999999997" y="505.80000000000007"/>
      <point x="324.68" y="557.2"/>
      <point x="219.08" y="557.2" type="curve" smooth="yes"/>
      <point x="64.36" y="557.2"/>
      <point x="5.680000000000001" y="345.28"/>
      <point x="5.680000000000001" y="143.39999999999998" type="curve" smooth="yes"/>
      <point x="5.680000000000001" y="42.4"/>
      <point x="45.44" y="-9.28"/>
    </contour>
    <contour>
      <point x="159.95999999999998" y="128.4" type="curve" smooth="yes"/>
      <point x="151.04000000000002" y="128.4"/>
      <point x="144.07999999999998" y="132.07999999999998"/>
      <point x="144.07999999999998" y="152.76" type="curve" smooth="yes"/>
      <point x="144.07999999999998" y="194.16"/>
      <point x="175.64" y="419.52"/>
      <point x="210.16" y="419.52" type="curve" smooth="yes"/>
      <point x="219.07999999999998" y="419.52"/>
      <point x="226.04000000000002" y="416.12"/>
      <point x="226.04000000000002" y="395.44" type="curve" smooth="yes"/>
      <point x="226.04000000000002" y="353.76"/>
      <point x="194.48000000000002" y="128.4"/>
    </contour>
  </outline>
</glyph>
<glyph name="p" format="2">
  <advance width="373.24"/>
  <unicode hex="0070"/>
  <note>
14 point
</note>
  <outline>
    <contour>
      <point x="-53.08" y="-210.0" type="line"/>
      <point x="87.89999999999999" y="-210.0" type="line"/>
      <point x="120.89999999999999" y="-3.0" type="line"/>
      <point x="132.32" y="-5.42"/>
      <point x="147.04" y="-8.28"/>
      <point x="170.64" y="-8.28" type="curve" smooth="yes"/>
      <point x="302.72" y="-8.28"/>
      <point x="366.42" y="184.26"/>
      <point x="366.42" y="378.66" type="curve" smooth="yes"/>
      <point x="366.42" y="499.44"/>
      <point x="336.53999999999996" y="557.2"/>
      <point x="274.08" y="557.2" type="curve" smooth="yes"/>
      <point x="235.88" y="557.2"/>
      <point x="212.72" y="536.44"/>
      <point x="200.45999999999998" y="522.14" type="curve"/>
      <point x="195.88" y="548.6" type="line"/>
      <point x="66.64" y="548.6" type="line"/>
    </contour>
    <contour>
      <point x="154.01999999999998" y="123.24" type="curve" smooth="yes"/>
      <point x="150.48000000000002" y="123.24"/>
      <point x="146.07999999999998" y="123.52"/>
      <point x="141.95999999999998" y="125.22" type="curve"/>
      <point x="186.28" y="406.54" type="line"/>
      <point x="190.1" y="408.8"/>
      <point x="196.6" y="411.06"/>
      <point x="202.42000000000002" y="411.06" type="curve" smooth="yes"/>
      <point x="213.18" y="411.06"/>
      <point x="221.0" y="402.6"/>
      <point x="221.0" y="366.2" type="curve" smooth="yes"/>
      <point x="221.0" y="254.46"/>
      <point x="190.82" y="123.24"/>
    </contour>
  </outline>
</glyph>
<glyph name="q" format="2">
  <advance width="376.42"/>
  <unicode hex="0071"/>
  <note>
12
</note>
  <outline>
    <contour>
      <point x="393.64" y="530.3" type="line"/>
      <point x="363.32" y="542.6"/>
      <point x="306.34000000000003" y="557.2"/>
      <point x="244.2" y="557.2" type="curve" smooth="yes"/>
      <point x="89.72" y="557.2"/>
      <point x="6.4" y="395.06"/>
      <point x="6.4" y="152.98" type="curve" smooth="yes"/>
      <point x="6.4" y="44.78"/>
      <point x="42.7" y="-10.0"/>
      <point x="109.36" y="-10.0" type="curve" smooth="yes"/>
      <point x="130.92" y="-10.0"/>
      <point x="153.94" y="0.0"/>
      <point x="168.8" y="13.44" type="curve"/>
      <point x="133.52" y="-210.0" type="line"/>
      <point x="274.06" y="-210.0" type="line"/>
    </contour>
    <contour>
      <point x="233.32" y="419.54" type="curve"/>
      <point x="189.0" y="140.94" type="line"/>
      <point x="184.32" y="137.26"/>
      <point x="177.66" y="135.28"/>
      <point x="173.42000000000002" y="135.28" type="curve" smooth="yes"/>
      <point x="160.94" y="135.28"/>
      <point x="155.84" y="151.6"/>
      <point x="155.84" y="166.76" type="curve" smooth="yes"/>
      <point x="155.84" y="268.96"/>
      <point x="179.2" y="421.52"/>
      <point x="221.98" y="421.52" type="curve" smooth="yes"/>
      <point x="225.1" y="421.52"/>
      <point x="228.78" y="421.1"/>
    </contour>
  </outline>
</glyph>
<glyph name="r" format="2">
  <advance width="257.28"/>
  <unicode hex="0072"/>
  <anchor x="49.839999999999996" y="0.0" name="bottom"/>
  <anchor x="205.9" y="547.2" name="top"/>
  <outline>
    <contour>
      <point x="193.72" y="547.2" type="line"/>
      <point x="66.36" y="547.2" type="line"/>
      <point x="-20.22" y="0.0" type="line"/>
      <point x="119.17999999999999" y="0.0" type="line"/>
      <point x="179.42000000000002" y="371.96000000000004" type="line"/>
      <point x="196.8" y="384.88"/>
      <point x="210.04" y="388.7"/>
      <point x="225.86" y="388.7" type="curve" smooth="yes"/>
      <point x="232.7" y="388.7"/>
      <point x="248.0" y="387.56"/>
      <point x="259.14" y="383.56" type="curve"/>
      <point x="306.56" y="548.48" type="line"/>
      <point x="291.98" y="556.06"/>
      <point x="280.7" y="557.2"/>
      <point x="266.7" y="557.2" type="curve" smooth="yes"/>
      <point x="243.57999999999998" y="557.2"/>
      <point x="218.45999999999998" y="541.92"/>
      <point x="186.86" y="503.88" type="curve"/>
    </contour>
  </outline>
</glyph>
<glyph name="s" format="2">
  <advance width="316.92"/>
  <unicode hex="0073"/>
  <anchor x="116.64" y="0.0" name="bottom"/>
  <anchor x="212.60000000000002" y="547.1999999999999" name="top"/>
  <outline>
    <contour>
      <point x="-29.76" y="21.48" type="line"/>
      <point x="7.16" y="1.88"/>
      <point x="47.64" y="-10.0"/>
      <point x="112.91999999999999" y="-10.0" type="curve" smooth="yes"/>
      <point x="222.28" y="-10.0"/>
      <point x="297.56" y="53.400000000000006"/>
      <point x="297.56" y="190.36" type="curve" smooth="yes"/>
      <point x="297.56" y="350.92"/>
      <point x="159.56" y="334.71999999999997"/>
      <point x="159.56" y="384.64000000000004" type="curve" smooth="yes"/>
      <point x="159.56" y="404.2"/>
      <point x="174.36" y="415.36"/>
      <point x="203.84" y="415.36" type="curve" smooth="yes"/>
      <point x="231.0" y="415.36"/>
      <point x="265.92" y="407.36"/>
      <point x="295.4" y="395.20000000000005" type="curve"/>
      <point x="334.36" y="531.88" type="line"/>
      <point x="308.6" y="546.04"/>
      <point x="262.52" y="557.1999999999999"/>
      <point x="211.28" y="557.1999999999999" type="curve" smooth="yes"/>
      <point x="79.96" y="557.1999999999999"/>
      <point x="21.88" y="469.16"/>
      <point x="21.88" y="366.16" type="curve" smooth="yes"/>
      <point x="21.88" y="206.84"/>
      <point x="160.6" y="213.60000000000002"/>
      <point x="160.6" y="161.35999999999999" type="curve" smooth="yes"/>
      <point x="160.6" y="142.07999999999998"/>
      <point x="146.24" y="127.68"/>
      <point x="114.91999999999999" y="127.68" type="curve" smooth="yes"/>
      <point x="82.88" y="127.68"/>
      <point x="41.24" y="137.83999999999997"/>
      <point x="13.64" y="152.0" type="curve"/>
    </contour>
  </outline>
</glyph>
<glyph name="u" format="2">
  <advance width="373.24"/>
  <unicode hex="0075"/>
  <note>
15
</note>
  <anchor x="147.34" y="0.0" name="bottom"/>
  <anchor x="332.06" y="12.9" name="ogonek"/>
  <anchor x="229.39816000000002" y="547.2" name="top"/>
  <anchor x="363.38" y="547.2" name="topright"/>
  <outline>
    <contour>
      <point x="82.32" y="-10.0" type="curve" smooth="yes"/>
      <point x="120.5" y="-10.0"/>
      <point x="146.5" y="6.02"/>
      <point x="181.52" y="42.36" type="curve"/>
      <point x="191.4" y="12.76"/>
      <point x="220.88" y="-10.0"/>
      <point x="259.65999999999997" y="-10.0" type="curve" smooth="yes"/>
      <point x="284.86" y="-10.0"/>
      <point x="314.9" y="-0.8399999999999999"/>
      <point x="332.06" y="12.9" type="curve"/>
      <point x="350.28" y="137.84" type="line"/>
      <point x="346.02" y="136.28"/>
      <point x="340.9" y="135.85999999999999"/>
      <point x="338.2" y="135.85999999999999" type="curve" smooth="yes"/>
      <point x="329.8" y="135.85999999999999"/>
      <point x="326.65999999999997" y="141.56"/>
      <point x="326.65999999999997" y="152.56" type="curve" smooth="yes"/>
      <point x="326.65999999999997" y="158.39999999999998"/>
      <point x="327.94" y="168.22"/>
      <point x="389.18" y="547.2" type="curve"/>
      <point x="249.78" y="547.2" type="line"/>
      <point x="183.96" y="142.92000000000002" type="line"/>
      <point x="175.01999999999998" y="135.68"/>
      <point x="168.66" y="132.56"/>
      <point x="159.42000000000002" y="132.56" type="curve" smooth="yes"/>
      <point x="148.48000000000002" y="132.56"/>
      <point x="142.8" y="141.66"/>
      <point x="144.51999999999998" y="154.04" type="curve" smooth="yes"/>
      <point x="160.0" y="255.76"/>
      <point x="179.92" y="380.44"/>
      <point x="206.2" y="547.2" type="curve"/>
      <point x="65.94" y="547.2" type="line"/>
      <point x="20.52" y="263.88"/>
      <point x="-5.199999999999999" y="140.16"/>
      <point x="-5.199999999999999" y="79.24" type="curve" smooth="yes"/>
      <point x="-5.199999999999999" y="28.48"/>
      <point x="23.96" y="-10.0"/>
    </contour>
  </outline>
</glyph>
<glyph name="v" format="2">
  <advance width="358.44"/>
  <unicode hex="0076"/>
  <outline>
    <contour>
      <point x="223.9" y="-0.56" type="line"/>
      <point x="307.52" y="207.24"/>
      <point x="383.34000000000003" y="377.28"/>
      <point x="387.64" y="547.2" type="curve"/>
      <point x="241.36" y="547.2" type="line"/>
      <point x="240.94" y="412.52"/>
      <point x="204.6" y="304.98"/>
      <point x="152.54" y="146.38" type="curve"/>
      <point x="188.51999999999998" y="547.2" type="line"/>
      <point x="37.94" y="547.2" type="line"/>
      <point x="38.5" y="-0.56" type="line"/>
    </contour>
  </outline>
</glyph>
<glyph name="w" format="2">
  <advance width="569.46"/>
  <unicode hex="0077"/>
  <note>
15
</note>
  <anchor x="242.26" y="0.0" name="bottom"/>
  <anchor x="310.7" y="547.2" name="top"/>
  <outline>
    <contour>
      <point x="440.3" y="0.0" type="line"/>
      <point x="531.8199999999999" y="240.54"/>
      <point x="594.54" y="389.5"/>
      <point x="596.66" y="547.2" type="curve"/>
      <point x="452.96" y="547.2" type="line"/>
      <point x="447.12" y="418.18"/>
      <point x="418.5" y="308.78"/>
      <point x="375.82" y="154.68" type="curve"/>
      <point x="402.98" y="538.94" type="line"/>
      <point x="243.38" y="538.94" type="line"/>
      <point x="214.28" y="410.14"/>
      <point x="185.32" y="282.2"/>
      <point x="156.22" y="153.39999999999998" type="curve"/>
      <point x="188.39999999999998" y="547.2" type="line"/>
      <point x="37.1" y="547.2" type="line"/>
      <point x="40.46" y="0.0" type="line"/>
      <point x="219.84" y="0.0" type="line"/>
      <point x="242.06" y="106.3"/>
      <point x="263.56" y="212.74"/>
      <point x="285.78" y="319.04" type="curve"/>
      <point x="269.52" y="0.0" type="line"/>
    </contour>
  </outline>
</glyph>
<glyph name="x" format="2">
  <advance width="396.88"/>
  <unicode hex="0078"/>
  <outline>
    <contour>
      <point x="268.06" y="547.2" type="line"/>
      <point x="268.06" y="479.62"/>
      <point x="248.5" y="432.6"/>
      <point x="207.16" y="350.94" type="curve"/>
      <point x="207.57999999999998" y="547.76" type="line"/>
      <point x="48.68" y="547.2" type="line"/>
      <point x="77.78" y="276.46" type="line"/>
      <point x="27.58" y="186.66"/>
      <point x="-18.02" y="96.8"/>
      <point x="-27.48" y="0.0" type="curve"/>
      <point x="128.84" y="0.0" type="line"/>
      <point x="135.0" y="67.84"/>
      <point x="157.24" y="134.66"/>
      <point x="189.28" y="199.28" type="curve"/>
      <point x="194.74" y="-0.28" type="line"/>
      <point x="356.22" y="0.14" type="line"/>
      <point x="318.65999999999997" y="273.9" type="line"/>
      <point x="390.36" y="391.1"/>
      <point x="419.5" y="505.72"/>
      <point x="419.5" y="547.2" type="curve"/>
    </contour>
  </outline>
</glyph>
<glyph name="y" format="2">
  <advance width="358.44"/>
  <unicode hex="0079"/>
  <anchor x="275.92" y="-58.80000000000001" name="bottom"/>
  <anchor x="214.95999999999998" y="547.1999999999999" name="top"/>
  <outline>
    <contour>
      <point x="243.04" y="548.6" type="line"/>
      <point x="237.28" y="401.68"/>
      <point x="202.32" y="286.52"/>
      <point x="155.48000000000002" y="146.24" type="curve"/>
      <point x="185.44" y="548.6" type="line"/>
      <point x="36.68" y="548.3199999999999" type="line"/>
      <point x="38.36" y="0.0" type="line"/>
      <point x="85.44" y="0.0" type="line"/>
      <point x="64.03999999999999" y="-60.080000000000005"/>
      <point x="34.199999999999996" y="-122.20000000000002"/>
      <point x="-14.0" y="-210.0" type="curve"/>
      <point x="130.56" y="-211.4" type="line"/>
      <point x="279.28" y="113.96000000000001"/>
      <point x="366.12" y="305.4"/>
      <point x="390.64" y="548.0400000000001" type="curve"/>
    </contour>
  </outline>
</glyph>
<glyph name="z" format="2">
  <advance width="332.94"/>
  <unicode hex="007A"/>
  <anchor x="132.16" y="0.0" name="bottom"/>
  <anchor x="164.62" y="275.0" name="center"/>
  <anchor x="209.88" y="547.2" name="top"/>
  <outline>
    <contour>
      <point x="-24.6" y="0.0" type="line"/>
      <point x="278.18" y="0.0" type="line"/>
      <point x="299.24" y="136.82" type="line"/>
      <point x="147.9" y="136.82" type="line"/>
      <point x="329.28" y="413.96000000000004" type="line"/>
      <point x="356.22" y="547.2" type="line"/>
      <point x="61.24" y="547.2" type="line"/>
      <point x="39.32" y="408.65999999999997" type="line"/>
      <point x="181.14" y="408.65999999999997" type="line"/>
      <point x="-5.4" y="122.92" type="line"/>
    </contour>
  </outline>
</glyph>
<glyph name="braceleft" format="2">
  <advance width="231.44"/>
  <unicode hex="007B"/>
  <outline>
    <contour>
      <point x="-13.36" y="-92.32" type="curve" smooth="yes"/>
      <point x="-13.36" y="-175.72"/>
      <point x="26.0" y="-210.0"/>
      <point x="76.62" y="-210.0" type="curve" smooth="yes"/>
      <point x="138.48" y="-210.0" type="line"/>
      <point x="161.26" y="-79.92" type="line"/>
      <point x="139.82" y="-79.92" type="line" smooth="yes"/>
      <point x="122.42" y="-79.92"/>
      <point x="114.72" y="-66.68"/>
      <point x="114.72" y="-43.16" type="curve" smooth="yes"/>
      <point x="114.72" y="33.12"/>
      <point x="167.36" y="96.26"/>
      <point x="167.36" y="169.56" type="curve" smooth="yes"/>
      <point x="167.36" y="206.6"/>
      <point x="157.62" y="240.92000000000002"/>
      <point x="132.32" y="266.26" type="curve"/>
      <point x="185.36" y="305.52"/>
      <point x="210.68" y="370.9"/>
      <point x="210.68" y="434.66" type="curve" smooth="yes"/>
      <point x="210.68" y="463.44"/>
      <point x="207.82" y="488.14"/>
      <point x="207.82" y="519.3" type="curve" smooth="yes"/>
      <point x="207.82" y="556.16"/>
      <point x="216.06" y="609.92"/>
      <point x="254.14" y="609.92" type="curve" smooth="yes"/>
      <point x="273.3" y="609.92" type="line"/>
      <point x="294.36" y="740.0" type="line"/>
      <point x="233.2" y="740.0" type="line" smooth="yes"/>
      <point x="120.22" y="740.0"/>
      <point x="84.9" y="620.5"/>
      <point x="84.9" y="509.44" type="curve" smooth="yes"/>
      <point x="84.9" y="472.24"/>
      <point x="90.34" y="447.26"/>
      <point x="90.34" y="414.26" type="curve" smooth="yes"/>
      <point x="90.34" y="379.32"/>
      <point x="85.64" y="334.88"/>
      <point x="52.96" y="334.88" type="curve" smooth="yes"/>
      <point x="39.1" y="334.88" type="line"/>
      <point x="17.18" y="197.2" type="line"/>
      <point x="30.76" y="197.2" type="line" smooth="yes"/>
      <point x="46.6" y="197.2"/>
      <point x="51.46" y="187.24"/>
      <point x="51.46" y="169.12" type="curve" smooth="yes"/>
      <point x="51.46" y="102.3"/>
      <point x="-13.36" y="11.72"/>
    </contour>
  </outline>
</glyph>
<glyph name="bar" format="2">
  <advance width="154.16"/>
  <unicode hex="007C"/>
  <outline>
    <contour>
      <point x="220.54" y="790.86" type="line"/>
      <point x="96.76" y="790.86" type="line"/>
      <point x="-62.239999999999995" y="-210.0" type="line"/>
      <point x="62.400000000000006" y="-210.0" type="line"/>
    </contour>
  </outline>
</glyph>
<glyph name="braceright" format="2">
  <advance width="231.44"/>
  <unicode hex="007D"/>
  <outline>
    <contour>
      <point x="241.8" y="622.32" type="curve" smooth="yes"/>
      <point x="241.8" y="706.58"/>
      <point x="201.57999999999998" y="740.86"/>
      <point x="150.96" y="740.86" type="curve" smooth="yes"/>
      <point x="89.1" y="740.86" type="line"/>
      <point x="66.32" y="610.78" type="line"/>
      <point x="79.16" y="610.78" type="line" smooth="yes"/>
      <point x="97.42" y="610.78"/>
      <point x="105.98" y="596.6800000000001"/>
      <point x="105.98" y="573.16" type="curve" smooth="yes"/>
      <point x="105.98" y="495.16"/>
      <point x="53.34" y="450.48"/>
      <point x="53.34" y="359.12" type="curve" smooth="yes"/>
      <point x="53.34" y="324.66"/>
      <point x="62.22" y="290.34"/>
      <point x="89.24" y="265.86" type="curve"/>
      <point x="36.2" y="225.74"/>
      <point x="10.020000000000003" y="162.08"/>
      <point x="10.020000000000003" y="97.46000000000001" type="curve" smooth="yes"/>
      <point x="10.020000000000003" y="68.68"/>
      <point x="12.880000000000003" y="42.72"/>
      <point x="12.880000000000003" y="13.280000000000001" type="curve" smooth="yes"/>
      <point x="12.880000000000003" y="-23.58"/>
      <point x="5.5" y="-79.06"/>
      <point x="-32.58" y="-79.06" type="curve" smooth="yes"/>
      <point x="-44.86" y="-79.06" type="line"/>
      <point x="-65.92" y="-210.0" type="line"/>
      <point x="-5.620000000000001" y="-210.0" type="line" smooth="yes"/>
      <point x="107.36" y="-210.0"/>
      <point x="142.68" y="-79.32"/>
      <point x="142.68" y="4.219999999999999" type="curve" smooth="yes"/>
      <point x="142.68" y="64.64"/>
      <point x="137.24" y="94.32"/>
      <point x="137.24" y="121.3" type="curve" smooth="yes"/>
      <point x="137.24" y="154.52"/>
      <point x="143.66" y="197.24"/>
      <point x="174.62" y="197.24" type="curve" smooth="yes"/>
      <point x="188.48" y="197.24" type="line"/>
      <point x="210.4" y="334.06" type="line"/>
      <point x="196.82" y="334.06" type="line" smooth="yes"/>
      <point x="180.98000000000002" y="334.06"/>
      <point x="176.12" y="344.02"/>
      <point x="176.12" y="362.14" type="curve" smooth="yes"/>
      <point x="176.12" y="429.82"/>
      <point x="241.8" y="506.24"/>
    </contour>
  </outline>
</glyph>
<glyph name="asciitilde" format="2">
  <advance width="382.84"/>
  <unicode hex="007E"/>
  <outline>
    <contour>
      <point x="324.84" y="239.1" type="curve"/>
      <point x="346.04" y="376.76" type="line"/>
      <point x="320.15999999999997" y="352.48"/>
      <point x="297.56" y="344.06"/>
      <point x="273.4" y="344.06" type="curve" smooth="yes"/>
      <point x="215.24" y="344.06"/>
      <point x="208.4" y="416.04"/>
      <point x="147.96" y="416.04" type="curve" smooth="yes"/>
      <point x="113.06" y="416.04"/>
      <point x="76.84" y="393.28"/>
      <point x="70.02" y="384.04" type="curve"/>
      <point x="48.82" y="246.38" type="line"/>
      <point x="55.92" y="256.04"/>
      <point x="92.14" y="279.08"/>
      <point x="126.62" y="279.08" type="curve" smooth="yes"/>
      <point x="185.8" y="279.08"/>
      <point x="192.78" y="207.1"/>
      <point x="252.2" y="207.1" type="curve" smooth="yes"/>
      <point x="276.78" y="207.1"/>
      <point x="299.24" y="215.24"/>
    </contour>
  </outline>
</glyph>
<glyph name="cent" format="2">
  <advance width="396.2"/>
  <unicode hex="00A2"/>
  <outline>
    <contour>
      <point x="100.6" y="-105.86" type="line"/>
      <point x="227.82" y="-105.86" type="line"/>
      <point x="243.68" y="-3.12" type="line"/>
      <point x="265.7" y="0.4599999999999991"/>
      <point x="286.0" y="5.9"/>
      <point x="298.28" y="13.48" type="curve"/>
      <point x="297.86" y="167.07999999999998" type="line"/>
      <point x="281.28" y="162.94"/>
      <point x="262.28" y="157.5"/>
      <point x="247.12" y="157.5" type="curve" smooth="yes"/>
      <point x="218.04" y="157.5"/>
      <point x="210.78" y="185.6"/>
      <point x="210.78" y="219.62" type="curve" smooth="yes"/>
      <point x="210.78" y="291.54"/>
      <point x="226.6" y="388.56"/>
      <point x="284.98" y="388.56" type="curve" smooth="yes"/>
      <point x="299.42" y="388.56"/>
      <point x="314.0" y="386.42"/>
      <point x="326.14" y="381.56" type="curve"/>
      <point x="375.28" y="541.46" type="line"/>
      <point x="364.28" y="546.18"/>
      <point x="349.26" y="550.04"/>
      <point x="332.38" y="552.76" type="curve"/>
      <point x="348.38" y="651.34" type="line"/>
      <point x="221.16" y="651.34" type="line"/>
      <point x="203.44" y="540.72" type="line"/>
      <point x="94.5" y="479.68"/>
      <point x="57.62" y="286.48"/>
      <point x="57.62" y="153.7" type="curve" smooth="yes"/>
      <point x="57.62" y="70.58"/>
      <point x="80.74" y="25.38"/>
      <point x="117.18" y="4.76" type="curve"/>
    </contour>
  </outline>
</glyph>
<glyph name="sterling" format="2">
  <advance width="396.2"/>
  <unicode hex="00A3"/>
  <outline>
    <contour>
      <point x="12.120000000000001" y="0.0" type="line"/>
      <point x="299.28" y="0.0" type="line"/>
      <point x="321.2" y="140.4" type="line"/>
      <point x="200.51999999999998" y="140.4" type="line"/>
      <point x="236.32" y="186.0"/>
      <point x="261.56" y="234.48000000000002"/>
      <point x="261.56" y="301.88" type="curve" smooth="yes"/>
      <point x="261.56" y="346.96"/>
      <point x="250.72" y="401.12"/>
      <point x="250.72" y="443.76" type="curve" smooth="yes"/>
      <point x="250.72" y="519.48"/>
      <point x="281.76" y="553.4"/>
      <point x="324.92" y="553.4" type="curve" smooth="yes"/>
      <point x="338.04" y="553.4"/>
      <point x="350.59999999999997" y="551.84"/>
      <point x="365.88" y="544.28" type="curve"/>
      <point x="409.28000000000003" y="679.24" type="line"/>
      <point x="383.24" y="699.5600000000001"/>
      <point x="342.88" y="710.0"/>
      <point x="308.4" y="710.0" type="curve" smooth="yes"/>
      <point x="167.88" y="710.0"/>
      <point x="112.32000000000001" y="578.08"/>
      <point x="112.32000000000001" y="463.52" type="curve" smooth="yes"/>
      <point x="112.32000000000001" y="395.44"/>
      <point x="130.76" y="340.2"/>
      <point x="130.76" y="283.84" type="curve" smooth="yes"/>
      <point x="130.76" y="207.84"/>
      <point x="79.16000000000001" y="145.44"/>
      <point x="27.6" y="104.28" type="curve"/>
    </contour>
    <contour>
      <point x="58.279999999999994" y="315.04" type="line"/>
      <point x="327.64" y="315.04" type="line"/>
      <point x="340.24" y="398.76" type="line"/>
      <point x="71.16000000000001" y="398.76" type="line"/>
    </contour>
  </outline>
</glyph>
<glyph name="currency" format="2">
  <advance width="381.16"/>
  <unicode hex="00A4"/>
  <outline>
    <contour>
      <point x="82.06" y="100.1" type="line"/>
      <point x="139.7" y="155.32" type="line"/>
      <point x="148.96" y="150.8"/>
      <point x="160.2" y="149.26"/>
      <point x="173.0" y="149.26" type="curve" smooth="yes"/>
      <point x="184.08" y="149.26"/>
      <point x="195.02" y="150.8"/>
      <point x="205.26" y="154.46" type="curve"/>
      <point x="246.64" y="100.1" type="line"/>
      <point x="350.36" y="199.24" type="line"/>
      <point x="316.58" y="244.14" type="line"/>
      <point x="325.52" y="260.1"/>
      <point x="331.48" y="277.74"/>
      <point x="333.2" y="295.8" type="curve" smooth="yes"/>
      <point x="334.92" y="309.48"/>
      <point x="334.08" y="323.6"/>
      <point x="331.68" y="337.3" type="curve"/>
      <point x="379.86" y="382.2" type="line"/>
      <point x="306.94" y="481.34" type="line"/>
      <point x="251.02" y="429.56" type="line"/>
      <point x="241.62" y="433.22"/>
      <point x="230.38" y="435.76"/>
      <point x="218.44" y="435.76" type="curve" smooth="yes"/>
      <point x="204.78" y="435.76"/>
      <point x="192.12" y="432.36"/>
      <point x="180.16" y="428.7" type="curve"/>
      <point x="142.36" y="481.34" type="line"/>
      <point x="37.2" y="382.2" type="line"/>
      <point x="73.14" y="333.14" type="line"/>
      <point x="65.92" y="319.62"/>
      <point x="60.96" y="304.7"/>
      <point x="59.24" y="289.22" type="curve" smooth="yes"/>
      <point x="57.519999999999996" y="275.4"/>
      <point x="57.5" y="261.14"/>
      <point x="59.900000000000006" y="248.3" type="curve"/>
      <point x="7.7" y="199.24" type="line"/>
    </contour>
    <contour>
      <point x="189.9" y="250.95999999999998" type="curve" smooth="yes"/>
      <point x="168.28" y="250.95999999999998"/>
      <point x="156.36" y="265.15999999999997"/>
      <point x="158.94" y="288.78" type="curve" smooth="yes"/>
      <point x="161.51999999999998" y="313.48"/>
      <point x="179.38" y="333.2"/>
      <point x="202.54" y="333.2" type="curve" smooth="yes"/>
      <point x="224.3" y="333.2"/>
      <point x="235.22" y="316.42"/>
      <point x="232.64" y="294.38" type="curve" smooth="yes"/>
      <point x="230.06" y="268.1"/>
      <point x="213.2" y="250.95999999999998"/>
    </contour>
  </outline>
</glyph>
<glyph name="yen" format="2">
  <advance width="396.2"/>
  <unicode hex="00A5"/>
  <outline>
    <contour>
      <point x="51.8" y="293.67999999999995" type="line"/>
      <point x="130.0" y="293.67999999999995" type="line"/>
      <point x="125.03999999999999" y="260.04" type="line"/>
      <point x="47.12" y="260.04" type="line"/>
      <point x="33.96" y="176.60000000000002" type="line"/>
      <point x="112.16" y="176.60000000000002" type="line"/>
      <point x="83.60000000000001" y="0.0" type="line"/>
      <point x="225.44" y="0.0" type="line"/>
      <point x="254.72" y="176.60000000000002" type="line"/>
      <point x="332.76" y="176.60000000000002" type="line"/>
      <point x="345.64" y="260.04" type="line"/>
      <point x="266.88" y="260.04" type="line"/>
      <point x="271.84" y="293.67999999999995" type="line"/>
      <point x="351.32" y="293.67999999999995" type="line"/>
      <point x="364.2" y="377.12" type="line"/>
      <point x="285.72" y="377.12" type="line"/>
      <point x="447.44" y="701.0" type="line"/>
      <point x="293.56" y="701.12" type="line"/>
      <point x="231.12" y="481.64" type="line"/>
      <point x="237.64000000000001" y="700.28" type="line"/>
      <point x="83.75999999999999" y="700.0" type="line"/>
      <point x="143.6" y="377.12" type="line"/>
      <point x="64.67999999999999" y="377.12" type="line"/>
    </contour>
  </outline>
</glyph>
<glyph name="brokenbar" format="2">
  <advance width="158.6"/>
  <unicode hex="00A6"/>
  <outline>
    <contour>
      <point x="159.98000000000002" y="391.0" type="line"/>
      <point x="225.7" y="790.86" type="line"/>
      <point x="101.92" y="790.86" type="line"/>
      <point x="36.2" y="391.0" type="line"/>
    </contour>
    <contour>
      <point x="2.620000000000001" y="190.86" type="line"/>
      <point x="-62.099999999999994" y="-210.0" type="line"/>
      <point x="61.67999999999999" y="-210.0" type="line"/>
      <point x="127.26" y="190.86" type="line"/>
    </contour>
  </outline>
</glyph>
<glyph name="section" format="2">
  <advance width="394.68"/>
  <unicode hex="00A7"/>
  <outline>
    <contour>
      <point x="9.76" y="-24.52000000000001" type="curve"/>
      <point x="-44.8" y="-185.0" type="line"/>
      <point x="-14.36" y="-206.7"/>
      <point x="50.36" y="-220.0"/>
      <point x="79.06" y="-220.0" type="curve" smooth="yes"/>
      <point x="263.58" y="-220.0"/>
      <point x="348.96" y="-6.859999999999999"/>
      <point x="348.96" y="156.46" type="curve" smooth="yes"/>
      <point x="348.96" y="277.54"/>
      <point x="287.34000000000003" y="380.52"/>
      <point x="287.34000000000003" y="493.65999999999997" type="curve" smooth="yes"/>
      <point x="287.34000000000003" y="536.4"/>
      <point x="304.58" y="576.78"/>
      <point x="339.98" y="576.78" type="curve" smooth="yes"/>
      <point x="350.84000000000003" y="576.78"/>
      <point x="356.68" y="572.06"/>
      <point x="368.82" y="565.06" type="curve"/>
      <point x="427.98" y="723.52" type="line"/>
      <point x="405.96" y="741.7"/>
      <point x="351.12" y="749.86"/>
      <point x="325.52" y="749.86" type="curve" smooth="yes"/>
      <point x="123.96000000000001" y="749.86"/>
      <point x="44.86" y="555.0"/>
      <point x="44.86" y="379.5" type="curve" smooth="yes"/>
      <point x="44.86" y="238.28"/>
      <point x="106.34" y="106.97999999999999"/>
      <point x="106.34" y="9.719999999999999" type="curve" smooth="yes"/>
      <point x="106.34" y="-17.560000000000002"/>
      <point x="92.4" y="-47.920000000000016"/>
      <point x="62.74" y="-47.920000000000016" type="curve" smooth="yes"/>
      <point x="44.46" y="-47.920000000000016"/>
      <point x="25.759999999999998" y="-41.94"/>
    </contour>
    <contour>
      <point x="267.62" y="652.62" type="curve"/>
      <point x="210.8" y="603.54"/>
      <point x="191.22" y="530.32"/>
      <point x="191.22" y="469.28" type="curve" smooth="yes"/>
      <point x="191.22" y="354.08"/>
      <point x="247.54" y="245.44"/>
      <point x="247.54" y="131.86" type="curve" smooth="yes"/>
      <point x="247.54" y="20.560000000000002"/>
      <point x="190.18" y="-114.1"/>
      <point x="90.94" y="-126.64" type="curve"/>
      <point x="176.7" y="-93.5"/>
      <point x="204.32" y="-13.219999999999999"/>
      <point x="204.32" y="58.859999999999985" type="curve" smooth="yes"/>
      <point x="204.32" y="174.76"/>
      <point x="146.28" y="281.2"/>
      <point x="146.28" y="397.16" type="curve" smooth="yes"/>
      <point x="146.28" y="495.64"/>
      <point x="181.64" y="607.02"/>
    </contour>
  </outline>
</glyph>
<glyph name="copyright" format="2">
  <advance width="600.62"/>
  <unicode hex="00A9"/>
  <outline>
    <contour>
      <point x="276.88" y="-10.0" type="curve" smooth="yes"/>
      <point x="485.76" y="-10.0"/>
      <point x="586.3" y="207.84"/>
      <point x="586.3" y="448.82" type="curve" smooth="yes"/>
      <point x="586.3" y="625.4"/>
      <point x="495.79999999999995" y="710.42"/>
      <point x="347.02" y="710.42" type="curve" smooth="yes"/>
      <point x="138.0" y="710.42"/>
      <point x="37.46" y="492.58"/>
      <point x="37.46" y="251.6" type="curve" smooth="yes"/>
      <point x="37.46" y="75.02"/>
      <point x="127.96" y="-10.0"/>
    </contour>
    <contour>
      <point x="295.1" y="119.56" type="curve" smooth="yes"/>
      <point x="316.72" y="119.56"/>
      <point x="344.62" y="125.0"/>
      <point x="359.64" y="134.74" type="curve"/>
      <point x="359.64" y="219.82" type="line"/>
      <point x="351.06" y="216.1"/>
      <point x="338.36" y="213.38"/>
      <point x="328.2" y="213.38" type="curve" smooth="yes"/>
      <point x="303.34000000000003" y="213.38"/>
      <point x="286.6" y="240.96"/>
      <point x="286.6" y="288.84" type="curve" smooth="yes"/>
      <point x="286.6" y="383.34"/>
      <point x="316.72" y="474.06"/>
      <point x="362.58" y="474.06" type="curve" smooth="yes"/>
      <point x="370.86" y="474.06"/>
      <point x="379.58" y="472.34"/>
      <point x="386.72" y="467.62" type="curve"/>
      <point x="416.79999999999995" y="566.46" type="line"/>
      <point x="407.08" y="572.9"/>
      <point x="390.2" y="579.06"/>
      <point x="362.0" y="579.06" type="curve" smooth="yes"/>
      <point x="275.18" y="579.06"/>
      <point x="187.76" y="459.08"/>
      <point x="187.76" y="288.84" type="curve" smooth="yes"/>
      <point x="187.76" y="174.22"/>
      <point x="227.7" y="119.56"/>
    </contour>
    <contour>
      <point x="281.18" y="37.239999999999995" type="curve" smooth="yes"/>
      <point x="162.18" y="37.239999999999995"/>
      <point x="87.42" y="104.36"/>
      <point x="87.42" y="251.44" type="curve" smooth="yes"/>
      <point x="87.42" y="461.24"/>
      <point x="166.76" y="663.18"/>
      <point x="342.58" y="663.18" type="curve" smooth="yes"/>
      <point x="461.58" y="663.18"/>
      <point x="536.3399999999999" y="596.06"/>
      <point x="536.3399999999999" y="448.98" type="curve" smooth="yes"/>
      <point x="536.3399999999999" y="239.18"/>
      <point x="457.0" y="37.239999999999995"/>
    </contour>
  </outline>
</glyph>
<glyph name="ordfeminine" format="2">
  <advance width="261.8"/>
  <unicode hex="00AA"/>
  <outline>
    <contour>
      <point x="21.080000000000002" y="249.54" type="line"/>
      <point x="235.5" y="249.54" type="line"/>
      <point x="247.1" y="325.74" type="line"/>
      <point x="32.68" y="325.74" type="line"/>
    </contour>
    <component base="a.superior" xOffset="8.28"/>
  </outline>
</glyph>
<glyph name="logicalnot" format="2">
  <advance width="380.28"/>
  <unicode hex="00AC"/>
  <outline>
    <contour>
      <point x="47.1" y="309.46000000000004" type="line"/>
      <point x="209.0" y="309.46000000000004" type="line"/>
      <point x="189.76" y="178.72" type="line"/>
      <point x="323.14" y="178.72" type="line"/>
      <point x="364.3" y="440.98" type="line"/>
      <point x="69.02" y="440.98" type="line"/>
    </contour>
  </outline>
</glyph>
<glyph name="registered" format="2">
  <advance width="566.4"/>
  <unicode hex="00AE"/>
  <outline>
    <contour>
      <point x="289.1" y="208.0" type="curve" smooth="yes"/>
      <point x="462.38" y="208.0"/>
      <point x="582.94" y="383.38"/>
      <point x="582.94" y="631.7" type="curve" smooth="yes"/>
      <point x="582.94" y="798.24"/>
      <point x="508.34000000000003" y="893.28"/>
      <point x="364.44" y="893.28" type="curve" smooth="yes"/>
      <point x="191.16" y="893.28"/>
      <point x="70.6" y="717.9"/>
      <point x="70.6" y="469.58" type="curve" smooth="yes"/>
      <point x="70.6" y="303.04"/>
      <point x="145.2" y="208.0"/>
    </contour>
    <contour>
      <point x="292.53999999999996" y="252.38" type="curve" smooth="yes"/>
      <point x="177.7" y="252.38"/>
      <point x="115.97999999999999" y="332.24"/>
      <point x="115.97999999999999" y="467.28" type="curve" smooth="yes"/>
      <point x="115.97999999999999" y="690.86"/>
      <point x="213.34" y="848.9"/>
      <point x="361.0" y="848.9" type="curve" smooth="yes"/>
      <point x="475.84000000000003" y="848.9"/>
      <point x="537.56" y="769.04"/>
      <point x="537.56" y="634.0" type="curve" smooth="yes"/>
      <point x="537.56" y="410.42"/>
      <point x="440.2" y="252.38"/>
    </contour>
    <contour>
      <point x="195.12" y="349.66" type="line"/>
      <point x="284.36" y="349.66" type="line"/>
      <point x="304.64" y="477.64" type="line"/>
      <point x="307.76" y="477.36"/>
      <point x="310.88" y="477.08"/>
      <point x="315.28" y="477.22" type="curve"/>
      <point x="314.82" y="484.52" type="line"/>
      <point x="398.41999999999996" y="486.9"/>
      <point x="455.41999999999996" y="553.68"/>
      <point x="455.41999999999996" y="654.72" type="curve" smooth="yes"/>
      <point x="455.41999999999996" y="730.94"/>
      <point x="417.34000000000003" y="772.6"/>
      <point x="352.5" y="772.6" type="curve" smooth="yes"/>
      <point x="316.0" y="772.6"/>
      <point x="289.52" y="769.74"/>
      <point x="261.18" y="765.74" type="curve"/>
    </contour>
    <contour>
      <point x="325.64" y="552.42" type="curve" smooth="yes"/>
      <point x="322.65999999999997" y="552.42"/>
      <point x="319.24" y="553.56"/>
      <point x="316.1" y="554.56" type="curve"/>
      <point x="338.1" y="686.52" type="line"/>
      <point x="342.65999999999997" y="687.66"/>
      <point x="346.94" y="688.66"/>
      <point x="350.78" y="688.66" type="curve" smooth="yes"/>
      <point x="361.76" y="688.66"/>
      <point x="367.18" y="675.24"/>
      <point x="367.18" y="655.0" type="curve" smooth="yes"/>
      <point x="367.18" y="603.04"/>
      <point x="346.18" y="552.42"/>
    </contour>
    <contour>
      <point x="384.44" y="344.08" type="curve" smooth="yes"/>
      <point x="391.74" y="344.08"/>
      <point x="408.5" y="346.8"/>
      <point x="415.65999999999997" y="350.38" type="curve"/>
      <point x="426.12" y="449.22" type="line"/>
      <point x="424.12" y="448.94"/>
      <point x="422.12" y="448.94"/>
      <point x="420.26" y="448.94" type="curve" smooth="yes"/>
      <point x="398.94" y="448.94"/>
      <point x="385.46000000000004" y="469.34"/>
      <point x="379.46000000000004" y="519.46" type="curve"/>
      <point x="307.7" y="498.4" type="line"/>
      <point x="327.18" y="351.92"/>
      <point x="350.68" y="344.08"/>
    </contour>
  </outline>
</glyph>
<glyph name="degree" format="2">
  <advance width="279.53999999999996"/>
  <unicode hex="00B0"/>
  <outline>
    <contour>
      <point x="158.92" y="392.72" type="curve" smooth="yes"/>
      <point x="264.24" y="392.72"/>
      <point x="305.68" y="512.34"/>
      <point x="305.68" y="597.54" type="curve" smooth="yes"/>
      <point x="305.68" y="662.32"/>
      <point x="279.8" y="712.52"/>
      <point x="209.12" y="712.52" type="curve" smooth="yes"/>
      <point x="104.38" y="712.52"/>
      <point x="61.5" y="594.2"/>
      <point x="61.5" y="509.0" type="curve" smooth="yes"/>
      <point x="61.5" y="441.06"/>
      <point x="91.54" y="392.72"/>
    </contour>
    <contour>
      <point x="175.68" y="503.88" type="curve" smooth="yes"/>
      <point x="162.01999999999998" y="503.88"/>
      <point x="155.18" y="515.84"/>
      <point x="155.18" y="535.08" type="curve" smooth="yes"/>
      <point x="155.18" y="562.7"/>
      <point x="165.7" y="597.92"/>
      <point x="190.64" y="597.92" type="curve" smooth="yes"/>
      <point x="205.16" y="597.92"/>
      <point x="212.0" y="585.6800000000001"/>
      <point x="212.0" y="567.3" type="curve" smooth="yes"/>
      <point x="212.0" y="540.4"/>
      <point x="200.62" y="503.88"/>
    </contour>
  </outline>
</glyph>
<glyph name="plusminus" format="2">
  <advance width="380.56"/>
  <unicode hex="00B1"/>
  <outline>
    <contour>
      <point x="296.66" y="10.36" type="line"/>
      <point x="318.58" y="150.62" type="line"/>
      <point x="233.56" y="150.62" type="line"/>
      <point x="249.36" y="249.12" type="line"/>
      <point x="334.24" y="249.12" type="line"/>
      <point x="356.15999999999997" y="389.38" type="line"/>
      <point x="271.28" y="389.38" type="line"/>
      <point x="287.94" y="490.82" type="line"/>
      <point x="161.44" y="490.82" type="line"/>
      <point x="144.92000000000002" y="389.38" type="line"/>
      <point x="59.76" y="389.38" type="line"/>
      <point x="37.84" y="249.12" type="line"/>
      <point x="122.86" y="249.12" type="line"/>
      <point x="107.06" y="150.62" type="line"/>
      <point x="22.18" y="150.62" type="line"/>
      <point x="0.2599999999999998" y="10.36" type="line"/>
    </contour>
  </outline>
</glyph>
<glyph name="uni00B2" format="2">
  <advance width="238.28"/>
  <unicode hex="00B2"/>
  <outline>
    <contour>
      <point x="39.519999999999996" y="369.58" type="line"/>
      <point x="222.18" y="369.58" type="line"/>
      <point x="235.36" y="441.62" type="line"/>
      <point x="145.51999999999998" y="441.62" type="line"/>
      <point x="211.68" y="522.52"/>
      <point x="273.38" y="598.36"/>
      <point x="273.38" y="691.5" type="curve" smooth="yes"/>
      <point x="273.38" y="740.54"/>
      <point x="244.9" y="773.86"/>
      <point x="193.68" y="773.86" type="curve" smooth="yes"/>
      <point x="153.9" y="773.86"/>
      <point x="118.56" y="760.42"/>
      <point x="90.24" y="740.0" type="curve"/>
      <point x="106.26" y="648.16" type="line"/>
      <point x="121.24" y="658.12"/>
      <point x="133.68" y="663.98"/>
      <point x="149.54" y="663.98" type="curve" smooth="yes"/>
      <point x="164.96" y="663.98"/>
      <point x="170.52" y="652.0"/>
      <point x="170.52" y="636.76" type="curve" smooth="yes"/>
      <point x="170.38" y="587.18"/>
      <point x="86.48" y="472.1"/>
      <point x="50.56" y="435.18" type="curve"/>
    </contour>
  </outline>
</glyph>
<glyph name="uni00B3" format="2">
  <advance width="252.44"/>
  <unicode hex="00B3"/>
  <outline>
    <contour>
      <point x="38.24" y="392.86" type="line"/>
      <point x="60.28" y="376.44"/>
      <point x="82.44" y="365.72"/>
      <point x="122.36" y="365.72" type="curve" smooth="yes"/>
      <point x="186.8" y="365.72"/>
      <point x="255.8" y="415.62"/>
      <point x="255.8" y="506.94" type="curve" smooth="yes"/>
      <point x="255.8" y="550.14"/>
      <point x="236.04" y="569.42"/>
      <point x="217.74" y="581.58" type="curve"/>
      <point x="257.08" y="607.76"/>
      <point x="283.96" y="641.54"/>
      <point x="283.96" y="696.26" type="curve" smooth="yes"/>
      <point x="283.96" y="747.84"/>
      <point x="247.48" y="775.72"/>
      <point x="197.12" y="775.72" type="curve" smooth="yes"/>
      <point x="161.04" y="775.72"/>
      <point x="126.7" y="763.98"/>
      <point x="99.24" y="744.4" type="curve"/>
      <point x="114.54" y="673.06" type="line"/>
      <point x="124.24" y="679.04"/>
      <point x="141.68" y="683.9"/>
      <point x="156.7" y="683.9" type="curve" smooth="yes"/>
      <point x="179.72" y="683.9"/>
      <point x="188.7" y="670.48"/>
      <point x="188.7" y="652.26" type="curve" smooth="yes"/>
      <point x="188.7" y="628.66"/>
      <point x="169.42" y="607.5"/>
      <point x="148.44" y="607.5" type="curve" smooth="yes"/>
      <point x="125.44" y="607.5" type="line"/>
      <point x="113.12" y="540.04" type="line"/>
      <point x="140.98" y="540.04" type="line" smooth="yes"/>
      <point x="160.28" y="540.04"/>
      <point x="171.0" y="525.62"/>
      <point x="171.0" y="507.24" type="curve" smooth="yes"/>
      <point x="171.0" y="478.92"/>
      <point x="154.58" y="453.24"/>
      <point x="122.5" y="453.24" type="curve" smooth="yes"/>
      <point x="107.36" y="453.24"/>
      <point x="97.08" y="456.8"/>
      <point x="82.2" y="467.5" type="curve"/>
    </contour>
  </outline>
</glyph>
<glyph name="uni00B5" format="2">
  <advance width="374.52"/>
  <unicode hex="00B5"/>
  <outline>
    <contour>
      <point x="-53.8" y="-210.0" type="line"/>
      <point x="86.32" y="-210.0" type="line"/>
      <point x="118.88" y="-6.219999999999999" type="line"/>
      <point x="121.0" y="-8.879999999999999"/>
      <point x="123.52" y="-10.0"/>
      <point x="127.46000000000001" y="-10.0" type="curve" smooth="yes"/>
      <point x="145.86" y="-10.0"/>
      <point x="168.42000000000002" y="0.0"/>
      <point x="190.54" y="32.04" type="curve"/>
      <point x="200.42000000000002" y="11.04"/>
      <point x="226.46" y="-10.0"/>
      <point x="260.94" y="-10.0" type="curve" smooth="yes"/>
      <point x="286.14" y="-10.0"/>
      <point x="316.18" y="-0.8399999999999999"/>
      <point x="333.34000000000003" y="12.9" type="curve"/>
      <point x="351.56" y="137.84" type="line"/>
      <point x="347.3" y="136.28"/>
      <point x="342.18" y="135.85999999999999"/>
      <point x="339.48" y="135.85999999999999" type="curve" smooth="yes"/>
      <point x="331.08" y="135.85999999999999"/>
      <point x="327.94" y="141.56"/>
      <point x="327.94" y="152.56" type="curve" smooth="yes"/>
      <point x="327.94" y="158.39999999999998"/>
      <point x="329.22" y="168.22"/>
      <point x="390.46000000000004" y="547.2" type="curve"/>
      <point x="251.06" y="547.2" type="line"/>
      <point x="185.24" y="142.92000000000002" type="line"/>
      <point x="176.3" y="135.68"/>
      <point x="168.82" y="132.56"/>
      <point x="160.42000000000002" y="132.56" type="curve" smooth="yes"/>
      <point x="149.48000000000002" y="132.56"/>
      <point x="143.94" y="140.95999999999998"/>
      <point x="145.66" y="153.34" type="curve" smooth="yes"/>
      <point x="165.44" y="255.62"/>
      <point x="184.14" y="399.48"/>
      <point x="207.48000000000002" y="547.2" type="curve"/>
      <point x="67.22" y="547.2" type="line"/>
    </contour>
  </outline>
</glyph>
<glyph name="paragraph" format="2">
  <advance width="492.9"/>
  <unicode hex="00B6"/>
  <outline>
    <contour>
      <point x="279.08" y="-210.0" type="line"/>
      <point x="388.24" y="-210.0" type="line"/>
      <point x="540.8199999999999" y="740.0" type="line"/>
      <point x="431.65999999999997" y="740.0" type="line"/>
    </contour>
    <contour>
      <point x="217.14" y="351.52" type="line"/>
      <point x="198.54" y="356.91999999999996"/>
      <point x="181.56" y="388.84000000000003"/>
      <point x="181.56" y="440.02" type="curve" smooth="yes"/>
      <point x="181.56" y="506.04"/>
      <point x="204.95999999999998" y="595.6"/>
      <point x="267.76" y="598.16" type="curve"/>
      <point x="138.82" y="-210.0" type="line"/>
      <point x="247.98000000000002" y="-210.0" type="line"/>
      <point x="400.56" y="740.0" type="line"/>
      <point x="333.24" y="740.0" type="line" smooth="yes"/>
      <point x="153.54" y="740.0"/>
      <point x="55.2" y="595.46"/>
      <point x="55.2" y="427.98" type="curve" smooth="yes"/>
      <point x="55.2" y="337.7"/>
      <point x="95.1" y="269.4"/>
      <point x="183.76" y="246.38" type="curve"/>
    </contour>
  </outline>
</glyph>
<glyph name="periodcentered" format="2">
  <advance width="176.0"/>
  <unicode hex="00B7"/>
  <outline>
    <contour>
      <point x="14.940000000000001" y="287.86" type="curve" smooth="yes"/>
      <point x="14.66" y="241.18"/>
      <point x="33.72" y="219.26"/>
      <point x="79.25999999999999" y="219.26" type="curve" smooth="yes"/>
      <point x="154.04" y="219.26"/>
      <point x="174.82" y="301.1"/>
      <point x="175.1" y="359.24" type="curve" smooth="yes"/>
      <point x="175.38" y="404.06"/>
      <point x="156.45999999999998" y="426.12"/>
      <point x="111.78" y="426.12" type="curve" smooth="yes"/>
      <point x="37.86" y="426.12"/>
      <point x="15.219999999999999" y="346.0"/>
    </contour>
  </outline>
</glyph>
<glyph name="uni00B9" format="2">
  <advance width="217.9"/>
  <unicode hex="00B9"/>
  <outline>
    <contour>
      <point x="34.82" y="370.0" type="line"/>
      <point x="216.8" y="370.0" type="line"/>
      <point x="231.7" y="450.64" type="line"/>
      <point x="187.9" y="450.64" type="line"/>
      <point x="243.74" y="768.28" type="line"/>
      <point x="198.34" y="768.28" type="line"/>
      <point x="89.54" y="734.54" type="line"/>
      <point x="90.66" y="642.28" type="line"/>
      <point x="134.88" y="656.72" type="line"/>
      <point x="98.66" y="450.64" type="line"/>
      <point x="48.14" y="450.64" type="line"/>
    </contour>
  </outline>
</glyph>
<glyph name="ordmasculine" format="2">
  <advance width="239.01999999999998"/>
  <unicode hex="00BA"/>
  <outline>
    <contour>
      <point x="21.22" y="249.54" type="line"/>
      <point x="213.06" y="249.54" type="line"/>
      <point x="224.51999999999998" y="325.74" type="line"/>
      <point x="32.68" y="325.74" type="line"/>
    </contour>
    <component base="o.superior" xOffset="9.4"/>
  </outline>
</glyph>
<glyph name="AE" format="2">
  <advance width="518.3"/>
  <unicode hex="00C6"/>
  <anchor x="218.70184" y="0.0" name="bottom"/>
  <anchor x="331.3" y="700.0" name="top"/>
  <outline>
    <contour>
      <point x="181.66" y="0.0" type="line"/>
      <point x="464.15999999999997" y="0.0" type="line"/>
      <point x="486.08" y="138.54" type="line"/>
      <point x="345.56" y="138.54" type="line"/>
      <point x="367.9" y="282.4" type="line"/>
      <point x="478.68" y="282.4" type="line"/>
      <point x="500.6" y="412.34" type="line"/>
      <point x="388.96000000000004" y="412.34" type="line"/>
      <point x="411.72" y="557.16" type="line"/>
      <point x="543.24" y="557.16" type="line"/>
      <point x="567.02" y="700.0" type="line"/>
      <point x="186.78" y="700.0" type="line"/>
      <point x="-42.88" y="0.0" type="line"/>
      <point x="101.1" y="0.0" type="line"/>
      <point x="142.5" y="129.32" type="line"/>
      <point x="201.84" y="129.32" type="line"/>
    </contour>
    <contour>
      <point x="180.6" y="269.58" type="line"/>
      <point x="273.9" y="586.84" type="line"/>
      <point x="223.76" y="269.58" type="line"/>
    </contour>
  </outline>
</glyph>
<glyph name="multiply" format="2">
  <advance width="375.04"/>
  <unicode hex="00D7"/>
  <outline>
    <contour>
      <point x="104.8" y="150.1" type="line"/>
      <point x="181.22" y="233.32" type="line"/>
      <point x="232.04" y="150.1" type="line"/>
      <point x="336.9" y="248.54" type="line"/>
      <point x="286.24" y="333.58" type="line"/>
      <point x="364.2" y="418.9" type="line"/>
      <point x="289.72" y="517.34" type="line"/>
      <point x="213.01999999999998" y="433.84000000000003" type="line"/>
      <point x="162.2" y="517.34" type="line"/>
      <point x="56.480000000000004" y="418.9" type="line"/>
      <point x="107.86" y="333.72" type="line"/>
      <point x="29.46" y="248.54" type="line"/>
    </contour>
  </outline>
</glyph>
<glyph name="Oslash" format="2">
  <advance width="400.48"/>
  <unicode hex="00D8"/>
  <anchor x="264.04" y="700.0" name="top"/>
  <outline>
    <contour>
      <point x="438.68" y="710.0" type="line"/>
      <point x="378.28" y="710.0" type="line"/>
      <point x="321.24" y="610.2" type="line"/>
      <point x="315.8" y="611.92" type="line"/>
      <point x="80.32" y="164.64" type="line"/>
      <point x="76.6" y="166.64" type="line"/>
      <point x="-18.04" y="-1.4000000000000004" type="line"/>
      <point x="41.64" y="-1.4000000000000004" type="line"/>
      <point x="100.0" y="100.6" type="line"/>
      <point x="105.44" y="98.88" type="line"/>
      <point x="338.15999999999997" y="539.9200000000001" type="line"/>
      <point x="341.88" y="537.92" type="line"/>
    </contour>
    <contour>
      <point x="168.92000000000002" y="-10.0" type="curve" smooth="yes"/>
      <point x="356.4" y="-10.0"/>
      <point x="408.08000000000004" y="302.56"/>
      <point x="408.08000000000004" y="514.84" type="curve" smooth="yes"/>
      <point x="408.08000000000004" y="648.48"/>
      <point x="364.03999999999996" y="710.0"/>
      <point x="251.0" y="710.0" type="curve" smooth="yes"/>
      <point x="69.96000000000001" y="710.0"/>
      <point x="11.84" y="397.44"/>
      <point x="11.84" y="185.44" type="curve" smooth="yes"/>
      <point x="11.84" y="51.519999999999996"/>
      <point x="55.88" y="-10.0"/>
    </contour>
    <contour>
      <point x="179.23999999999998" y="131.84" type="curve" smooth="yes"/>
      <point x="157.32" y="131.84"/>
      <point x="147.8" y="145.64"/>
      <point x="147.8" y="180.0" type="curve" smooth="yes"/>
      <point x="147.8" y="270.36"/>
      <point x="191.2" y="568.1600000000001"/>
      <point x="244.83999999999997" y="568.1600000000001" type="curve" smooth="yes"/>
      <point x="265.04" y="568.1600000000001"/>
      <point x="273.84000000000003" y="554.6400000000001"/>
      <point x="273.84000000000003" y="522.72" type="curve" smooth="yes"/>
      <point x="273.84000000000003" y="439.24"/>
      <point x="228.0" y="131.84"/>
    </contour>
  </outline>
</glyph>
<glyph name="Thorn" format="2">
  <advance width="384.18"/>
  <unicode hex="00DE"/>
  <outline>
    <contour>
      <point x="-19.06" y="0.0" type="line"/>
      <point x="122.92" y="0.0" type="line"/>
      <point x="137.44" y="92.4" type="line"/>
      <point x="161.06" y="88.82000000000001"/>
      <point x="166.72" y="88.82000000000001"/>
      <point x="186.16" y="88.82000000000001" type="curve" smooth="yes"/>
      <point x="304.1" y="88.82000000000001"/>
      <point x="393.76" y="244.66"/>
      <point x="393.76" y="442.16" type="curve" smooth="yes"/>
      <point x="393.76" y="560.12"/>
      <point x="350.28" y="626.08"/>
      <point x="240.28" y="626.08" type="curve" smooth="yes"/>
      <point x="234.88" y="626.08"/>
      <point x="228.48000000000002" y="625.94"/>
      <point x="222.94" y="625.66" type="curve"/>
      <point x="234.64" y="700.0" type="line"/>
      <point x="92.66" y="700.0" type="line"/>
    </contour>
    <contour>
      <point x="179.86" y="224.78" type="curve" smooth="yes"/>
      <point x="173.06" y="224.78"/>
      <point x="168.22" y="224.92"/>
      <point x="161.94" y="226.78" type="curve"/>
      <point x="200.3" y="486.98" type="line"/>
      <point x="207.7" y="489.12"/>
      <point x="214.82" y="490.12"/>
      <point x="220.94" y="490.12" type="curve" smooth="yes"/>
      <point x="242.26" y="490.12"/>
      <point x="255.22" y="477.15999999999997"/>
      <point x="255.22" y="434.58" type="curve" smooth="yes"/>
      <point x="255.22" y="318.28"/>
      <point x="222.57999999999998" y="224.78"/>
    </contour>
  </outline>
</glyph>
<glyph name="germandbls" format="2">
  <advance width="520.5"/>
  <unicode hex="00DF"/>
  <outline>
    <contour>
      <point x="1.4000000000000004" y="-7.520000000000003" type="line" smooth="yes"/>
      <point x="-6.4399999999999995" y="-55.120000000000005"/>
      <point x="-22.14" y="-73.42000000000002"/>
      <point x="-46.6" y="-73.42000000000002" type="curve" smooth="yes"/>
      <point x="-55.58" y="-73.42000000000002"/>
      <point x="-64.0" y="-73.14000000000001"/>
      <point x="-79.14" y="-68.14000000000001" type="curve"/>
      <point x="-120.12" y="-203.54" type="line"/>
      <point x="-91.5" y="-214.56"/>
      <point x="-64.46000000000001" y="-220.0"/>
      <point x="-37.72" y="-220.0" type="curve" smooth="yes"/>
      <point x="69.14" y="-220.0"/>
      <point x="119.64" y="-153.24"/>
      <point x="142.38" y="-9.939999999999998" type="curve" smooth="yes"/>
      <point x="223.18" y="507.86" type="line" smooth="yes"/>
      <point x="232.57999999999998" y="567.54"/>
      <point x="264.58" y="606.3"/>
      <point x="319.14" y="606.3" type="curve" smooth="yes"/>
      <point x="356.6" y="606.3"/>
      <point x="373.02" y="594.88"/>
      <point x="373.02" y="574.82" type="curve" smooth="yes"/>
      <point x="373.02" y="553.04"/>
      <point x="364.18" y="540.1"/>
      <point x="317.02" y="513.46" type="curve" smooth="yes"/>
      <point x="263.0" y="482.4"/>
      <point x="226.66" y="435.66"/>
      <point x="226.66" y="354.16" type="curve" smooth="yes"/>
      <point x="226.66" y="278.48"/>
      <point x="265.72" y="243.94"/>
      <point x="312.2" y="217.32" type="curve" smooth="yes"/>
      <point x="349.24" y="195.68"/>
      <point x="355.65999999999997" y="186.46"/>
      <point x="355.65999999999997" y="170.68" type="curve" smooth="yes"/>
      <point x="355.65999999999997" y="148.56"/>
      <point x="333.44" y="131.26"/>
      <point x="295.78" y="131.26" type="curve" smooth="yes"/>
      <point x="265.03999999999996" y="131.26"/>
      <point x="233.85999999999999" y="137.26"/>
      <point x="206.39999999999998" y="146.39999999999998" type="curve"/>
      <point x="172.45999999999998" y="16.740000000000002" type="line"/>
      <point x="200.78" y="2.16"/>
      <point x="241.39999999999998" y="-10.0"/>
      <point x="299.08" y="-10.0" type="curve" smooth="yes"/>
      <point x="432.44" y="-10.0"/>
      <point x="503.65999999999997" y="62.74"/>
      <point x="503.65999999999997" y="185.86" type="curve" smooth="yes"/>
      <point x="503.65999999999997" y="261.12"/>
      <point x="469.44" y="297.28"/>
      <point x="422.1" y="323.32" type="curve" smooth="yes"/>
      <point x="375.76" y="349.36"/>
      <point x="365.91999999999996" y="357.58"/>
      <point x="365.91999999999996" y="376.08" type="curve" smooth="yes"/>
      <point x="365.91999999999996" y="393.98"/>
      <point x="375.32" y="407.48"/>
      <point x="428.78" y="431.52" type="curve" smooth="yes"/>
      <point x="486.1" y="457.84000000000003"/>
      <point x="527.76" y="500.3"/>
      <point x="527.76" y="590.0" type="curve" smooth="yes"/>
      <point x="527.76" y="690.44"/>
      <point x="454.6" y="750.0"/>
      <point x="331.32" y="750.0" type="curve" smooth="yes"/>
      <point x="181.34" y="750.0"/>
      <point x="107.22" y="668.38"/>
      <point x="86.36" y="531.94" type="curve" smooth="yes"/>
      <point x="84.96000000000001" y="522.7" type="line"/>
      <point x="43.86" y="515.84" type="line"/>
      <point x="22.94" y="391.04" type="line"/>
      <point x="63.760000000000005" y="391.04" type="line"/>
    </contour>
  </outline>
</glyph>
<glyph name="ae" format="2">
  <advance width="552.2"/>
  <unicode hex="00E6"/>
  <anchor x="242.79999999999998" y="0.0" name="bottom"/>
  <anchor x="326.84000000000003" y="547.1999999999999" name="top"/>
  <outline>
    <contour>
      <point x="106.75999999999999" y="-10.0" type="curve" smooth="yes"/>
      <point x="133.2" y="-10.0"/>
      <point x="153.64000000000001" y="-3.0"/>
      <point x="180.12" y="32.36" type="curve"/>
      <point x="174.39999999999998" y="-1.4000000000000004" type="line"/>
      <point x="300.88" y="-1.4000000000000004" type="line"/>
      <point x="307.28" y="39.84" type="line"/>
      <point x="330.04" y="10.800000000000004"/>
      <point x="363.72" y="-8.280000000000001"/>
      <point x="402.4" y="-8.280000000000001" type="curve" smooth="yes"/>
      <point x="437.56" y="-8.280000000000001"/>
      <point x="475.88" y="1.1599999999999997"/>
      <point x="508.64" y="25.48" type="curve"/>
      <point x="491.32" y="159.16" type="line"/>
      <point x="457.0" y="142.0"/>
      <point x="426.68" y="135.28"/>
      <point x="401.96" y="135.28" type="curve" smooth="yes"/>
      <point x="373.76" y="135.28"/>
      <point x="344.76" y="151.2"/>
      <point x="344.76" y="217.16" type="curve" smooth="yes"/>
      <point x="344.76" y="311.52"/>
      <point x="368.91999999999996" y="426.12"/>
      <point x="415.52" y="426.12" type="curve" smooth="yes"/>
      <point x="424.72" y="426.12"/>
      <point x="431.56" y="419.44"/>
      <point x="431.56" y="400.52" type="curve" smooth="yes"/>
      <point x="431.56" y="360.44"/>
      <point x="411.35999999999996" y="312.0"/>
      <point x="372.0" y="291.48" type="curve" smooth="yes"/>
      <point x="356.04" y="283.08"/>
      <point x="337.79999999999995" y="278.68"/>
      <point x="314.84" y="279.56" type="curve"/>
      <point x="289.76" y="186.95999999999998" type="line"/>
      <point x="329.36" y="186.07999999999998"/>
      <point x="367.79999999999995" y="193.35999999999999"/>
      <point x="401.96000000000004" y="206.92" type="curve" smooth="yes"/>
      <point x="495.88" y="243.76"/>
      <point x="560.2" y="334.0"/>
      <point x="560.2" y="444.71999999999997" type="curve" smooth="yes"/>
      <point x="560.2" y="512.32"/>
      <point x="530.32" y="557.1999999999999"/>
      <point x="467.68" y="557.1999999999999" type="curve" smooth="yes"/>
      <point x="434.71999999999997" y="557.1999999999999"/>
      <point x="407.47999999999996" y="542.12"/>
      <point x="381.36" y="518.12" type="curve"/>
      <point x="388.04" y="557.1999999999999" type="line"/>
      <point x="262.4" y="557.1999999999999" type="line"/>
      <point x="259.4" y="539.48" type="line"/>
      <point x="243.79999999999998" y="551.76"/>
      <point x="224.64000000000001" y="557.1999999999999"/>
      <point x="203.32" y="557.1999999999999" type="curve" smooth="yes"/>
      <point x="87.56" y="557.1999999999999"/>
      <point x="6.68" y="390.64"/>
      <point x="6.68" y="149.76000000000002" type="curve" smooth="yes"/>
      <point x="6.68" y="50.32"/>
      <point x="44.72" y="-10.0"/>
    </contour>
    <contour>
      <point x="173.56" y="112.19999999999999" type="curve" smooth="yes"/>
      <point x="161.92000000000002" y="112.19999999999999"/>
      <point x="153.96" y="124.8"/>
      <point x="153.96" y="168.92000000000002" type="curve" smooth="yes"/>
      <point x="153.96" y="287.35999999999996"/>
      <point x="186.44" y="421.52000000000004"/>
      <point x="222.68" y="421.52000000000004" type="curve" smooth="yes"/>
      <point x="228.79999999999998" y="421.52000000000004"/>
      <point x="234.20000000000002" y="420.24"/>
      <point x="238.04000000000002" y="417.12" type="curve"/>
      <point x="193.0" y="119.44" type="line"/>
      <point x="186.6" y="114.32"/>
      <point x="180.07999999999998" y="112.19999999999999"/>
    </contour>
  </outline>
</glyph>
<glyph name="eth" format="2">
  <advance width="369.28"/>
  <unicode hex="00F0"/>
  <outline>
    <contour>
      <point x="247.44" y="407.44" type="curve"/>
      <point x="273.08" y="517.88" type="line"/>
      <point x="252.20000000000002" y="530.44"/>
      <point x="222.32" y="537.4399999999999"/>
      <point x="197.04000000000002" y="537.4399999999999" type="curve" smooth="yes"/>
      <point x="59.28" y="537.4399999999999"/>
      <point x="3.4000000000000004" y="333.59999999999997"/>
      <point x="3.4000000000000004" y="165.76" type="curve" smooth="yes"/>
      <point x="3.4000000000000004" y="47.08"/>
      <point x="59.239999999999995" y="-9.28"/>
      <point x="150.35999999999999" y="-9.28" type="curve" smooth="yes"/>
      <point x="286.15999999999997" y="-9.28"/>
      <point x="324.72" y="69.16000000000001"/>
      <point x="365.88" y="330.36" type="curve" smooth="yes"/>
      <point x="375.0" y="388.2"/>
      <point x="380.12" y="439.24"/>
      <point x="380.12" y="483.04" type="curve" smooth="yes"/>
      <point x="380.12" y="645.8"/>
      <point x="318.88" y="747.12"/>
      <point x="183.88000000000002" y="747.12" type="curve" smooth="yes"/>
      <point x="132.56" y="747.12"/>
      <point x="96.36" y="736.96"/>
      <point x="68.47999999999999" y="727.0799999999999" type="curve"/>
      <point x="76.64" y="624.5600000000001" type="line"/>
      <point x="94.36" y="628.5600000000001"/>
      <point x="116.52" y="633.28"/>
      <point x="138.95999999999998" y="633.28" type="curve" smooth="yes"/>
      <point x="211.72" y="633.28"/>
      <point x="240.0" y="600.4"/>
      <point x="240.0" y="517.3199999999999" type="curve" smooth="yes"/>
      <point x="240.0" y="480.24"/>
      <point x="235.28" y="431.2"/>
      <point x="225.16" y="368.2" type="curve" smooth="yes"/>
      <point x="189.16" y="134.32"/>
      <point x="175.79999999999998" y="103.32"/>
      <point x="156.92000000000002" y="103.32" type="curve" smooth="yes"/>
      <point x="146.16000000000003" y="103.32"/>
      <point x="140.51999999999998" y="110.96000000000001"/>
      <point x="140.51999999999998" y="132.8" type="curve" smooth="yes"/>
      <point x="140.51999999999998" y="203.51999999999998"/>
      <point x="168.76" y="418.24"/>
      <point x="216.95999999999998" y="418.24" type="curve" smooth="yes"/>
      <point x="224.92000000000002" y="418.24"/>
      <point x="235.88" y="414.96000000000004"/>
    </contour>
    <contour>
      <point x="161.72" y="554.96" type="line"/>
      <point x="274.28" y="628.92" type="line"/>
      <point x="270.4" y="632.48" type="line"/>
      <point x="441.88" y="744.52" type="line"/>
      <point x="335.76" y="745.24" type="line"/>
      <point x="239.96" y="682.92" type="line"/>
      <point x="241.52" y="677.48" type="line"/>
      <point x="55.32000000000001" y="555.6800000000001" type="line"/>
    </contour>
  </outline>
</glyph>
<glyph name="divide" format="2">
  <advance width="380.56"/>
  <unicode hex="00F7"/>
  <outline>
    <contour>
      <point x="93.44" y="109.32000000000001" type="curve" smooth="yes"/>
      <point x="93.16" y="72.08"/>
      <point x="112.36" y="52.88"/>
      <point x="155.32" y="52.88" type="curve" smooth="yes"/>
      <point x="209.16000000000003" y="52.88"/>
      <point x="239.84" y="86.56"/>
      <point x="240.4" y="154.28" type="curve" smooth="yes"/>
      <point x="240.68" y="191.8"/>
      <point x="221.2" y="210.0"/>
      <point x="180.24" y="210.0" type="curve" smooth="yes"/>
      <point x="120.8" y="210.0"/>
      <point x="94.0" y="162.56"/>
    </contour>
    <contour>
      <point x="154.92000000000002" y="494.24" type="curve" smooth="yes"/>
      <point x="154.64" y="457.0"/>
      <point x="173.12" y="438.8"/>
      <point x="215.8" y="438.8" type="curve" smooth="yes"/>
      <point x="269.64" y="438.8"/>
      <point x="301.32" y="472.48"/>
      <point x="301.88" y="539.2" type="curve" smooth="yes"/>
      <point x="302.15999999999997" y="577.4399999999999"/>
      <point x="281.96000000000004" y="595.64"/>
      <point x="241.0" y="595.64" type="curve" smooth="yes"/>
      <point x="178.83999999999997" y="595.64"/>
      <point x="155.48" y="544.04"/>
    </contour>
    <contour>
      <point x="39.28" y="254.92" type="line"/>
      <point x="335.68" y="254.92" type="line"/>
      <point x="357.6" y="395.32" type="line"/>
      <point x="61.199999999999996" y="395.32" type="line"/>
    </contour>
  </outline>
</glyph>
<glyph name="oslash" format="2">
  <advance width="370.4"/>
  <unicode hex="00F8"/>
  <anchor x="217.72" y="547.1999999999999" name="top"/>
  <outline>
    <contour>
      <point x="347.6" y="557.9200000000001" type="line"/>
      <point x="285.15999999999997" y="467.36" type="line"/>
      <point x="280.44" y="469.08000000000004" type="line"/>
      <point x="80.19999999999999" y="164.95999999999998" type="line"/>
      <point x="76.75999999999999" y="166.95999999999998" type="line"/>
      <point x="-45.4" y="-10.0" type="line"/>
      <point x="19.2" y="-10.0" type="line"/>
      <point x="82.19999999999999" y="82.4" type="line"/>
      <point x="86.92" y="80.67999999999999" type="line"/>
      <point x="292.91999999999996" y="390.72" type="line"/>
      <point x="296.36" y="388.71999999999997" type="line"/>
      <point x="412.91999999999996" y="557.9200000000001" type="line"/>
    </contour>
    <contour>
      <point x="156.08" y="-10.0" type="curve" smooth="yes"/>
      <point x="309.36" y="-10.0"/>
      <point x="360.84000000000003" y="198.32"/>
      <point x="360.84000000000003" y="396.16" type="curve" smooth="yes"/>
      <point x="360.84000000000003" y="505.08000000000004"/>
      <point x="321.36" y="557.9200000000001"/>
      <point x="211.44" y="557.9200000000001" type="curve" smooth="yes"/>
      <point x="58.16" y="557.9200000000001"/>
      <point x="6.68" y="349.6"/>
      <point x="6.68" y="152.04" type="curve" smooth="yes"/>
      <point x="6.68" y="43.12"/>
      <point x="46.44" y="-10.0"/>
    </contour>
    <contour>
      <point x="159.51999999999998" y="122.24" type="curve" smooth="yes"/>
      <point x="143.76" y="122.24"/>
      <point x="135.92000000000002" y="132.48"/>
      <point x="135.92000000000002" y="154.32" type="curve" smooth="yes"/>
      <point x="135.92000000000002" y="196.44"/>
      <point x="164.60000000000002" y="425.68"/>
      <point x="208.28" y="425.68" type="curve" smooth="yes"/>
      <point x="224.04" y="425.68"/>
      <point x="231.88" y="415.44000000000005"/>
      <point x="231.88" y="393.88000000000005" type="curve" smooth="yes"/>
      <point x="231.88" y="351.48"/>
      <point x="203.2" y="122.24"/>
    </contour>
  </outline>
</glyph>
<glyph name="thorn" format="2">
  <advance width="373.24"/>
  <unicode hex="00FE"/>
  <outline>
    <contour>
      <point x="-53.08" y="-210.0" type="line"/>
      <point x="87.89999999999999" y="-210.0" type="line"/>
      <point x="120.89999999999999" y="-3.0" type="line"/>
      <point x="132.32" y="-5.42"/>
      <point x="147.04" y="-8.28"/>
      <point x="170.64" y="-8.28" type="curve" smooth="yes"/>
      <point x="302.72" y="-8.28"/>
      <point x="366.42" y="184.26"/>
      <point x="366.42" y="378.66" type="curve" smooth="yes"/>
      <point x="366.42" y="508.04"/>
      <point x="346.0" y="557.2"/>
      <point x="280.96" y="557.2" type="curve" smooth="yes"/>
      <point x="240.18" y="557.2"/>
      <point x="217.88" y="536.44"/>
      <point x="204.76" y="522.14" type="curve"/>
      <point x="238.89999999999998" y="740.0" type="line"/>
      <point x="96.92" y="740.0" type="line"/>
    </contour>
    <contour>
      <point x="154.01999999999998" y="123.24" type="curve" smooth="yes"/>
      <point x="150.48000000000002" y="123.24"/>
      <point x="146.07999999999998" y="123.52"/>
      <point x="141.95999999999998" y="125.22" type="curve"/>
      <point x="186.28" y="406.54" type="line"/>
      <point x="190.1" y="408.8"/>
      <point x="196.6" y="411.06"/>
      <point x="202.42000000000002" y="411.06" type="curve" smooth="yes"/>
      <point x="213.18" y="411.06"/>
      <point x="220.14" y="402.6"/>
      <point x="220.14" y="366.2" type="curve" smooth="yes"/>
      <point x="220.14" y="254.46"/>
      <point x="189.1" y="123.24"/>
    </contour>
  </outline>
</glyph>
<glyph name="Dcroat" format="2">
  <advance width="404.52"/>
  <unicode hex="0110"/>
  <outline>
    <contour>
      <point x="6.52" y="279.9" type="line"/>
      <point x="214.28" y="279.9" type="line"/>
      <point x="237.92000000000002" y="422.46" type="line"/>
      <point x="30.16" y="422.46" type="line"/>
    </contour>
    <component base="D" xOffset="11.3"/>
  </outline>
</glyph>
<glyph name="dcroat" format="2">
  <advance width="382.26"/>
  <unicode hex="0111"/>
  <outline>
    <contour>
      <point x="176.24" y="614.98" type="line"/>
      <point x="436.68" y="614.98" type="line"/>
      <point x="450.0" y="699.64" type="line"/>
      <point x="190.42000000000002" y="699.64" type="line"/>
    </contour>
    <component base="d"/>
  </outline>
</glyph>
<glyph name="Hbar" format="2">
  <advance width="399.03999999999996"/>
  <unicode hex="0126"/>
  <outline>
    <contour>
      <point x="30.82" y="502.0" type="line"/>
      <point x="440.22" y="502.0" type="line"/>
      <point x="461.14" y="630.52" type="line"/>
      <point x="51.74" y="630.52" type="line"/>
    </contour>
    <component base="H" xOffset="4.4399999999999995"/>
  </outline>
</glyph>
<glyph name="hbar" format="2">
  <advance width="382.12"/>
  <unicode hex="0127"/>
  <outline>
    <contour>
      <point x="55.28" y="614.98" type="line"/>
      <point x="287.3" y="614.98" type="line"/>
      <point x="300.62" y="699.64" type="line"/>
      <point x="68.6" y="699.64" type="line"/>
    </contour>
    <component base="h" xOffset="6.88"/>
  </outline>
</glyph>
<glyph name="Idotaccent" format="2">
  <advance width="192.28"/>
  <unicode hex="0130"/>
  <outline>
    <contour>
      <point x="200.76" y="926.14" type="curve" smooth="yes"/>
      <point x="130.0" y="926.14"/>
      <point x="103.34" y="863.08"/>
      <point x="102.92" y="800.38" type="curve" smooth="yes"/>
      <point x="102.78" y="753.68"/>
      <point x="125.84" y="731.32"/>
      <point x="168.82" y="731.32" type="curve" smooth="yes"/>
      <point x="240.44" y="731.32"/>
      <point x="266.24" y="796.1"/>
      <point x="266.65999999999997" y="857.94" type="curve" smooth="yes"/>
      <point x="266.8" y="904.64"/>
      <point x="242.88" y="926.14"/>
    </contour>
    <component base="I"/>
  </outline>
</glyph>
<glyph name="dotlessi" format="2">
  <advance width="188.68"/>
  <unicode hex="0131"/>
  <anchor x="50.7" y="0.0" name="bottom"/>
  <anchor x="121.76" y="0.0" name="ogonek"/>
  <anchor x="137.28" y="547.2" name="top"/>
  <outline>
    <contour>
      <point x="121.76" y="0.0" type="line"/>
      <point x="208.34" y="547.2" type="line"/>
      <point x="66.36" y="547.2" type="line"/>
      <point x="-20.08" y="0.0" type="line"/>
    </contour>
  </outline>
</glyph>
<glyph name="Ldot" format="2">
  <advance width="301.62"/>
  <unicode hex="013F"/>
  <outline>
    <contour>
      <point x="211.05828" y="367.28731999999997" type="curve" smooth="yes"/>
      <point x="210.77828" y="335.51972"/>
      <point x="223.52931999999998" y="320.76954"/>
      <point x="254.44329999999997" y="320.76954" type="curve" smooth="yes"/>
      <point x="304.84745999999996" y="320.76954"/>
      <point x="318.74487999999997" y="375.36474"/>
      <point x="319.02488" y="414.86424" type="curve" smooth="yes"/>
      <point x="319.30488" y="445.34546"/>
      <point x="306.69384" y="460.23564"/>
      <point x="276.35262" y="460.23564" type="curve" smooth="yes"/>
      <point x="226.52208000000002" y="460.23564"/>
      <point x="211.33828" y="406.78682"/>
    </contour>
    <component base="L"/>
  </outline>
</glyph>
<glyph name="ldot" format="2">
  <advance width="295.44"/>
  <unicode hex="0140"/>
  <outline>
    <contour>
      <point x="205.34606" y="350.45454" type="curve" smooth="yes"/>
      <point x="205.06606" y="319.08684"/>
      <point x="217.53674" y="304.52844000000005"/>
      <point x="247.80228000000002" y="304.52844000000005" type="curve" smooth="yes"/>
      <point x="297.1237" y="304.52844000000005"/>
      <point x="310.71582" y="358.39436"/>
      <point x="310.99582" y="397.3942" type="curve" smooth="yes"/>
      <point x="311.27582" y="427.49100000000004"/>
      <point x="298.94514" y="442.18940000000003"/>
      <point x="269.24032" y="442.18940000000003" type="curve" smooth="yes"/>
      <point x="220.47876" y="442.18940000000003"/>
      <point x="205.62606" y="389.45437999999996"/>
    </contour>
    <component base="l"/>
  </outline>
</glyph>
<glyph name="Lslash" format="2">
  <advance width="324.82"/>
  <unicode hex="0141"/>
  <outline>
    <contour>
      <point x="4.0" y="0.0" type="line"/>
      <point x="271.38" y="0.0" type="line"/>
      <point x="293.3" y="138.54" type="line"/>
      <point x="167.04" y="138.54" type="line"/>
      <point x="196.0" y="322.3" type="line"/>
      <point x="285.48" y="371.68" type="line"/>
      <point x="310.98" y="521.52" type="line"/>
      <point x="219.78" y="471.28" type="line"/>
      <point x="256.98" y="700.0" type="line"/>
      <point x="115.86" y="700.0" type="line"/>
      <point x="67.06" y="397.96" type="line"/>
      <point x="22.2" y="373.44" type="line"/>
      <point x="-0.86" y="223.46" type="line"/>
      <point x="43.14" y="247.98" type="line"/>
    </contour>
  </outline>
</glyph>
<glyph name="lslash" format="2">
  <advance width="225.92000000000002"/>
  <unicode hex="0142"/>
  <outline>
    <contour>
      <point x="-3.86" y="219.8" type="line"/>
      <point x="242.92000000000002" y="390.0" type="line"/>
      <point x="264.12" y="522.92" type="line"/>
      <point x="16.48" y="352.72" type="line"/>
    </contour>
    <component base="l" xOffset="17.2"/>
  </outline>
</glyph>
<glyph name="Eng" format="2">
  <advance width="404.65999999999997"/>
  <unicode hex="014A"/>
  <outline>
    <contour>
      <point x="-19.06" y="0.0" type="line"/>
      <point x="108.3" y="0.0" type="line"/>
      <point x="163.0" y="338.24" type="line"/>
      <point x="192.16" y="-7.32" type="line"/>
      <point x="187.46" y="-36.28"/>
      <point x="177.12" y="-45.36"/>
      <point x="163.4" y="-45.36" type="curve" smooth="yes"/>
      <point x="157.14" y="-45.36"/>
      <point x="151.6" y="-44.94"/>
      <point x="147.78" y="-44.24" type="curve"/>
      <point x="123.0" y="-203.56" type="line"/>
      <point x="133.26" y="-205.98000000000002"/>
      <point x="146.54" y="-206.26"/>
      <point x="162.26" y="-206.26" type="curve" smooth="yes"/>
      <point x="250.98000000000002" y="-201.1"/>
      <point x="314.4" y="-140.36"/>
      <point x="334.14" y="-13.76" type="curve" smooth="yes"/>
      <point x="446.86" y="700.0" type="line"/>
      <point x="319.5" y="700.0" type="line"/>
      <point x="259.06" y="333.06" type="line"/>
      <point x="235.34" y="700.0" type="line"/>
      <point x="91.8" y="700.0" type="line"/>
    </contour>
  </outline>
</glyph>
<glyph name="eng" format="2">
  <advance width="371.52"/>
  <unicode hex="014B"/>
  <outline>
    <contour>
      <point x="301.34000000000003" y="6.400000000000006" type="curve" smooth="yes"/>
      <point x="314.1" y="89.72000000000003"/>
      <point x="377.74" y="446.46"/>
      <point x="377.74" y="471.1" type="curve" smooth="yes"/>
      <point x="377.74" y="526.32"/>
      <point x="349.86" y="557.2"/>
      <point x="297.96" y="557.2" type="curve" smooth="yes"/>
      <point x="265.22" y="557.2"/>
      <point x="228.92000000000002" y="547.78"/>
      <point x="189.0" y="514.14" type="curve"/>
      <point x="193.72" y="547.2" type="line"/>
      <point x="66.36" y="547.2" type="line"/>
      <point x="-20.22" y="0.0" type="line"/>
      <point x="121.62" y="0.0" type="line"/>
      <point x="186.86" y="403.12" type="line"/>
      <point x="194.82" y="409.52"/>
      <point x="203.01999999999998" y="412.92"/>
      <point x="210.84" y="412.92" type="curve" smooth="yes"/>
      <point x="221.62" y="412.92"/>
      <point x="226.3" y="407.38"/>
      <point x="226.3" y="398.15999999999997" type="curve" smooth="yes"/>
      <point x="226.3" y="394.15999999999997"/>
      <point x="224.58" y="383.28"/>
      <point x="162.94" y="1.9399999999999977" type="curve" smooth="yes"/>
      <point x="158.54" y="-25.879999999999995"/>
      <point x="150.3" y="-49.920000000000016"/>
      <point x="135.3" y="-49.920000000000016" type="curve" smooth="yes"/>
      <point x="133.04" y="-49.920000000000016"/>
      <point x="128.62" y="-49.78"/>
      <point x="124.64" y="-47.78" type="curve"/>
      <point x="89.53999999999999" y="-213.56" type="line"/>
      <point x="103.84" y="-217.28"/>
      <point x="120.0" y="-220.0"/>
      <point x="143.32" y="-220.0" type="curve" smooth="yes"/>
      <point x="205.45999999999998" y="-220.0"/>
      <point x="277.74" y="-176.6"/>
    </contour>
  </outline>
</glyph>
<glyph name="OE" format="2">
  <advance width="516.78"/>
  <unicode hex="0152"/>
  <outline>
    <contour>
      <point x="462.64" y="0.0" type="line"/>
      <point x="484.56" y="138.54" type="line"/>
      <point x="343.18" y="138.54" type="line"/>
      <point x="366.08" y="285.2" type="line"/>
      <point x="477.58" y="285.2" type="line"/>
      <point x="499.5" y="415.14" type="line"/>
      <point x="388.0" y="415.14" type="line"/>
      <point x="410.2" y="557.16" type="line"/>
      <point x="541.72" y="557.16" type="line"/>
      <point x="565.5" y="700.0" type="line"/>
      <point x="430.56" y="700.0" type="line"/>
      <point x="388.46" y="705.58"/>
      <point x="322.0" y="710.0"/>
      <point x="290.98" y="710.0" type="curve" smooth="yes"/>
      <point x="49.480000000000004" y="710.0"/>
      <point x="11.66" y="346.15999999999997"/>
      <point x="11.66" y="180.34" type="curve" smooth="yes"/>
      <point x="11.66" y="56.08"/>
      <point x="58.12" y="-10.0"/>
      <point x="183.26" y="-10.0" type="curve" smooth="yes"/>
      <point x="208.6" y="-10.0"/>
      <point x="250.1" y="-8.58"/>
      <point x="307.94" y="0.0" type="curve"/>
    </contour>
    <contour>
      <point x="200.2" y="132.68" type="line"/>
      <point x="193.8" y="130.26"/>
      <point x="186.96" y="129.26"/>
      <point x="180.54" y="129.26" type="curve" smooth="yes"/>
      <point x="159.88" y="129.26"/>
      <point x="152.78" y="154.6"/>
      <point x="152.78" y="189.92" type="curve" smooth="yes"/>
      <point x="152.78" y="317.72"/>
      <point x="202.38" y="564.86"/>
      <point x="252.42" y="564.86" type="curve" smooth="yes"/>
      <point x="259.96" y="564.86"/>
      <point x="265.66" y="563.3"/>
      <point x="269.22" y="563.02" type="curve"/>
    </contour>
  </outline>
</glyph>
<glyph name="oe" format="2">
  <advance width="557.6"/>
  <unicode hex="0153"/>
  <outline>
    <contour>
      <point x="157.24" y="-10.0" type="curve" smooth="yes"/>
      <point x="202.35999999999999" y="-10.0"/>
      <point x="238.64000000000001" y="11.719999999999999"/>
      <point x="265.84000000000003" y="46.64" type="curve"/>
      <point x="292.15999999999997" y="8.48"/>
      <point x="330.6" y="-10.0"/>
      <point x="380.56000000000006" y="-10.0" type="curve" smooth="yes"/>
      <point x="423.32" y="-10.0"/>
      <point x="473.68" y="1.1599999999999997"/>
      <point x="514.04" y="25.48" type="curve"/>
      <point x="489.56" y="158.56" type="line"/>
      <point x="455.24" y="141.4"/>
      <point x="424.91999999999996" y="134.39999999999998"/>
      <point x="400.48" y="134.39999999999998" type="curve" smooth="yes"/>
      <point x="372.28" y="134.39999999999998"/>
      <point x="349.72" y="151.28"/>
      <point x="349.72" y="220.04000000000002" type="curve" smooth="yes"/>
      <point x="349.72" y="346.92"/>
      <point x="384.64" y="426.12"/>
      <point x="418.76" y="426.12" type="curve" smooth="yes"/>
      <point x="427.96000000000004" y="426.12"/>
      <point x="437.24" y="418.71999999999997"/>
      <point x="437.24" y="398.36" type="curve" smooth="yes"/>
      <point x="437.24" y="360.15999999999997"/>
      <point x="414.88" y="311.23999999999995"/>
      <point x="378.12" y="291.15999999999997" type="curve" smooth="yes"/>
      <point x="363.43999999999994" y="283.03999999999996"/>
      <point x="344.76" y="278.2"/>
      <point x="322.64" y="279.08" type="curve"/>
      <point x="296.28" y="185.51999999999998" type="line"/>
      <point x="335.59999999999997" y="184.64000000000001"/>
      <point x="373.47999999999996" y="192.2"/>
      <point x="407.36" y="205.48000000000002" type="curve" smooth="yes"/>
      <point x="501.28000000000003" y="241.32"/>
      <point x="565.5999999999999" y="326.08"/>
      <point x="565.5999999999999" y="429.59999999999997" type="curve" smooth="yes"/>
      <point x="565.5999999999999" y="504.4"/>
      <point x="525.4" y="557.1999999999999"/>
      <point x="440.68" y="557.1999999999999" type="curve" smooth="yes"/>
      <point x="395.28" y="557.1999999999999"/>
      <point x="357.28" y="540.0"/>
      <point x="326.12" y="509.20000000000005" type="curve"/>
      <point x="304.48" y="542.4"/>
      <point x="268.72" y="557.9200000000001"/>
      <point x="212.6" y="557.9200000000001" type="curve" smooth="yes"/>
      <point x="59.32" y="557.9200000000001"/>
      <point x="7.84" y="349.6"/>
      <point x="7.84" y="152.04" type="curve" smooth="yes"/>
      <point x="7.84" y="43.12"/>
      <point x="47.6" y="-10.0"/>
    </contour>
    <contour>
      <point x="159.95999999999998" y="127.68" type="curve" smooth="yes"/>
      <point x="150.32" y="127.68"/>
      <point x="144.07999999999998" y="132.07999999999998"/>
      <point x="144.07999999999998" y="149.88" type="curve" smooth="yes"/>
      <point x="144.07999999999998" y="198.48000000000002"/>
      <point x="173.48000000000002" y="420.24"/>
      <point x="210.16" y="420.24" type="curve" smooth="yes"/>
      <point x="219.79999999999998" y="420.24"/>
      <point x="225.32" y="416.12"/>
      <point x="225.32" y="399.76" type="curve" smooth="yes"/>
      <point x="225.32" y="340.79999999999995"/>
      <point x="195.92000000000002" y="127.68"/>
    </contour>
  </outline>
</glyph>
<glyph name="uni0162" format="2">
  <advance width="340.12"/>
  <unicode hex="0162"/>
  <anchor x="126.48054" y="0.0" name="_bottom"/>
  <anchor x="69.72" y="-220.0" name="bottom"/>
  <outline>
    <contour>
      <point x="12.059999999999999" y="-209.14" type="line"/>
      <point x="28.94" y="-216.28"/>
      <point x="46.099999999999994" y="-220.0"/>
      <point x="69.72" y="-220.0" type="curve" smooth="yes"/>
      <point x="144.54" y="-220.0"/>
      <point x="193.36" y="-160.28"/>
      <point x="193.36" y="-75.46000000000001" type="curve" smooth="yes"/>
      <point x="193.36" y="-45.480000000000004"/>
      <point x="190.07999999999998" y="-16.8"/>
      <point x="181.36" y="6.88" type="curve"/>
      <point x="96.28" y="6.02" type="line"/>
      <point x="102.42" y="-14.2"/>
      <point x="105.7" y="-28.840000000000003"/>
      <point x="105.7" y="-53.82" type="curve" smooth="yes"/>
      <point x="105.7" y="-93.9"/>
      <point x="84.4" y="-110.98"/>
      <point x="56.82" y="-110.98" type="curve" smooth="yes"/>
      <point x="46.239999999999995" y="-110.98"/>
      <point x="39.96" y="-109.7"/>
      <point x="30.38" y="-106.42" type="curve"/>
    </contour>
    <component base="T"/>
  </outline>
</glyph>
<glyph name="Tbar" format="2">
  <advance width="340.68"/>
  <unicode hex="0166"/>
  <outline>
    <contour>
      <point x="379.03999999999996" y="566.62" type="line"/>
      <point x="400.96" y="700.0" type="line"/>
      <point x="74.58" y="700.0" type="line"/>
      <point x="52.66" y="566.62" type="line"/>
      <point x="146.08" y="566.62" type="line"/>
      <point x="119.72" y="404.62" type="line"/>
      <point x="65.66" y="404.62" type="line"/>
      <point x="40.3" y="261.2" type="line"/>
      <point x="97.08" y="261.2" type="line"/>
      <point x="55.28" y="0.0" type="line"/>
      <point x="195.54" y="0.0" type="line"/>
      <point x="237.34" y="261.2" type="line"/>
      <point x="293.53999999999996" y="261.2" type="line"/>
      <point x="318.9" y="404.62" type="line"/>
      <point x="260.12" y="404.62" type="line"/>
      <point x="286.34000000000003" y="566.62" type="line"/>
    </contour>
  </outline>
</glyph>
<glyph name="tbar" format="2">
  <advance width="238.68"/>
  <unicode hex="0167"/>
  <outline>
    <contour>
      <point x="-2.1999999999999993" y="248.78" type="line"/>
      <point x="226.16" y="248.78" type="line"/>
      <point x="245.5" y="358.8" type="line"/>
      <point x="16.28" y="358.8" type="line"/>
    </contour>
    <contour>
      <point x="208.7" y="136.98000000000002" type="line"/>
      <point x="200.14" y="134.84"/>
      <point x="194.16" y="133.7"/>
      <point x="188.45999999999998" y="133.7" type="curve" smooth="yes"/>
      <point x="167.07999999999998" y="133.7"/>
      <point x="160.54" y="147.39999999999998"/>
      <point x="160.54" y="166.76" type="curve" smooth="yes"/>
      <point x="160.54" y="174.45999999999998"/>
      <point x="161.68" y="183.16"/>
      <point x="162.82" y="193.14" type="curve" smooth="yes"/>
      <point x="199.3" y="415.54" type="line"/>
      <point x="255.72" y="415.54" type="line"/>
      <point x="278.5" y="547.2" type="line"/>
      <point x="222.07999999999998" y="547.2" type="line"/>
      <point x="238.78" y="655.54" type="line"/>
      <point x="116.42" y="655.54" type="line"/>
      <point x="80.96000000000001" y="547.2" type="line"/>
      <point x="44.58" y="541.2" type="line"/>
      <point x="22.8" y="416.4" type="line"/>
      <point x="58.18" y="416.4" type="line"/>
      <point x="19.12" y="175.07999999999998" type="line" smooth="yes"/>
      <point x="14.4" y="146.04"/>
      <point x="9.96" y="105.96000000000001"/>
      <point x="9.96" y="84.22" type="curve" smooth="yes"/>
      <point x="9.96" y="7.82"/>
      <point x="59.36" y="-10.0"/>
      <point x="101.18" y="-10.0" type="curve" smooth="yes"/>
      <point x="136.4" y="-10.0"/>
      <point x="167.6" y="-2.84"/>
      <point x="192.2" y="12.48" type="curve"/>
    </contour>
  </outline>
</glyph>
<glyph name="uogonek" format="2">
  <advance width="374.36"/>
  <unicode hex="0173"/>
  <outline>
    <contour>
      <point x="262.15999999999997" y="-207.1" type="curve" smooth="yes"/>
      <point x="283.03999999999996" y="-207.1"/>
      <point x="301.92" y="-201.24"/>
      <point x="320.1" y="-193.38" type="curve"/>
      <point x="331.44" y="-75.46000000000001" type="line"/>
      <point x="330.6" y="-76.02"/>
      <point x="323.46000000000004" y="-78.3"/>
      <point x="316.03999999999996" y="-78.3" type="curve" smooth="yes"/>
      <point x="305.76" y="-78.3"/>
      <point x="301.2" y="-70.74"/>
      <point x="301.2" y="-59.34" type="curve" smooth="yes"/>
      <point x="301.2" y="-34.540000000000006"/>
      <point x="318.15999999999997" y="-4.939999999999998"/>
      <point x="333.03999999999996" y="12.9" type="curve"/>
      <point x="351.26" y="137.84" type="line"/>
      <point x="347.0" y="136.28"/>
      <point x="341.88" y="135.85999999999999"/>
      <point x="339.18" y="135.85999999999999" type="curve" smooth="yes"/>
      <point x="330.78" y="135.85999999999999"/>
      <point x="327.64" y="141.56"/>
      <point x="327.64" y="152.56" type="curve" smooth="yes"/>
      <point x="327.64" y="158.39999999999998"/>
      <point x="328.91999999999996" y="168.22"/>
      <point x="390.15999999999997" y="547.2" type="curve"/>
      <point x="250.76" y="547.2" type="line"/>
      <point x="184.94" y="142.92000000000002" type="line"/>
      <point x="176.0" y="135.68"/>
      <point x="168.51999999999998" y="132.56"/>
      <point x="160.12" y="132.56" type="curve" smooth="yes"/>
      <point x="149.18" y="132.56"/>
      <point x="143.64" y="140.95999999999998"/>
      <point x="145.36" y="153.34" type="curve" smooth="yes"/>
      <point x="160.84" y="255.06"/>
      <point x="180.9" y="380.44"/>
      <point x="207.18" y="547.2" type="curve"/>
      <point x="66.92" y="547.2" type="line"/>
      <point x="21.080000000000002" y="263.88"/>
      <point x="-4.219999999999999" y="139.88"/>
      <point x="-4.219999999999999" y="78.96000000000001" type="curve" smooth="yes"/>
      <point x="-4.219999999999999" y="28.2"/>
      <point x="24.94" y="-10.0"/>
      <point x="83.3" y="-10.0" type="curve" smooth="yes"/>
      <point x="121.48" y="-10.0"/>
      <point x="147.48" y="6.02"/>
      <point x="182.5" y="42.36" type="curve"/>
      <point x="191.52" y="13.62"/>
      <point x="221.0" y="-10.0"/>
      <point x="258.92" y="-10.0" type="curve" smooth="yes"/>
      <point x="276.68" y="-10.0"/>
      <point x="287.7" y="12.5"/>
      <point x="277.36" y="34.14" type="curve"/>
      <point x="218.6" y="-9.939999999999998"/>
      <point x="173.12" y="-63.36"/>
      <point x="173.12" y="-123.68" type="curve" smooth="yes"/>
      <point x="173.12" y="-180.36"/>
      <point x="210.2" y="-207.1"/>
    </contour>
  </outline>
</glyph>
<glyph name="longs" format="2">
  <advance width="217.72"/>
  <unicode hex="017F"/>
  <outline>
    <contour>
      <point x="-37.72" y="-220.0" type="curve" smooth="yes"/>
      <point x="69.14" y="-220.0"/>
      <point x="119.64" y="-153.24"/>
      <point x="142.38" y="-9.939999999999998" type="curve" smooth="yes"/>
      <point x="226.94" y="522.7" type="line" smooth="yes"/>
      <point x="236.88" y="588.04"/>
      <point x="250.24" y="603.72"/>
      <point x="276.12" y="603.72" type="curve" smooth="yes"/>
      <point x="286.54" y="603.72"/>
      <point x="298.96" y="600.72"/>
      <point x="311.82" y="596.0" type="curve"/>
      <point x="354.08" y="724.08" type="line"/>
      <point x="326.9" y="738.54"/>
      <point x="299.14" y="750.0"/>
      <point x="254.46" y="750.0" type="curve" smooth="yes"/>
      <point x="169.72" y="750.0"/>
      <point x="107.22" y="676.14"/>
      <point x="84.96000000000001" y="522.7" type="curve"/>
      <point x="43.3" y="515.84" type="line"/>
      <point x="22.380000000000003" y="391.04" type="line"/>
      <point x="63.900000000000006" y="391.04" type="line"/>
      <point x="4.84" y="13.980000000000004" type="line" smooth="yes"/>
      <point x="-3.0" y="-33.620000000000005"/>
      <point x="-18.7" y="-51.920000000000016"/>
      <point x="-43.160000000000004" y="-51.920000000000016" type="curve" smooth="yes"/>
      <point x="-51.28" y="-51.920000000000016"/>
      <point x="-58.84" y="-51.640000000000015"/>
      <point x="-73.12" y="-46.640000000000015" type="curve"/>
      <point x="-120.12" y="-203.54" type="line"/>
      <point x="-91.5" y="-214.56"/>
      <point x="-64.46000000000001" y="-220.0"/>
    </contour>
  </outline>
</glyph>
<glyph name="uni018F" format="2">
  <advance width="385.47999999999996"/>
  <unicode hex="018F"/>
  <outline>
    <contour>
      <point x="136.76" y="-10.0" type="curve" smooth="yes"/>
      <point x="296.36" y="-10.0"/>
      <point x="389.36" y="166.32"/>
      <point x="389.36" y="474.08000000000004" type="curve" smooth="yes"/>
      <point x="389.36" y="629.72"/>
      <point x="330.0" y="710.0"/>
      <point x="222.0" y="710.0" type="curve" smooth="yes"/>
      <point x="156.76000000000002" y="710.0"/>
      <point x="104.44" y="696.5600000000001"/>
      <point x="48.800000000000004" y="665.24" type="curve"/>
      <point x="80.16000000000001" y="523.6800000000001" type="line"/>
      <point x="113.16000000000001" y="545.12"/>
      <point x="148.32" y="556.12"/>
      <point x="183.6" y="556.12" type="curve" smooth="yes"/>
      <point x="226.64" y="556.12"/>
      <point x="248.23999999999998" y="531.8000000000001"/>
      <point x="248.23999999999998" y="432.84000000000003" type="curve" smooth="yes"/>
      <point x="248.23999999999998" y="309.47999999999996"/>
      <point x="207.95999999999998" y="142.16"/>
      <point x="164.28" y="142.16" type="curve" smooth="yes"/>
      <point x="142.2" y="142.16"/>
      <point x="133.68" y="161.68"/>
      <point x="133.68" y="193.16" type="curve" smooth="yes"/>
      <point x="133.68" y="269.08"/>
      <point x="178.72" y="338.24"/>
      <point x="226.32" y="338.24" type="curve" smooth="yes"/>
      <point x="234.88" y="338.24"/>
      <point x="242.72" y="338.23999999999995"/>
      <point x="251.56" y="337.96" type="curve"/>
      <point x="257.71999999999997" y="449.28000000000003" type="line"/>
      <point x="249.44" y="449.56"/>
      <point x="241.16" y="449.56"/>
      <point x="232.6" y="449.56" type="curve" smooth="yes"/>
      <point x="83.44" y="449.56"/>
      <point x="-5.0" y="346.43999999999994"/>
      <point x="-5.0" y="161.92" type="curve" smooth="yes"/>
      <point x="-5.0" y="61.239999999999995"/>
      <point x="46.92" y="-10.0"/>
    </contour>
  </outline>
</glyph>
<glyph name="florin" format="2">
  <advance width="396.2"/>
  <unicode hex="0192"/>
  <outline>
    <contour>
      <point x="261.56" y="274.84000000000003" type="line"/>
      <point x="306.2" y="274.84000000000003" type="line"/>
      <point x="327.26" y="406.36" type="line"/>
      <point x="282.62" y="406.36" type="line"/>
      <point x="293.48" y="474.96" type="line" smooth="yes"/>
      <point x="302.56" y="530.84"/>
      <point x="313.8" y="550.96"/>
      <point x="338.0" y="550.96" type="curve" smooth="yes"/>
      <point x="348.0" y="550.96"/>
      <point x="355.14" y="548.96"/>
      <point x="367.72" y="544.1" type="curve"/>
      <point x="417.0" y="684.08" type="line"/>
      <point x="390.38" y="698.54"/>
      <point x="363.03999999999996" y="710.0"/>
      <point x="318.64" y="710.0" type="curve" smooth="yes"/>
      <point x="235.86" y="710.0"/>
      <point x="177.76" y="637.96"/>
      <point x="154.22" y="495.6" type="curve" smooth="yes"/>
      <point x="139.92" y="406.36" type="line"/>
      <point x="98.12" y="400.34" type="line"/>
      <point x="77.06" y="274.84000000000003" type="line"/>
      <point x="118.86" y="274.84000000000003" type="line"/>
      <point x="41.76" y="-210.0" type="line"/>
      <point x="184.46" y="-210.0" type="line"/>
    </contour>
  </outline>
</glyph>
<glyph name="uni0237" format="2">
  <advance width="190.94"/>
  <unicode hex="0237"/>
  <anchor x="-34.4" y="-210.0" name="bottom"/>
  <anchor x="138.68" y="547.2" name="top"/>
  <outline>
    <contour>
      <point x="211.45999999999998" y="547.2" type="line"/>
      <point x="68.62" y="547.2" type="line"/>
      <point x="-15.919999999999998" y="17.42" type="line" smooth="yes"/>
      <point x="-23.759999999999998" y="-30.180000000000007"/>
      <point x="-38.88" y="-53.360000000000014"/>
      <point x="-63.34" y="-53.360000000000014" type="curve" smooth="yes"/>
      <point x="-72.32" y="-53.360000000000014"/>
      <point x="-79.88" y="-53.08000000000001"/>
      <point x="-93.3" y="-48.08000000000001" type="curve"/>
      <point x="-136.0" y="-205.26" type="line"/>
      <point x="-107.38" y="-216.28"/>
      <point x="-74.32" y="-220.0"/>
      <point x="-51.88" y="-220.0" type="curve" smooth="yes"/>
      <point x="54.980000000000004" y="-220.0"/>
      <point x="98.88" y="-154.24"/>
      <point x="122.48" y="-5.640000000000001" type="curve" smooth="yes"/>
    </contour>
  </outline>
</glyph>
<glyph name="uni0259" format="2">
  <advance width="351.76"/>
  <unicode hex="0259"/>
  <outline>
    <contour>
      <point x="235.92000000000002" y="267.32" type="curve"/>
      <point x="261.72" y="362.8" type="line"/>
      <point x="222.12" y="363.68"/>
      <point x="183.4" y="356.12"/>
      <point x="148.96" y="342.56000000000006" type="curve" smooth="yes"/>
      <point x="55.04" y="306.44"/>
      <point x="-9.280000000000001" y="221.95999999999998"/>
      <point x="-9.280000000000001" y="117.88" type="curve" smooth="yes"/>
      <point x="-9.280000000000001" y="43.36"/>
      <point x="30.92" y="-10.0"/>
      <point x="116.47999999999999" y="-10.0" type="curve" smooth="yes"/>
      <point x="275.68" y="-10.0"/>
      <point x="340.79999999999995" y="171.88"/>
      <point x="340.79999999999995" y="357.03999999999996" type="curve" smooth="yes"/>
      <point x="340.79999999999995" y="489.36"/>
      <point x="287.48" y="557.1999999999999"/>
      <point x="184.16" y="557.1999999999999" type="curve" smooth="yes"/>
      <point x="131.95999999999998" y="557.1999999999999"/>
      <point x="83.60000000000001" y="544.04"/>
      <point x="44.239999999999995" y="522.0" type="curve"/>
      <point x="69.44" y="387.32" type="line"/>
      <point x="103.2" y="404.2"/>
      <point x="133.24" y="411.20000000000005"/>
      <point x="158.51999999999998" y="411.20000000000005" type="curve" smooth="yes"/>
      <point x="185.04000000000002" y="411.20000000000005"/>
      <point x="204.4" y="400.68"/>
      <point x="204.4" y="330.52" type="curve" smooth="yes"/>
      <point x="204.4" y="203.64"/>
      <point x="174.95999999999998" y="120.52"/>
      <point x="140.83999999999997" y="120.52" type="curve" smooth="yes"/>
      <point x="127.64" y="120.52"/>
      <point x="121.52" y="132.04"/>
      <point x="121.52" y="149.12" type="curve" smooth="yes"/>
      <point x="121.52" y="187.88"/>
      <point x="141.72" y="233.88"/>
      <point x="178.2" y="254.68" type="curve" smooth="yes"/>
      <point x="193.44" y="263.08"/>
      <point x="212.95999999999998" y="268.20000000000005"/>
    </contour>
  </outline>
</glyph>
<glyph name="gravecomb" format="2">
  <unicode hex="0300"/>
  <anchor x="-151.38" y="547.2" name="_top"/>
  <anchor x="-142.04" y="777.94" name="top"/>
  <outline>
    <contour>
      <point x="-183.36" y="595.14" type="line"/>
      <point x="-75.34" y="595.14" type="line"/>
      <point x="-93.98" y="789.14" type="line"/>
      <point x="-235.24" y="789.14" type="line"/>
    </contour>
  </outline>
</glyph>
<glyph name="acutecomb" format="2">
  <unicode hex="0301"/>
  <anchor x="-151.38" y="547.2" name="_top"/>
  <anchor x="-87.52" y="777.94" name="top"/>
  <outline>
    <contour>
      <point x="-211.14" y="595.14" type="line"/>
      <point x="-100.53999999999999" y="595.14" type="line"/>
      <point x="7.600000000000001" y="789.14" type="line"/>
      <point x="-138.96" y="789.14" type="line"/>
    </contour>
  </outline>
</glyph>
<glyph name="uni0302" format="2">
  <unicode hex="0302"/>
  <anchor x="-151.38" y="547.2" name="_top"/>
  <anchor x="-114.66" y="775.68" name="top"/>
  <anchor x="45.22" y="653.94" name="top_viet"/>
  <outline>
    <contour>
      <point x="-276.46000000000004" y="595.14" type="line"/>
      <point x="-159.84" y="595.14" type="line"/>
      <point x="-124.42" y="717.12" type="line"/>
      <point x="-127.66" y="595.14" type="line"/>
      <point x="-11.18" y="595.14" type="line"/>
      <point x="-34.16" y="789.14" type="line"/>
      <point x="-189.9" y="789.14" type="line"/>
    </contour>
  </outline>
</glyph>
